<svg width="99" height="110" viewBox="0 0 99 110" fill="none" xmlns="http://www.w3.org/2000/svg">
<path fill-rule="evenodd" clip-rule="evenodd" d="M94.0546 64.7275C94.7281 64.1075 95.3315 63.4381 95.8551 62.7249L15.4329 109.157C16.2041 109.1 16.9774 108.974 17.7479 108.783L94.0546 64.7275ZM93.6157 43.4714L0.366313 97.3089C0.414034 97.6024 0.471348 97.8904 0.535885 98.1742L94.2633 44.0606C94.1578 43.961 94.0557 43.8562 93.9477 43.758C93.8398 43.6598 93.726 43.5682 93.6133 43.4728L93.6157 43.4714ZM96.5534 46.9119L1.80971 101.612C1.93911 101.859 2.07812 102.099 2.22434 102.336L96.9633 47.6384C96.8339 47.3921 96.6972 47.1499 96.5534 46.9119ZM98.3172 57.1299C98.3866 56.7784 98.4422 56.4253 98.484 56.0705L8.62222 107.952C8.94559 108.096 9.27201 108.229 9.60386 108.349L98.3148 57.1313L98.3172 57.1299ZM4.51681 105.186C4.62514 105.29 4.73347 105.395 4.8466 105.496C4.95177 105.59 5.05934 105.682 5.16691 105.774L98.4018 51.9444C98.3531 51.6547 98.2982 51.3654 98.2323 51.0792L4.51681 105.186ZM-3.18547e-05 15.3348L0.00136392 16.2971L23.4645 2.75072L22.6294 2.26974L-3.18547e-05 15.3348ZM0.0114463 20.4648L0.0128487 21.4271L27.9158 5.31732L27.0807 4.83635L0.0114463 20.4648ZM0.0229376 25.5948L0.0243306 26.5571L32.3672 7.88394L31.5321 7.40296L0.0229376 25.5948ZM0.0344158 30.7248L0.035822 31.6871L36.8185 10.4505L35.9835 9.96956L0.0344158 30.7248ZM0.0458939 35.8547L0.0473001 36.817L41.2699 13.0172L40.4348 12.5362L0.0458939 35.8547ZM0.0573891 40.9847L0.0587782 41.947L45.7213 15.5838L44.8862 15.1028L0.0573891 40.9847ZM0.0688672 46.1147L0.0702715 47.077L50.1726 18.1504L49.3375 17.6694L0.0688672 46.1147ZM0.0803586 51.2446L0.0817562 52.2069L54.624 20.717L53.7889 20.236L0.0803586 51.2446ZM0.0918367 56.3746L0.0932495 57.3369L59.0753 23.2836L58.2402 22.8026L0.0894317 56.376L0.0918367 56.3746ZM0.103317 61.5046L0.104728 62.4669L63.5267 25.8502L62.6916 25.3692L0.100918 61.506L0.103317 61.5046ZM0.114815 66.6345L0.116206 67.5969L67.978 28.4168L67.143 27.9358L0.11241 66.6359L0.114815 66.6345ZM0.126295 71.7645L0.127699 72.7268L72.4294 30.9834L71.5943 30.5024L0.12389 71.7659L0.126295 71.7645ZM0.137773 76.8945L0.139177 77.8568L76.8808 33.55L76.0457 33.069L0.135368 76.8959L0.137773 76.8945ZM0.149265 82.0245L0.150656 82.9868L81.3321 36.1166L80.497 35.6356L0.14686 82.0258L0.149265 82.0245ZM90.2372 41.2485L89.4022 40.7675L0.172222 92.2844L0.173633 93.2467L90.2348 41.2498L90.2372 41.2485ZM0.160743 87.1544L0.162155 88.1167L85.7835 38.6832L84.9484 38.2023L0.158338 87.1558L0.160743 87.1544ZM18.7536 0.33392C18.3928 0.20835 18.029 0.0941634 17.6639 -2.47152e-05L0.517037 9.89971C0.416054 10.263 0.33302 10.6352 0.261364 11.0104L18.7512 0.335303L18.7536 0.33392ZM10.1867 0.143415C8.02601 0.784151 6.0357 1.93647 4.39665 3.48633L10.1867 0.143415Z" fill="#B4E7FB"/>
</svg>
