<svg width="101" height="112" viewBox="0 0 101 112" fill="none" xmlns="http://www.w3.org/2000/svg">
<path fill-rule="evenodd" clip-rule="evenodd" d="M7.27927 43.3315L61.7893 11.9115V100.142L7.21927 68.4815C-2.43073 62.8815 -2.40073 48.9115 7.27927 43.3315ZM64.7893 10.1816L71.7893 6.15153V105.952L64.7893 101.892V10.1916V10.1816ZM81.7893 0.731544V111.322C81.7893 111.322 81.6893 111.302 81.6493 111.282C80.6893 110.972 79.7393 110.542 78.8093 110.002L74.7993 107.672V4.40153L79.0793 1.93156C79.9693 1.42155 80.8793 1.02152 81.7993 0.711525L81.7893 0.731544ZM90.7393 0.701515C91.0893 0.821518 91.4393 0.95153 91.7893 1.09153V110.772C89.6193 111.712 87.2193 112.122 84.7893 111.912V0.0815201C86.8293 -0.138481 88.8493 0.0915222 90.7393 0.711525V0.701515ZM100.779 14.5516L100.569 97.4615C100.559 102.362 98.2093 106.442 94.7793 109.022V2.76157C98.3493 5.33157 100.789 9.52155 100.779 14.5516Z" fill="#B4E7FB"/>
</svg>
