<svg width="93" height="155" viewBox="0 0 93 155" fill="none" xmlns="http://www.w3.org/2000/svg">
<path fill-rule="evenodd" clip-rule="evenodd" d="M-41.3608 91.7955C-42.319 90.9143 -43.1775 89.9631 -43.9226 88.9498L70.4453 154.98C69.3491 154.898 68.2499 154.719 67.1545 154.447L-41.3608 91.7955ZM-40.7655 61.6174L91.8438 138.179C91.7764 138.596 91.6953 139.005 91.6039 139.408L-41.6853 62.453C-41.5354 62.3117 -41.3904 62.1631 -41.2371 62.0239C-41.0838 61.8846 -40.9222 61.7547 -40.7621 61.6193L-40.7655 61.6174ZM-44.9364 66.4981L89.798 144.287C89.6145 144.637 89.4172 144.978 89.2097 145.314L-45.5179 67.529C-45.3343 67.1795 -45.1405 66.8358 -44.9364 66.4981ZM-47.4296 81.0029C-47.5287 80.5038 -47.6081 80.0024 -47.668 79.4986L80.1238 153.279C79.6644 153.483 79.2006 153.671 78.7291 153.841L-47.4262 81.0049L-47.4296 81.0029ZM85.9552 149.357C85.8014 149.505 85.6475 149.653 85.4869 149.797C85.3375 149.93 85.1848 150.06 85.032 150.191L-47.5568 73.6406C-47.488 73.2294 -47.4103 72.8187 -47.317 72.4125L85.9552 149.357ZM92.2544 21.7958L92.2537 23.162L58.8869 3.89772L60.0732 3.21597L92.2544 21.7958ZM92.2449 29.0791L92.2442 30.4453L52.5636 7.53572L53.7499 6.85397L92.2449 29.0791ZM92.2355 36.3625L92.2348 37.7287L46.2402 11.1737L47.4265 10.492L92.2355 36.3625ZM92.2261 43.6458L92.2254 45.012L39.9169 14.8117L41.1032 14.13L92.2261 43.6458ZM92.2166 50.9291L92.2159 52.2954L33.5935 18.4497L34.7798 17.768L92.2166 50.9291ZM92.2072 58.2125L92.2065 59.5787L27.2702 22.0878L28.4565 21.406L92.2072 58.2125ZM92.1978 65.4958L92.1971 66.8621L20.9469 25.7258L22.1331 25.044L92.1978 65.4958ZM92.1883 72.7792L92.1876 74.1454L14.6235 29.3638L15.8098 28.682L92.1883 72.7792ZM92.1789 80.0625L92.1782 81.4288L8.30016 33.0018L9.48643 32.32L92.1823 80.0645L92.1789 80.0625ZM92.1695 87.3459L92.1688 88.7121L1.97682 36.6398L3.16309 35.958L92.1729 87.3479L92.1695 87.3459ZM92.16 94.6292L92.1594 95.9955L-4.34653 40.2778L-3.16027 39.596L92.1635 94.6312L92.16 94.6292ZM92.1506 101.913L92.1499 103.279L-10.6699 43.9158L-9.48361 43.234L92.154 101.915L92.1506 101.913ZM92.1412 109.196L92.1405 110.562L-16.9932 47.5538L-15.807 46.872L92.1446 109.198L92.1412 109.196ZM92.1317 116.479L92.1311 117.846L-23.3166 51.1918L-22.1303 50.51L92.1352 116.481L92.1317 116.479ZM-35.9667 58.4658L-34.7804 57.7841L92.1129 131.046L92.1122 132.412L-35.9633 58.4678L-35.9667 58.4658ZM92.1223 123.763L92.1216 125.129L-29.6399 54.8298L-28.4537 54.148L92.1257 123.765L92.1223 123.763ZM65.5793 0.472755C66.0919 0.294963 66.6089 0.133328 67.1277 9.2877e-05L91.5121 14.0784C91.6561 14.5944 91.7747 15.1229 91.877 15.6558L65.5827 0.474723L65.5793 0.472755ZM77.7553 0.213796C80.8272 1.1264 83.6577 2.76508 85.9893 4.96773L77.7553 0.213796Z" fill="#B4E7FB"/>
</svg>
