<svg width="118" height="130" viewBox="0 0 118 130" fill="none" xmlns="http://www.w3.org/2000/svg">
<mask id="path-1-inside-1_1209_10127" fill="white">
<path d="M22.3 129.038C11.78 132.448 0.260048 124.728 0.240048 113.018L5.80546e-05 16.888C-0.0199419 9.03804 5.13002 2.95803 11.71 0.828033C15.99 -0.561966 20.8701 -0.281982 25.3201 2.27802L108.99 50.258C120.27 56.728 120.3 72.918 109.05 79.418L25.6201 127.568C24.5401 128.188 23.4301 128.688 22.3101 129.048"/>
</mask>
<path d="M0.240048 113.018L20.24 112.968L20.24 112.976L20.24 112.984L0.240048 113.018ZM5.80546e-05 16.888L20 16.8371L20 16.8381L5.80546e-05 16.888ZM11.71 0.828033L17.8877 19.85L17.8786 19.853L17.8695 19.8559L11.71 0.828033ZM25.3201 2.27802L15.3709 19.6278L15.359 19.6209L15.347 19.614L25.3201 2.27802ZM108.99 50.258L118.939 32.9082L118.941 32.9093L108.99 50.258ZM109.05 79.418L119.056 96.7353L119.047 96.7402L109.05 79.418ZM25.6201 127.568L35.6172 144.89L35.5973 144.902L35.5774 144.913L25.6201 127.568ZM22.3 129.038L28.467 148.063C5.5789 155.483 -19.7158 138.89 -19.7599 113.052L0.240048 113.018L20.24 112.984C20.2393 112.57 20.1212 112.008 19.8271 111.462C19.5541 110.955 19.2069 110.6 18.878 110.367C18.2821 109.946 17.2745 109.643 16.133 110.013L22.3 129.038ZM0.240048 113.018L-19.7599 113.068L-19.9999 16.938L5.80546e-05 16.888L20 16.8381L20.24 112.968L0.240048 113.018ZM5.80546e-05 16.888L-19.9999 16.939C-20.0439 -0.35701 -8.55719 -13.6331 5.55053 -18.1999L11.71 0.828033L17.8695 19.8559C18.3895 19.6876 18.8852 19.3637 19.2917 18.83C19.7637 18.21 20.0015 17.4423 20 16.8371L5.80546e-05 16.888ZM11.71 0.828033L5.53232 -18.194C14.891 -21.2333 25.6723 -20.5927 35.2931 -15.058L25.3201 2.27802L15.347 19.614C15.6267 19.775 16.0628 19.9357 16.5882 19.9848C17.0867 20.0315 17.5303 19.9661 17.8877 19.85L11.71 0.828033ZM25.3201 2.27802L35.2692 -15.0718L118.939 32.9082L108.99 50.258L99.0409 67.6078L15.3709 19.6278L25.3201 2.27802ZM108.99 50.258L118.941 32.9093C143.576 47.0397 143.675 82.511 119.056 96.7353L109.05 79.418L99.0445 62.1007C96.9254 63.3251 96.9636 66.4163 99.0391 67.6068L108.99 50.258ZM109.05 79.418L119.047 96.7402L35.6172 144.89L25.6201 127.568L15.6229 110.246L99.0529 62.0959L109.05 79.418ZM25.6201 127.568L35.5774 144.913C33.4027 146.162 31.0121 147.259 28.4302 148.089L22.3101 129.048L16.1899 110.007C15.848 110.117 15.6774 110.215 15.6627 110.223L25.6201 127.568Z" fill="#C7B3E1" mask="url(#path-1-inside-1_1209_10127)"/>
</svg>
