<svg width="99" height="110" viewBox="0 0 99 110" fill="none" xmlns="http://www.w3.org/2000/svg">
<path fill-rule="evenodd" clip-rule="evenodd" d="M94.0536 64.7275C94.7272 64.1075 95.3305 63.4381 95.8541 62.7249L15.4319 109.157C16.2031 109.1 16.9764 108.974 17.7469 108.783L94.0536 64.7275ZM93.6147 43.4714L0.365336 97.3089C0.413057 97.6024 0.470372 97.8904 0.534908 98.1742L94.2624 44.0606C94.1568 43.961 94.0547 43.8562 93.9467 43.758C93.8388 43.6598 93.725 43.5682 93.6123 43.4728L93.6147 43.4714ZM96.5524 46.9119L1.80873 101.612C1.93813 101.859 2.07714 102.099 2.22337 102.336L96.9623 47.6384C96.8329 47.3921 96.6963 47.1499 96.5524 46.9119ZM98.3162 57.1299C98.3856 56.7784 98.4412 56.4253 98.483 56.0705L8.62124 107.952C8.94461 108.096 9.27103 108.229 9.60288 108.349L98.3138 57.1313L98.3162 57.1299ZM4.51584 105.186C4.62417 105.29 4.73249 105.395 4.84563 105.496C4.95079 105.59 5.05836 105.682 5.16593 105.774L98.4009 51.9444C98.3521 51.6547 98.2972 51.3654 98.2313 51.0792L4.51584 105.186ZM-0.00100842 15.3348L0.000387361 16.2971L23.4635 2.75072L22.6284 2.26974L-0.00100842 15.3348ZM0.0104697 20.4648L0.0118721 21.4271L27.9148 5.31732L27.0798 4.83635L0.0104697 20.4648ZM0.0219611 25.5948L0.0233541 26.5571L32.3662 7.88394L31.5311 7.40296L0.0219611 25.5948ZM0.0334392 30.7248L0.0348454 31.6871L36.8176 10.4505L35.9825 9.96956L0.0334392 30.7248ZM0.0449173 35.8547L0.0463235 36.817L41.2689 13.0172L40.4338 12.5362L0.0449173 35.8547ZM0.0564125 40.9847L0.0578017 41.947L45.7203 15.5838L44.8852 15.1028L0.0564125 40.9847ZM0.0678906 46.1147L0.0692949 47.077L50.1716 18.1504L49.3366 17.6694L0.0678906 46.1147ZM0.079382 51.2446L0.0807797 52.2069L54.623 20.717L53.7879 20.236L0.079382 51.2446ZM0.0908601 56.3746L0.0922729 57.3369L59.0743 23.2836L58.2393 22.8026L0.0884551 56.376L0.0908601 56.3746ZM0.10234 61.5046L0.103751 62.4669L63.5257 25.8502L62.6906 25.3692L0.0999417 61.506L0.10234 61.5046ZM0.113838 66.6345L0.115229 67.5969L67.9771 28.4168L67.142 27.9358L0.111433 66.6359L0.113838 66.6345ZM0.125318 71.7645L0.126722 72.7268L72.4284 30.9834L71.5933 30.5024L0.122913 71.7659L0.125318 71.7645ZM0.136796 76.8945L0.138201 77.8568L76.8798 33.55L76.0447 33.069L0.134391 76.8959L0.136796 76.8945ZM0.148289 82.0245L0.14968 82.9868L81.3311 36.1166L80.4961 35.6356L0.145884 82.0258L0.148289 82.0245ZM90.2363 41.2485L89.4012 40.7675L0.171246 92.2844L0.172657 93.2467L90.2339 41.2498L90.2363 41.2485ZM0.159767 87.1544L0.161179 88.1167L85.7825 38.6832L84.9474 38.2023L0.157362 87.1558L0.159767 87.1544ZM18.7527 0.33392C18.3919 0.20835 18.028 0.0941634 17.6629 -2.47152e-05L0.51606 9.89971C0.415077 10.263 0.332043 10.6352 0.260388 11.0104L18.7503 0.335303L18.7527 0.33392ZM10.1858 0.143415C8.02503 0.784151 6.03472 1.93647 4.39567 3.48633L10.1858 0.143415Z" fill="#B4E7FB"/>
</svg>
