<svg width="1920" height="800" viewBox="0 0 1920 800" fill="none" xmlns="http://www.w3.org/2000/svg">
<path d="M1782.38 69.0212C1773.86 66.2579 1764.68 72.5226 1764.37 81.6912L1764.36 82.1296L1763.93 251.227C1763.92 257.526 1767.95 262.498 1773.53 264.305L1773.54 264.307C1777.03 265.441 1780.94 265.234 1784.65 263.1L1784.66 263.095L1931.85 178.693L1931.85 178.692L1932.28 178.438C1941.08 172.989 1940.93 160.16 1931.92 154.965L1785.19 70.2791L1785.18 70.28C1784.2 69.7117 1783.27 69.3067 1782.4 69.0281L1782.39 69.0251L1782.38 69.0212Z" stroke="#B4E7FB" stroke-width="31.7992"/>
<path fill-rule="evenodd" clip-rule="evenodd" d="M1519.08 605.385V563.457L1521.47 564.841V608.493C1524.42 612.086 1527.87 615.393 1531.8 618.327V570.827L1534.19 572.21V620.036C1535.4 620.855 1536.65 621.642 1537.95 622.381L1544.52 626.15V578.196L1546.91 579.58V627.517L1557.24 633.439V585.558L1559.62 586.941V634.807L1569.96 640.729V593.794C1570.79 594.509 1571.59 595.249 1572.34 596.02V642.105L1821.17 784.78V725.522L1563.52 577.823C1558.27 574.81 1558.25 567.257 1563.49 564.237L1857.56 394.731C1858.06 394.437 1858.58 394.214 1859.1 394.039C1864.01 392.45 1869.37 396.051 1869.38 401.504L1869.49 739.649C1869.49 742.01 1868.49 744.013 1866.96 745.42V798.898C1868.7 798.747 1870.43 798.525 1872.14 798.223V691.362L1873.33 692.053V798C1875.08 797.65 1876.81 797.229 1878.51 796.728V695.042L1879.7 695.734V796.37C1879.84 796.323 1879.99 796.291 1880.14 796.243C1881.74 795.719 1883.32 795.13 1884.87 794.478V698.731L1886.07 699.423V793.962C1887.83 793.175 1889.56 792.3 1891.24 791.346V702.404L1892.43 703.096V790.663C1894.22 789.597 1895.94 788.437 1897.61 787.196V706.093L1898.8 706.784V786.29C1900.62 784.867 1902.34 783.349 1903.98 781.727V709.781L1905.17 710.473V780.519C1907.03 778.571 1908.76 776.48 1910.35 774.278V713.462L1911.54 714.154V772.553C1913.54 769.548 1915.28 766.336 1916.71 762.934V717.143L1917.91 717.834V759.849C1920.11 753.664 1921.32 746.923 1921.3 739.768L1920.45 401.639C1920.35 360.452 1879.84 333.271 1842.84 345.275C1838.89 346.555 1834.99 348.28 1831.18 350.475L1537.71 519.845C1520.77 529.615 1511.13 545.65 1508.73 562.567V579.516C1510.04 588.698 1513.48 597.61 1519.07 605.408L1519.08 605.385ZM1582.68 614.789C1584.18 621.07 1584.17 627.66 1582.68 633.948V614.789ZM1865.76 746.311C1865.21 746.645 1864.64 746.939 1864.03 747.137C1862.94 747.495 1861.76 747.598 1860.58 747.447V799.113C1862.31 799.153 1864.04 799.121 1865.76 799.01V746.319L1865.76 746.311ZM1835.11 792.674C1836.82 793.54 1838.55 794.303 1840.28 794.987V736.477L1835.11 733.511V792.674ZM1841.48 795.456C1843.19 796.092 1844.92 796.641 1846.65 797.102V740.126L1841.48 737.16V795.456ZM1847.84 797.412C1849.57 797.841 1851.29 798.183 1853.02 798.453V743.783L1847.84 740.817V797.42V797.412ZM1859.39 799.081V747.185C1858.82 747.01 1858.24 746.78 1857.69 746.462L1854.21 744.466V798.612C1855.94 798.843 1857.67 799.002 1859.39 799.073V799.081ZM1833.91 732.828L1828.73 729.862V789.12L1832.27 791.147C1832.81 791.457 1833.36 791.736 1833.91 792.03V732.828ZM1827.54 788.437V729.179L1822.37 726.214V785.471L1827.54 788.437Z" fill="#02AEF0"/>
<path fill-rule="evenodd" clip-rule="evenodd" d="M1803.68 294.866C1803.11 292.306 1802.32 289.85 1801.3 287.528V553.64C1802.26 551.644 1803.06 549.545 1803.68 547.359V294.866ZM1750.42 265.499V574.055C1751.21 574.357 1752.01 574.627 1752.8 574.874V264.736C1752.41 264.855 1752 264.959 1751.6 265.086C1751.21 265.213 1750.82 265.364 1750.42 265.507V265.499ZM1763.14 263.138V576.638C1763.93 576.67 1764.73 576.67 1765.52 576.646V263.162C1764.73 263.13 1763.93 263.122 1763.14 263.138ZM1790.96 273.402C1790.19 272.726 1789.4 272.082 1788.58 271.47V568.816C1789.4 568.22 1790.19 567.599 1790.96 566.948V273.409V273.402ZM1775.86 575.04C1776.27 574.921 1776.69 574.802 1777.1 574.667C1777.48 574.54 1777.86 574.404 1778.24 574.269V265.762C1777.46 265.468 1776.66 265.189 1775.86 264.943V575.04ZM1546.91 457.511L1549.29 458.886V381.248L1546.91 382.632V457.511ZM1559.63 464.832L1562.01 466.208V373.879L1559.63 375.262V464.832ZM1572.34 472.154L1574.73 473.53V366.509L1572.34 367.893V472.154ZM1585.06 479.476L1587.45 480.851V359.14L1585.06 360.523V479.476ZM1597.78 486.798L1600.17 488.173V351.771L1597.78 353.154V486.798ZM1610.5 494.12L1612.89 495.495V344.401L1610.5 345.784V494.12ZM1623.22 501.441L1625.61 502.817V337.032L1623.22 338.415V501.441ZM1635.94 508.763L1638.33 510.138V329.662L1635.94 331.045V508.763ZM1648.66 516.085L1651.05 517.46V322.293L1648.66 323.676V516.093V516.085ZM1661.38 523.407L1663.77 524.782V314.923L1661.38 316.307V523.415V523.407ZM1674.1 530.728L1676.49 532.104V307.554L1674.1 308.937V530.736V530.728ZM1686.82 538.05L1689.21 539.425V300.184L1686.82 301.568V538.058V538.05ZM1699.54 545.372L1701.93 546.747V292.815L1699.54 294.198V545.38V545.372ZM1712.26 552.694L1714.65 554.069V285.445L1712.26 286.829V552.702V552.694ZM1740.09 270.699L1737.7 272.082V567.337L1740.09 568.712V270.707V270.699ZM1724.98 560.015L1727.37 561.391V278.076L1724.98 279.459V560.023V560.015ZM1536.57 389.476C1535.74 390.192 1534.94 390.931 1534.19 391.702V448.44C1534.94 449.211 1535.74 449.95 1536.57 450.666V389.484V389.476ZM1523.85 410.464C1522.35 416.744 1522.36 423.335 1523.85 429.623V410.464Z" fill="#B4E7FB"/>
<path d="M1546.13 639.513C1550.62 638.05 1555.53 641.365 1555.54 646.382L1555.64 687.578C1555.65 690.94 1553.45 693.548 1550.65 694.462C1548.83 695.058 1546.74 694.939 1544.84 693.842L1509.17 673.284C1504.36 670.509 1504.35 663.569 1509.15 660.787L1544.72 640.149C1545.18 639.879 1545.66 639.672 1546.13 639.513Z" fill="#C7B3E1"/>
<path d="M1605.7 639.513C1601.22 638.05 1596.31 641.365 1596.3 646.382L1596.19 687.578C1596.19 690.94 1598.38 693.548 1601.19 694.462C1603.01 695.058 1605.09 694.939 1606.99 693.842L1642.66 673.284C1647.47 670.509 1647.49 663.569 1642.69 660.787L1607.12 640.149C1606.66 639.879 1606.18 639.672 1605.7 639.513Z" fill="#F5F2FA"/>
<path d="M1534.81 0.459132C1528.89 -1.47267 1522.41 2.90766 1522.39 9.54574L1522.26 64.0733C1522.25 68.5252 1525.14 71.9755 1528.85 73.1838C1531.26 73.9709 1534 73.8118 1536.5 72.365L1583.59 45.1529C1589.94 41.488 1589.96 32.2981 1583.63 28.6173L1536.68 1.30181C1536.07 0.944067 1535.45 0.665826 1534.81 0.459132Z" fill="#FDF3BA"/>
<path d="M1453.9 372.122C1442.65 368.457 1430.34 376.749 1430.31 389.317L1430.04 492.498C1430.02 500.924 1435.53 507.443 1442.56 509.733C1447.14 511.219 1452.36 510.917 1457.11 508.183L1546.57 456.684C1558.63 449.744 1558.67 432.357 1546.64 425.386L1457.45 373.704C1456.29 373.036 1455.1 372.504 1453.9 372.114" fill="#F7D418"/>
<path opacity="0.5" fill-rule="evenodd" clip-rule="evenodd" d="M65.0625 430.075C64.7175 428.537 64.2384 427.06 63.6251 425.665L63.6251 585.579C64.2049 584.38 64.684 583.118 65.0625 581.805L65.0625 430.075ZM32.9609 412.428L32.9609 597.847C33.44 598.028 33.9192 598.191 34.3983 598.339L34.3983 411.969C34.1587 412.041 33.9144 412.103 33.6748 412.179C33.4352 412.256 33.2005 412.347 32.9609 412.433L32.9609 412.428ZM40.627 411.009L40.627 599.399C41.1061 599.418 41.5852 599.418 42.0644 599.404L42.0643 411.023C41.5852 411.004 41.1061 410.999 40.627 411.009ZM57.3964 417.176C56.9317 416.77 56.4526 416.383 55.9591 416.015L55.9591 594.698C56.4526 594.34 56.9317 593.967 57.3965 593.576L57.3964 417.181L57.3964 417.176ZM48.293 598.439C48.5422 598.367 48.7913 598.296 49.0405 598.214C49.2704 598.138 49.5004 598.057 49.7304 597.976L49.7304 412.585C49.2561 412.409 48.7769 412.241 48.293 412.093L48.293 598.439ZM-89.6959 527.812L-88.2586 528.639L-88.2586 481.984L-89.6959 482.816L-89.6959 527.812ZM-82.0299 532.212L-80.5925 533.039L-80.5925 477.556L-82.0299 478.387L-82.0299 532.212ZM-74.3638 536.612L-72.9265 537.438L-72.9265 473.127L-74.3638 473.959L-74.3638 536.612ZM-66.6978 541.012L-65.2604 541.838L-65.2604 468.699L-66.6978 469.53L-66.6978 541.012ZM-59.0317 545.412L-57.5943 546.238L-57.5944 464.27L-59.0317 465.102L-59.0317 545.412ZM-51.3657 549.812L-49.9283 550.638L-49.9283 459.842L-51.3657 460.673L-51.3657 549.812ZM-43.6996 554.211L-42.2622 555.038L-42.2622 455.413L-43.6996 456.245L-43.6996 554.211ZM-36.0336 558.611L-34.5962 559.438L-34.5962 450.985L-36.0336 451.816L-36.0336 558.611ZM-28.3675 563.011L-26.9301 563.837L-26.9301 446.556L-28.3675 447.388L-28.3675 563.016L-28.3675 563.011ZM-20.7015 567.411L-19.2641 568.237L-19.2641 442.128L-20.7015 442.959L-20.7015 567.416L-20.7015 567.411ZM-13.0354 571.811L-11.598 572.637L-11.598 437.699L-13.0354 438.531L-13.0354 571.815L-13.0354 571.811ZM-5.36936 576.211L-3.93197 577.037L-3.93198 433.271L-5.36937 434.102L-5.36936 576.215L-5.36936 576.211ZM2.2967 580.61L3.73408 581.437L3.73407 428.842L2.29669 429.674L2.2967 580.615L2.2967 580.61ZM9.96275 585.01L11.4001 585.837L11.4001 424.414L9.96274 425.245L9.96275 585.015L9.96275 585.01ZM26.7322 415.552L25.2948 416.383L25.2949 593.81L26.7322 594.636L26.7322 415.557L26.7322 415.552ZM17.6288 589.41L19.0662 590.236L19.0662 419.985L17.6288 420.817L17.6288 589.415L17.6288 589.41ZM-95.9246 486.929C-96.4229 487.359 -96.9068 487.803 -97.362 488.266L-97.362 522.362C-96.9068 522.825 -96.4229 523.269 -95.9246 523.699L-95.9246 486.934L-95.9246 486.929ZM-103.591 499.541C-104.496 503.315 -104.491 507.275 -103.591 511.054L-103.591 499.541Z" fill="#E8EAF4" stroke="#E8EAF4" stroke-width="0.794979"/>
<path d="M-2.5012 544.638C-13.7502 540.973 -26.0644 549.265 -26.0962 561.833L-26.3585 665.014C-26.3824 673.441 -20.8732 679.959 -13.8376 682.249C-9.26648 683.736 -4.04347 683.433 0.710503 680.699L90.1695 629.2C102.229 622.26 102.269 604.874 90.241 597.902L1.04443 546.22C-0.116241 545.552 -1.30078 545.02 -2.5012 544.63" fill="#F7D418"/>
<mask id="mask0_3001_2545" style="mask-type:alpha" maskUnits="userSpaceOnUse" x="-27" y="543" width="127" height="141">
<path d="M-2.5012 544.638C-13.7502 540.973 -26.0644 549.265 -26.0962 561.833L-26.3585 665.014C-26.3824 673.441 -20.8732 679.959 -13.8376 682.249C-9.26648 683.736 -4.04347 683.433 0.710503 680.699L90.1695 629.2C102.229 622.26 102.269 604.874 90.241 597.902L1.04443 546.22C-0.116241 545.552 -1.30078 545.02 -2.5012 544.63" fill="#F7D418"/>
</mask>
<g mask="url(#mask0_3001_2545)">
<path fill-rule="evenodd" clip-rule="evenodd" d="M65.0625 430.075C64.7175 428.537 64.2384 427.06 63.6251 425.665L63.6251 585.579C64.2049 584.38 64.684 583.118 65.0625 581.805L65.0625 430.075ZM32.9609 412.428L32.9609 597.847C33.44 598.028 33.9192 598.191 34.3983 598.339L34.3983 411.969C34.1587 412.041 33.9144 412.103 33.6748 412.179C33.4352 412.256 33.2005 412.347 32.9609 412.433L32.9609 412.428ZM40.627 411.009L40.627 599.399C41.1061 599.418 41.5852 599.418 42.0644 599.404L42.0643 411.023C41.5852 411.004 41.1061 410.999 40.627 411.009ZM57.3964 417.176C56.9317 416.77 56.4526 416.383 55.9591 416.015L55.9591 594.698C56.4526 594.34 56.9317 593.967 57.3965 593.576L57.3964 417.181L57.3964 417.176ZM48.293 598.439C48.5422 598.367 48.7913 598.296 49.0405 598.214C49.2704 598.138 49.5004 598.057 49.7304 597.976L49.7304 412.585C49.2561 412.409 48.7769 412.241 48.293 412.093L48.293 598.439ZM-89.6959 527.812L-88.2586 528.639L-88.2586 481.984L-89.6959 482.816L-89.6959 527.812ZM-82.0299 532.212L-80.5925 533.039L-80.5925 477.556L-82.0299 478.387L-82.0299 532.212ZM-74.3638 536.612L-72.9265 537.438L-72.9265 473.127L-74.3638 473.959L-74.3638 536.612ZM-66.6978 541.012L-65.2604 541.838L-65.2604 468.699L-66.6978 469.53L-66.6978 541.012ZM-59.0317 545.412L-57.5943 546.238L-57.5944 464.27L-59.0317 465.102L-59.0317 545.412ZM-51.3657 549.812L-49.9283 550.638L-49.9283 459.842L-51.3657 460.673L-51.3657 549.812ZM-43.6996 554.211L-42.2622 555.038L-42.2622 455.413L-43.6996 456.245L-43.6996 554.211ZM-36.0336 558.611L-34.5962 559.438L-34.5962 450.985L-36.0336 451.816L-36.0336 558.611ZM-28.3675 563.011L-26.9301 563.837L-26.9301 446.556L-28.3675 447.388L-28.3675 563.016L-28.3675 563.011ZM-20.7015 567.411L-19.2641 568.237L-19.2641 442.128L-20.7015 442.959L-20.7015 567.416L-20.7015 567.411ZM-13.0354 571.811L-11.598 572.637L-11.598 437.699L-13.0354 438.531L-13.0354 571.815L-13.0354 571.811ZM-5.36936 576.211L-3.93197 577.037L-3.93198 433.271L-5.36937 434.102L-5.36936 576.215L-5.36936 576.211ZM2.2967 580.61L3.73408 581.437L3.73407 428.842L2.29669 429.674L2.2967 580.615L2.2967 580.61ZM9.96275 585.01L11.4001 585.837L11.4001 424.414L9.96274 425.245L9.96275 585.015L9.96275 585.01ZM26.7322 415.552L25.2948 416.383L25.2949 593.81L26.7322 594.636L26.7322 415.557L26.7322 415.552ZM17.6288 589.41L19.0662 590.236L19.0662 419.985L17.6288 420.817L17.6288 589.415L17.6288 589.41ZM-95.9246 486.929C-96.4229 487.359 -96.9068 487.803 -97.362 488.266L-97.362 522.362C-96.9068 522.825 -96.4229 523.269 -95.9246 523.699L-95.9246 486.934L-95.9246 486.929ZM-103.591 499.541C-104.496 503.315 -104.491 507.275 -103.591 511.054L-103.591 499.541Z" fill="white" stroke="white" stroke-width="0.794979"/>
</g>
<path fill-rule="evenodd" clip-rule="evenodd" d="M1327.71 630.922L1371.05 655.901V585.76L1327.66 610.929C1319.99 615.38 1320.02 626.486 1327.71 630.922ZM1373.43 657.276L1379 660.48V581.141L1373.43 584.368V657.268V657.276ZM1386.95 664.788V576.872C1386.95 576.872 1386.87 576.888 1386.83 576.903C1386.07 577.15 1385.32 577.492 1384.58 577.921L1381.39 579.773V661.871L1384.79 663.834C1385.5 664.24 1386.22 664.558 1386.95 664.804L1386.95 664.788ZM1394.06 664.812C1394.34 664.717 1394.62 664.614 1394.9 664.502V577.309C1393.17 576.562 1391.26 576.236 1389.33 576.403V665.305C1390.95 665.48 1392.56 665.297 1394.06 664.804V664.812ZM1402.04 653.802L1401.88 587.89C1401.87 583.995 1400 580.751 1397.27 578.7V663.175C1400.11 661.131 1402.05 657.801 1402.04 653.802Z" fill="#B4E7FB"/>
</svg>
