<svg width="100" height="100" viewBox="0 0 100 100" fill="none" xmlns="http://www.w3.org/2000/svg">
<g clip-path="url(#clip0_1209_9396)">
<rect width="100" height="100" rx="50" fill="#D5DDEF"/>
<path fill-rule="evenodd" clip-rule="evenodd" d="M7 109.956C7 109.956 7.09063 100.395 10.2935 89.2779C14.613 77.1025 34.4921 73.9304 34.4921 73.9304L39.3554 67.8889V62.3296C38 51 62.5 44.4999 61.4277 62.3296V67.8889L66.291 73.9304C66.291 73.9304 86.1701 77.1025 90.4896 89.2779C93.6925 100.395 93.7831 109.956 93.7831 109.956H7Z" fill="url(#paint0_radial_1209_9396)"/>
<path fill-rule="evenodd" clip-rule="evenodd" d="M32.8665 45.4856C32.8665 45.4856 27.5 40.4123 27.5 32.5C27.5 24.5877 29.8264 21.7009 32 19.5C34.2824 17.189 37.2176 16.4368 37.8461 16.4368C40.5 13.5 45.9638 10.6797 53.1506 11.0167C59.1948 11.3001 66.8405 14.4109 70 21C73.1595 27.5891 73.3778 30.422 73 34C72.6222 37.578 70.7625 42.0678 67.5 46C64.2375 49.9322 32.8665 45.4839 32.8665 45.4839V45.4856Z" fill="white"/>
<path fill-rule="evenodd" clip-rule="evenodd" d="M69.1967 53.5809C67.3494 55.2646 66.396 55.0152 66.396 55.0152C66.396 55.0152 65.7093 59.5655 61.8651 62.5687C57.1522 66.2836 54.3587 68 50.6081 67.9982C50.5991 67.9982 50.5883 68 50.5793 68C50.5523 68 50.527 68 50.5018 68C50.4748 68 50.4495 68 50.4243 68C50.4153 68 50.4045 67.9982 50.3955 67.9982C46.6449 68.0018 43.8532 66.2854 39.1385 62.5687C35.2943 59.5655 34.6076 55.0152 34.6076 55.0152C34.6076 55.0152 33.6542 55.2646 31.8069 53.5809C29.9595 51.8973 29.7937 46.497 30.1542 44.9044C30.5146 43.3118 31.897 44.2528 31.897 44.2528L33.2018 34.8336L50.4225 34.0073V34L50.5 34.0036L50.5775 34C50.5775 34 50.5775 34.0036 50.5775 34.0073L67.7964 34.8336L69.103 44.2528C69.103 44.2528 70.4854 43.3118 70.8458 44.9044C71.2063 46.497 71.0405 51.8973 69.1931 53.5809H69.1967Z" fill="white"/>
</g>
<defs>
<radialGradient id="paint0_radial_1209_9396" cx="0" cy="0" r="1" gradientUnits="userSpaceOnUse" gradientTransform="translate(50.3915 64.5) rotate(90) scale(36 48.0645)">
<stop stop-color="#F9FBFF"/>
<stop offset="0.658654" stop-color="#F3F7FF"/>
<stop offset="0.980769" stop-color="#D5DDEF"/>
</radialGradient>
<clipPath id="clip0_1209_9396">
<rect width="100" height="100" rx="50" fill="white"/>
</clipPath>
</defs>
</svg>
