<svg width="100" height="569" viewBox="0 0 100 569" fill="none" xmlns="http://www.w3.org/2000/svg">
<path fill-rule="evenodd" clip-rule="evenodd" d="M511.441 43.6011L465.767 17.2311L465.774 20.6992L513.327 48.1542C515.382 53.6358 516.819 59.4657 517.54 65.5975L465.795 35.7225L465.802 39.1906L517.902 69.2706C518.029 71.1106 518.101 72.9653 518.087 74.8506L518.062 84.3739L465.823 54.2139L465.83 57.682L518.051 87.832L518.003 102.815L465.843 72.7004L465.849 76.1684L517.993 106.273L517.945 121.257L466.815 91.7368C467.074 93.0874 467.374 94.4271 467.739 95.7348L517.943 124.72L516.869 485.521L452.315 448.251L453.466 74.677C453.489 67.0576 445.272 62.2902 438.686 66.0973L69.0768 279.839C68.4414 280.199 67.8689 280.631 67.3534 281.084C62.5363 285.427 63.0844 293.538 69.0203 296.977L437.314 509.773C439.886 511.258 442.699 511.427 445.192 510.649L503.449 544.284C502.19 546.085 500.862 547.825 499.458 549.497L383.047 482.287L383.05 484.021L498.466 550.656C496.984 552.341 495.441 553.955 493.825 555.494L383.052 491.539L383.055 493.273L492.685 556.568C492.543 556.693 492.414 556.838 492.272 556.964C490.69 558.383 489.054 559.737 487.369 561.015L383.065 500.795L383.068 502.529L486.056 561.989C484.089 563.417 482.051 564.746 479.952 565.982L383.061 510.042L383.064 511.776L478.457 566.851C476.177 568.121 473.827 569.271 471.426 570.309L383.074 519.299L383.078 521.033L469.689 571.038C466.999 572.118 464.26 573.042 461.463 573.806L383.088 528.556L383.091 530.29L459.397 574.345C456.105 575.147 452.737 575.72 449.343 576.058L383.092 537.808L383.096 539.542L446.714 576.272C442.18 576.564 437.587 576.441 432.98 575.86L383.097 547.06L383.101 548.794L428.87 575.219C420.747 573.728 412.643 570.804 404.859 566.287L37.0476 352.695C-7.75623 326.678 -11.8906 265.458 24.4614 232.695C28.3357 229.205 32.6699 226.037 37.4551 223.269L406.542 10.0921C427.835 -2.20924 451.368 -2.62911 471.307 5.39548L489.771 16.0555C498.948 23.2594 506.491 32.6143 511.477 43.5988L511.441 43.6011ZM481.686 118.798C487.583 124.385 494.767 128.521 502.557 130.848L481.686 118.798ZM446.917 509.901C447.625 509.514 448.306 509.075 448.907 508.533C449.982 507.572 450.835 506.355 451.415 504.97L507.698 537.465C506.651 539.378 505.532 541.237 504.33 543.038L446.93 509.897L446.917 509.901ZM516.703 505.667C516.572 508.074 516.314 510.442 515.968 512.76L452.229 475.96L452.254 468.457L516.703 505.667ZM515.729 514.354C515.342 516.625 514.855 518.849 514.267 521.027L452.199 485.192L452.224 477.689L515.729 514.354ZM513.855 522.521C513.237 524.67 512.525 526.764 511.734 528.814L452.178 494.429L452.202 486.926L513.863 522.526L513.855 522.521ZM508.413 536.146L451.879 503.506C452.049 502.772 452.157 502.004 452.161 501.197L452.172 496.158L511.157 530.213C510.324 532.237 509.407 534.225 508.405 536.141L508.413 536.146ZM452.264 466.72L452.288 459.217L516.842 496.487L516.825 501.616C516.823 502.399 516.781 503.172 516.757 503.955L452.264 466.72ZM516.847 494.758L452.294 457.488L452.318 449.985L516.872 487.255L516.847 494.758Z" fill="#02AEF0"/>
</svg>
