<svg width="99" height="130" viewBox="0 0 99 130" fill="none" xmlns="http://www.w3.org/2000/svg">
<mask id="path-1-inside-1_1209_14524" fill="white">
<path d="M3.30005 129.038C-7.21996 132.448 -18.74 124.728 -18.76 113.018L-18.9999 16.8882C-19.0199 9.03816 -13.87 2.95815 -7.28998 0.828156C-3.00998 -0.561844 1.87006 -0.28186 6.32006 2.27814L89.9901 50.2582C101.27 56.7282 101.3 72.9182 90.05 79.4182L6.62005 127.568C5.54005 128.188 4.43006 128.688 3.31005 129.048"/>
</mask>
<path d="M-18.76 113.018L1.23999 112.968L1.24001 112.976L1.24002 112.984L-18.76 113.018ZM-18.9999 16.8882L0.999992 16.8372L0.999996 16.8382L-18.9999 16.8882ZM-7.28998 0.828156L-1.11228 19.8501L-1.12139 19.8531L-1.1305 19.856L-7.28998 0.828156ZM6.32006 2.27814L-3.62906 19.6279L-3.64104 19.6211L-3.65302 19.6142L6.32006 2.27814ZM89.9901 50.2582L99.9392 32.9084L99.941 32.9094L89.9901 50.2582ZM90.05 79.4182L100.056 96.7355L100.047 96.7403L90.05 79.4182ZM6.62005 127.568L16.6172 144.89L16.5973 144.902L16.5774 144.913L6.62005 127.568ZM3.30005 129.038L9.46704 148.064C-13.4211 155.483 -38.7158 138.89 -38.7599 113.052L-18.76 113.018L1.24002 112.984C1.23931 112.57 1.12122 112.009 0.827084 111.462C0.554052 110.955 0.206902 110.6 -0.12196 110.367C-0.717905 109.946 -1.72546 109.643 -2.86695 110.013L3.30005 129.038ZM-18.76 113.018L-38.7599 113.068L-38.9999 16.9381L-18.9999 16.8882L0.999996 16.8382L1.23999 112.968L-18.76 113.018ZM-18.9999 16.8882L-38.9999 16.9391C-39.0439 -0.356888 -27.5572 -13.6329 -13.4495 -18.1997L-7.28998 0.828156L-1.1305 19.856C-0.610504 19.6877 -0.11479 19.3638 0.291672 18.8301C0.763746 18.2102 1.00154 17.4425 0.999992 16.8372L-18.9999 16.8882ZM-7.28998 0.828156L-13.4677 -18.1938C-4.10903 -21.2332 6.67229 -20.5926 16.2931 -15.0579L6.32006 2.27814L-3.65302 19.6142C-3.37327 19.7751 -2.93717 19.9358 -2.41182 19.9849C-1.91326 20.0316 -1.46974 19.9662 -1.11228 19.8501L-7.28998 0.828156ZM6.32006 2.27814L16.2692 -15.0716L99.9392 32.9084L89.9901 50.2582L80.0409 67.6079L-3.62906 19.6279L6.32006 2.27814ZM89.9901 50.2582L99.941 32.9094C124.576 47.0399 124.675 82.5111 100.056 96.7355L90.05 79.4182L80.0445 62.1009C77.9254 63.3252 77.9636 66.4164 80.0391 67.6069L89.9901 50.2582ZM90.05 79.4182L100.047 96.7403L16.6172 144.89L6.62005 127.568L-3.37709 110.246L80.0529 62.096L90.05 79.4182ZM6.62005 127.568L16.5774 144.913C14.4027 146.162 12.0121 147.259 9.43024 148.089L3.31005 129.048L-2.81013 110.008C-3.15203 110.117 -3.32258 110.215 -3.3373 110.223L6.62005 127.568Z" fill="#C7B3E1" mask="url(#path-1-inside-1_1209_14524)"/>
</svg>
