<svg width="101" height="112" viewBox="0 0 101 112" fill="none" xmlns="http://www.w3.org/2000/svg">
<path fill-rule="evenodd" clip-rule="evenodd" d="M93.5 43.3315L38.99 11.9115V100.142L93.56 68.4815C103.21 62.8815 103.18 48.9115 93.5 43.3315ZM35.99 10.1816L28.99 6.15153V105.952L35.99 101.892V10.1916V10.1816ZM18.99 0.731544V111.322C18.99 111.322 19.09 111.302 19.13 111.282C20.09 110.972 21.04 110.542 21.97 110.002L25.98 107.672V4.40153L21.7 1.93156C20.81 1.42155 19.9 1.02152 18.98 0.711525L18.99 0.731544ZM10.04 0.701515C9.69001 0.821518 9.34002 0.95153 8.99002 1.09153V110.772C11.16 111.712 13.56 112.122 15.99 111.912V0.0815201C13.95 -0.138481 11.93 0.0915222 10.04 0.711525V0.701515ZM3.06235e-05 14.5516L0.209992 97.4615C0.219992 102.362 2.57003 106.442 6.00003 109.022V2.76157C2.43003 5.33157 -0.00996938 9.52155 3.06235e-05 14.5516Z" fill="#B4E7FB"/>
</svg>
