<svg width="118" height="130" viewBox="0 0 118 130" fill="none" xmlns="http://www.w3.org/2000/svg">
<mask id="path-1-inside-1_1209_9197" fill="white">
<path d="M95.1687 129.038C105.689 132.448 117.209 124.728 117.229 113.018L117.469 16.8882C117.489 9.03816 112.339 2.95815 105.759 0.828156C101.479 -0.561844 96.5987 -0.28186 92.1487 2.27814L8.4787 50.2582C-2.8013 56.7282 -2.8313 72.9182 8.4187 79.4182L91.8487 127.568C92.9287 128.188 94.0387 128.688 95.1587 129.048"/>
</mask>
<path d="M117.229 113.018L97.2288 112.968L97.2287 112.976L97.2287 112.984L117.229 113.018ZM117.469 16.8882L97.4688 16.8372L97.4688 16.8382L117.469 16.8882ZM105.759 0.828156L99.581 19.8501L99.5901 19.8531L99.5992 19.856L105.759 0.828156ZM92.1487 2.27814L102.098 19.6279L102.11 19.6211L102.122 19.6142L92.1487 2.27814ZM8.4787 50.2582L-1.47042 32.9084L-1.47222 32.9094L8.4787 50.2582ZM8.4187 79.4182L-1.58685 96.7355L-1.57845 96.7403L8.4187 79.4182ZM91.8487 127.568L81.8516 144.89L81.8714 144.902L81.8913 144.913L91.8487 127.568ZM95.1687 129.038L89.0017 148.064C111.89 155.483 137.185 138.89 137.229 113.052L117.229 113.018L97.2287 112.984C97.2294 112.57 97.3475 112.009 97.6417 111.462C97.9147 110.955 98.2618 110.6 98.5907 110.367C99.1867 109.946 100.194 109.643 101.336 110.013L95.1687 129.038ZM117.229 113.018L137.229 113.068L137.469 16.9381L117.469 16.8882L97.4688 16.8382L97.2288 112.968L117.229 113.018ZM117.469 16.8882L137.469 16.9391C137.513 -0.356888 126.026 -13.6329 111.918 -18.1997L105.759 0.828156L99.5992 19.856C99.0793 19.6877 98.5835 19.3638 98.1771 18.8301C97.705 18.2102 97.4672 17.4425 97.4688 16.8372L117.469 16.8882ZM105.759 0.828156L111.936 -18.1938C102.578 -21.2332 91.7965 -20.5926 82.1756 -15.0579L92.1487 2.27814L102.122 19.6142C101.842 19.7751 101.406 19.9358 100.881 19.9849C100.382 20.0316 99.9385 19.9662 99.581 19.8501L105.759 0.828156ZM92.1487 2.27814L82.1996 -15.0716L-1.47042 32.9084L8.4787 50.2582L18.4278 67.6079L102.098 19.6279L92.1487 2.27814ZM8.4787 50.2582L-1.47222 32.9094C-26.1077 47.0399 -26.2059 82.5111 -1.58685 96.7355L8.4187 79.4182L18.4243 62.1009C20.5434 63.3252 20.5051 66.4164 18.4296 67.6069L8.4787 50.2582ZM8.4187 79.4182L-1.57845 96.7403L81.8516 144.89L91.8487 127.568L101.846 110.246L18.4158 62.096L8.4187 79.4182ZM91.8487 127.568L81.8913 144.913C84.0661 146.162 86.4566 147.259 89.0385 148.089L95.1587 129.048L101.279 110.008C101.621 110.117 101.791 110.215 101.806 110.223L91.8487 127.568Z" fill="#C7B3E1" mask="url(#path-1-inside-1_1209_9197)"/>
</svg>
