<svg width="519" height="800" viewBox="0 0 519 800" fill="none" xmlns="http://www.w3.org/2000/svg">
<path d="M460.451 69.0215C451.931 66.2581 442.753 72.5228 442.444 81.6914L442.437 82.1299L442.008 251.228C441.995 257.526 446.019 262.498 451.603 264.306L451.609 264.308C455.108 265.442 459.01 265.234 462.726 263.101L462.733 263.096L609.924 178.693L609.925 178.692L610.352 178.438C619.156 172.99 619 160.161 609.997 154.965L463.259 70.2793L463.258 70.2803C462.269 69.7119 461.338 69.307 460.475 69.0283L460.463 69.0254L460.451 69.0215Z" stroke="#B4E7FB" stroke-width="31.7992"/>
<path fill-rule="evenodd" clip-rule="evenodd" d="M197.153 605.385V563.457L199.538 564.841V608.493C202.495 612.086 205.938 615.393 209.873 618.327V570.827L212.258 572.21V620.036C213.474 620.855 214.722 621.642 216.026 622.381L222.593 626.15V578.196L224.977 579.58V627.517L235.312 633.439V585.558L237.697 586.941V634.807L248.032 640.729V593.794C248.859 594.509 249.662 595.249 250.417 596.02V642.105L499.245 784.78V725.522L241.593 577.823C236.338 574.81 236.322 567.257 241.561 564.237L535.631 394.731C536.132 394.437 536.657 394.214 537.174 394.039C542.079 392.45 547.445 396.051 547.453 401.504L547.564 739.649C547.564 742.01 546.562 744.013 545.036 745.42V798.898C546.777 798.747 548.502 798.525 550.211 798.223V691.362L551.404 692.053V798C553.153 797.65 554.878 797.229 556.579 796.728V695.042L557.772 695.734V796.37C557.915 796.323 558.066 796.291 558.209 796.243C559.815 795.719 561.397 795.13 562.947 794.478V698.731L564.139 699.423V793.962C565.904 793.175 567.629 792.3 569.315 791.346V702.404L570.507 703.096V790.663C572.288 789.597 574.013 788.437 575.683 787.196V706.093L576.875 706.784V786.29C578.688 784.867 580.413 783.349 582.05 781.727V709.781L583.243 710.473V780.519C585.103 778.571 586.836 776.48 588.418 774.278V713.462L589.611 714.154V772.553C591.614 769.548 593.355 766.336 594.786 762.934V717.143L595.978 717.834V759.849C598.18 753.664 599.389 746.923 599.373 739.768L598.522 401.639C598.419 360.452 557.915 333.271 520.908 345.275C516.965 346.555 513.062 348.28 509.254 350.475L215.78 519.845C198.847 529.615 189.203 545.65 186.803 562.567V579.516C188.114 588.698 191.557 597.61 197.137 605.408L197.153 605.385ZM260.752 614.789C262.254 621.07 262.246 627.66 260.752 633.948V614.789ZM543.836 746.311C543.287 746.645 542.715 746.939 542.103 747.137C541.013 747.495 539.837 747.598 538.652 747.447V799.113C540.385 799.153 542.111 799.121 543.828 799.01V746.319L543.836 746.311ZM513.181 792.674C514.89 793.54 516.624 794.303 518.357 794.987V736.477L513.181 733.511V792.674ZM519.549 795.456C521.266 796.092 522.991 796.641 524.724 797.102V740.126L519.549 737.16V795.456ZM525.917 797.412C527.642 797.841 529.367 798.183 531.092 798.453V743.783L525.917 740.817V797.42V797.412ZM537.46 799.081V747.185C536.888 747.01 536.315 746.78 535.759 746.462L532.285 744.466V798.612C534.01 798.843 535.743 799.002 537.46 799.073V799.081ZM511.981 732.828L506.806 729.862V789.12L510.343 791.147C510.884 791.457 511.432 791.736 511.981 792.03V732.828ZM505.613 788.437V729.179L500.438 726.214V785.471L505.613 788.437Z" fill="#02AEF0"/>
<path fill-rule="evenodd" clip-rule="evenodd" d="M481.757 294.866C481.184 292.306 480.389 289.85 479.372 287.528V553.64C480.334 551.644 481.129 549.545 481.757 547.359V294.866ZM428.493 265.499V574.055C429.288 574.357 430.083 574.627 430.878 574.874V264.736C430.481 264.855 430.075 264.959 429.678 265.086C429.28 265.213 428.891 265.364 428.493 265.507V265.499ZM441.213 263.138V576.638C442.008 576.67 442.803 576.67 443.598 576.646V263.162C442.803 263.13 442.008 263.122 441.213 263.138ZM469.037 273.402C468.266 272.726 467.471 272.082 466.652 271.47V568.816C467.471 568.22 468.266 567.599 469.037 566.948V273.409V273.402ZM453.933 575.04C454.346 574.921 454.759 574.802 455.173 574.667C455.554 574.54 455.936 574.404 456.318 574.269V265.762C455.53 265.468 454.735 265.189 453.933 264.943V575.04ZM224.979 457.511L227.364 458.886V381.248L224.979 382.632V457.511ZM237.698 464.832L240.083 466.208V373.879L237.698 375.262V464.832ZM250.418 472.154L252.803 473.53V366.509L250.418 367.893V472.154ZM263.138 479.476L265.523 480.851V359.14L263.138 360.523V479.476ZM275.857 486.798L278.242 488.173V351.771L275.857 353.154V486.798ZM288.577 494.12L290.962 495.495V344.401L288.577 345.784V494.12ZM301.297 501.441L303.682 502.817V337.032L301.297 338.415V501.441ZM314.016 508.763L316.401 510.138V329.662L314.016 331.045V508.763ZM326.736 516.085L329.121 517.46V322.293L326.736 323.676V516.093V516.085ZM339.456 523.407L341.841 524.782V314.923L339.456 316.307V523.415V523.407ZM352.175 530.728L354.56 532.104V307.554L352.175 308.937V530.736V530.728ZM364.895 538.05L367.28 539.425V300.184L364.895 301.568V538.058V538.05ZM377.615 545.372L380 546.747V292.815L377.615 294.198V545.38V545.372ZM390.334 552.694L392.719 554.069V285.445L390.334 286.829V552.702V552.694ZM418.159 270.699L415.774 272.082V567.337L418.159 568.712V270.707V270.699ZM403.054 560.015L405.439 561.391V278.076L403.054 279.459V560.023V560.015ZM214.644 389.476C213.817 390.192 213.014 390.931 212.259 391.702V448.44C213.014 449.211 213.817 449.95 214.644 450.666V389.484V389.476ZM201.924 410.464C200.422 416.744 200.43 423.335 201.924 429.623V410.464Z" fill="#B4E7FB"/>
<path d="M224.207 639.513C228.691 638.05 233.604 641.365 233.611 646.381L233.715 687.577C233.723 690.94 231.529 693.548 228.722 694.462C226.902 695.058 224.819 694.939 222.919 693.842L187.248 673.284C182.439 670.509 182.423 663.569 187.224 660.787L222.792 640.149C223.253 639.879 223.73 639.672 224.207 639.513Z" fill="#C7B3E1"/>
<path d="M283.775 639.513C279.291 638.05 274.378 641.365 274.37 646.381L274.267 687.577C274.259 690.94 276.453 693.548 279.259 694.462C281.08 695.058 283.163 694.939 285.063 693.842L320.733 673.284C325.543 670.509 325.559 663.569 320.757 660.787L285.19 640.149C284.729 639.879 284.252 639.672 283.775 639.513Z" fill="#F5F2FA"/>
<path d="M212.887 0.459132C206.964 -1.47267 200.485 2.90766 200.469 9.54574L200.334 64.0733C200.326 68.5252 203.22 71.9755 206.924 73.1838C209.333 73.9709 212.076 73.8118 214.58 72.365L261.667 45.1529C268.011 41.488 268.034 32.2981 261.706 28.6173L214.755 1.30181C214.143 0.944067 213.523 0.665826 212.887 0.459132Z" fill="#FDF3BA"/>
<path d="M131.972 372.122C120.723 368.457 108.409 376.749 108.377 389.317L108.115 492.498C108.091 500.924 113.6 507.443 120.636 509.733C125.207 511.219 130.43 510.917 135.184 508.183L224.643 456.684C236.703 449.744 236.743 432.357 224.715 425.386L135.518 373.704C134.357 373.036 133.173 372.504 131.972 372.114" fill="#F7D418"/>
<path fill-rule="evenodd" clip-rule="evenodd" d="M5.78662 630.922L49.1209 655.901V585.76L5.73892 610.929C-1.93262 615.38 -1.90878 626.486 5.78662 630.922ZM51.5059 657.276L57.0707 660.48V581.141L51.5059 584.368V657.268V657.276ZM65.0205 664.788V576.872C65.0205 576.872 64.941 576.888 64.9092 576.903C64.146 577.15 63.3908 577.492 62.6515 577.921L59.4636 579.773V661.871L62.8661 663.834C63.5736 664.24 64.2971 664.558 65.0285 664.804L65.0205 664.788ZM72.1356 664.812C72.4138 664.717 72.6921 664.614 72.9703 664.502V577.309C71.2452 576.562 69.3373 576.236 67.4055 576.403V665.305C69.0272 665.48 70.6331 665.297 72.1356 664.804V664.812ZM80.1172 653.802L79.9502 587.89C79.9423 583.995 78.0741 580.751 75.3473 578.7V663.175C78.1854 661.131 80.1251 657.801 80.1172 653.802Z" fill="#B4E7FB"/>
</svg>
