<svg width="180" height="273" viewBox="0 0 180 273" fill="none" xmlns="http://www.w3.org/2000/svg">
<path opacity="0.5" fill-rule="evenodd" clip-rule="evenodd" d="M145.063 19.4682C144.718 17.9299 144.239 16.4537 143.626 15.0588L143.626 174.972C144.205 173.773 144.684 172.512 145.063 171.198L145.063 19.4682ZM112.961 1.82108L112.961 187.24C113.441 187.421 113.92 187.584 114.399 187.732L114.399 1.36247C114.159 1.43413 113.915 1.49623 113.675 1.57267C113.436 1.64911 113.201 1.73987 112.961 1.82586L112.961 1.82108ZM120.627 0.40224L120.627 188.793C121.107 188.812 121.586 188.812 122.065 188.797L122.065 0.416571C121.586 0.397463 121.107 0.392686 120.627 0.40224ZM137.397 6.56965C136.932 6.16359 136.453 5.77663 135.96 5.40879L135.96 184.092C136.453 183.733 136.932 183.361 137.397 182.969L137.397 6.57443L137.397 6.56965ZM128.294 187.832C128.543 187.761 128.792 187.689 129.041 187.608C129.271 187.531 129.501 187.45 129.731 187.369L129.731 1.97872C129.257 1.80196 128.777 1.63476 128.293 1.48667L128.294 187.832ZM-9.69545 117.206L-8.25808 118.032L-8.25808 71.3776L-9.69546 72.2089L-9.69545 117.206ZM-2.02941 121.606L-0.59203 122.432L-0.592035 66.9491L-2.02941 67.7804L-2.02941 121.606ZM5.63665 126.005L7.07403 126.832L7.07403 62.5206L5.63665 63.3519L5.63665 126.005ZM13.3027 130.405L14.7401 131.232L14.7401 58.0922L13.3027 58.9234L13.3027 130.405ZM20.9688 134.805L22.4061 135.631L22.4061 53.6636L20.9687 54.4949L20.9688 134.805ZM28.6348 139.205L30.0722 140.031L30.0722 49.2352L28.6348 50.0664L28.6348 139.205ZM36.3009 143.605L37.7382 144.431L37.7382 44.8067L36.3009 45.6379L36.3009 143.605ZM43.9669 148.004L45.4043 148.831L45.4043 40.3782L43.9669 41.2094L43.9669 148.004ZM51.633 152.404L53.0704 153.231L53.0703 35.9497L51.633 36.7809L51.633 152.409L51.633 152.404ZM59.299 156.804L60.7364 157.631L60.7364 31.5212L59.299 32.3524L59.299 156.809L59.299 156.804ZM66.9651 161.204L68.4025 162.03L68.4025 27.0927L66.9651 27.9239L66.9651 161.209L66.9651 161.204ZM74.6311 165.604L76.0685 166.43L76.0685 22.6642L74.6311 23.4954L74.6311 165.609L74.6311 165.604ZM82.2972 170.004L83.7346 170.83L83.7346 18.2357L82.2972 19.0669L82.2972 170.008L82.2972 170.004ZM89.9632 174.403L91.4006 175.23L91.4006 13.8072L89.9632 14.6384L89.9632 174.408L89.9632 174.403ZM106.733 4.9454L105.295 5.77663L105.295 183.203L106.733 184.03L106.733 4.95016L106.733 4.9454ZM97.6293 178.803L99.0667 179.63L99.0667 9.37867L97.6293 10.2099L97.6293 178.808L97.6293 178.803ZM-15.9241 76.3221C-16.4224 76.752 -16.9064 77.1963 -17.3615 77.6597L-17.3615 111.755C-16.9063 112.218 -16.4224 112.663 -15.9241 113.092L-15.9241 76.3268L-15.9241 76.3221ZM-23.5902 88.934C-24.4957 92.708 -24.4909 96.6683 -23.5902 100.447L-23.5902 88.934Z" fill="#E8EAF4" stroke="#E8EAF4" stroke-width="0.794979"/>
<path d="M77.4983 134.032C66.2494 130.367 53.9351 138.658 53.9033 151.227L53.641 254.407C53.6171 262.834 59.1263 269.353 66.1619 271.642C70.733 273.129 75.956 272.827 80.71 270.092L170.169 218.594C182.229 211.653 182.269 194.267 170.241 187.295L81.0439 135.614C79.8833 134.946 78.6987 134.413 77.4983 134.024" fill="#F7D418"/>
<mask id="mask0_3001_764" style="mask-type:alpha" maskUnits="userSpaceOnUse" x="53" y="133" width="127" height="140">
<path d="M77.4983 134.032C66.2494 130.367 53.9351 138.658 53.9033 151.227L53.641 254.407C53.6171 262.834 59.1263 269.353 66.1619 271.642C70.733 273.129 75.956 272.827 80.71 270.092L170.169 218.594C182.229 211.653 182.269 194.267 170.241 187.295L81.0439 135.614C79.8833 134.946 78.6987 134.413 77.4983 134.024" fill="#F7D418"/>
</mask>
<g mask="url(#mask0_3001_764)">
<path fill-rule="evenodd" clip-rule="evenodd" d="M145.063 19.4682C144.718 17.9299 144.239 16.4537 143.626 15.0588L143.626 174.972C144.205 173.773 144.684 172.512 145.063 171.198L145.063 19.4682ZM112.961 1.82108L112.961 187.24C113.441 187.421 113.92 187.584 114.399 187.732L114.399 1.36247C114.159 1.43413 113.915 1.49623 113.675 1.57267C113.436 1.64911 113.201 1.73987 112.961 1.82586L112.961 1.82108ZM120.627 0.40224L120.627 188.793C121.107 188.812 121.586 188.812 122.065 188.797L122.065 0.416571C121.586 0.397463 121.107 0.392686 120.627 0.40224ZM137.397 6.56965C136.932 6.16359 136.453 5.77663 135.96 5.40879L135.96 184.092C136.453 183.733 136.932 183.361 137.397 182.969L137.397 6.57443L137.397 6.56965ZM128.294 187.832C128.543 187.761 128.792 187.689 129.041 187.608C129.271 187.531 129.501 187.45 129.731 187.369L129.731 1.97872C129.257 1.80196 128.777 1.63476 128.293 1.48667L128.294 187.832ZM-9.69545 117.206L-8.25808 118.032L-8.25808 71.3776L-9.69546 72.2089L-9.69545 117.206ZM-2.02941 121.606L-0.59203 122.432L-0.592035 66.9491L-2.02941 67.7804L-2.02941 121.606ZM5.63665 126.005L7.07403 126.832L7.07403 62.5206L5.63665 63.3519L5.63665 126.005ZM13.3027 130.405L14.7401 131.232L14.7401 58.0922L13.3027 58.9234L13.3027 130.405ZM20.9688 134.805L22.4061 135.631L22.4061 53.6636L20.9687 54.4949L20.9688 134.805ZM28.6348 139.205L30.0722 140.031L30.0722 49.2352L28.6348 50.0664L28.6348 139.205ZM36.3009 143.605L37.7382 144.431L37.7382 44.8067L36.3009 45.6379L36.3009 143.605ZM43.9669 148.004L45.4043 148.831L45.4043 40.3782L43.9669 41.2094L43.9669 148.004ZM51.633 152.404L53.0704 153.231L53.0703 35.9497L51.633 36.7809L51.633 152.409L51.633 152.404ZM59.299 156.804L60.7364 157.631L60.7364 31.5212L59.299 32.3524L59.299 156.809L59.299 156.804ZM66.9651 161.204L68.4025 162.03L68.4025 27.0927L66.9651 27.9239L66.9651 161.209L66.9651 161.204ZM74.6311 165.604L76.0685 166.43L76.0685 22.6642L74.6311 23.4954L74.6311 165.609L74.6311 165.604ZM82.2972 170.004L83.7346 170.83L83.7346 18.2357L82.2972 19.0669L82.2972 170.008L82.2972 170.004ZM89.9632 174.403L91.4006 175.23L91.4006 13.8072L89.9632 14.6384L89.9632 174.408L89.9632 174.403ZM106.733 4.9454L105.295 5.77663L105.295 183.203L106.733 184.03L106.733 4.95016L106.733 4.9454ZM97.6293 178.803L99.0667 179.63L99.0667 9.37867L97.6293 10.2099L97.6293 178.808L97.6293 178.803ZM-15.9241 76.3221C-16.4224 76.752 -16.9064 77.1963 -17.3615 77.6597L-17.3615 111.755C-16.9063 112.218 -16.4224 112.663 -15.9241 113.092L-15.9241 76.3268L-15.9241 76.3221ZM-23.5902 88.934C-24.4957 92.708 -24.4909 96.6683 -23.5902 100.447L-23.5902 88.934Z" fill="white" stroke="white" stroke-width="0.794979"/>
</g>
</svg>
