<svg width="1920" height="951" viewBox="0 0 1920 951" fill="none" xmlns="http://www.w3.org/2000/svg">
<rect width="2757" height="1019" transform="matrix(1 0 0 -1 -329 951)" fill="white"/>
<path fill-rule="evenodd" clip-rule="evenodd" d="M2332.4 224.667L2286.73 198.297L2286.73 201.765L2334.29 229.22C2336.34 234.702 2337.78 240.531 2338.5 246.663L2286.76 216.788L2286.76 220.256L2338.86 250.336C2338.99 252.176 2339.06 254.031 2339.05 255.916L2339.02 265.44L2286.78 235.28L2286.79 238.748L2339.01 268.898L2338.96 283.881L2286.8 253.766L2286.81 257.234L2338.95 287.339L2338.9 302.323L2287.77 272.803C2288.03 274.153 2288.33 275.493 2288.7 276.801L2338.9 305.786L2337.83 666.587L2273.27 629.317L2274.43 255.743C2274.45 248.123 2266.23 243.356 2259.65 247.163L1890.04 460.905C1889.4 461.265 1888.83 461.697 1888.31 462.15C1883.5 466.493 1884.04 474.604 1889.98 478.042L2258.27 690.839C2260.85 692.324 2263.66 692.492 2266.15 691.715L2324.41 725.35C2323.15 727.151 2321.82 728.891 2320.42 730.563L2204.01 663.352L2204.01 665.087L2319.43 731.722C2317.94 733.407 2316.4 735.021 2314.78 736.559L2204.01 672.604L2204.01 674.338L2313.65 737.633C2313.5 737.759 2313.37 737.904 2313.23 738.03C2311.65 739.449 2310.01 740.802 2308.33 742.081L2204.02 681.861L2204.03 683.595L2307.02 743.055C2305.05 744.483 2303.01 745.812 2300.91 747.048L2204.02 691.108L2204.02 692.842L2299.42 747.917C2297.14 749.187 2294.79 750.336 2292.39 751.375L2204.03 700.365L2204.04 702.099L2290.65 752.104C2287.96 753.184 2285.22 754.108 2282.42 754.872L2204.05 709.622L2204.05 711.356L2280.36 755.411C2277.06 756.212 2273.7 756.785 2270.3 757.124L2204.05 718.874L2204.06 720.608L2267.67 757.338C2263.14 757.63 2258.55 757.507 2253.94 756.926L2204.06 728.126L2204.06 729.86L2249.83 756.285C2241.71 754.793 2233.6 751.87 2225.82 747.352L1858.01 533.761C1813.2 507.743 1809.07 446.524 1845.42 413.761C1849.3 410.27 1853.63 407.103 1858.42 404.335L2227.5 191.158C2248.8 178.857 2272.33 178.437 2292.27 186.461L2310.73 197.121C2319.91 204.325 2327.45 213.68 2332.44 224.665L2332.4 224.667ZM2302.65 299.864C2308.54 305.451 2315.73 309.587 2323.52 311.914L2302.65 299.864ZM2267.88 690.967C2268.59 690.579 2269.27 690.141 2269.87 689.599C2270.94 688.638 2271.79 687.421 2272.37 686.035L2328.66 718.531C2327.61 720.443 2326.49 722.303 2325.29 724.103L2267.89 690.963L2267.88 690.967ZM2337.66 686.733C2337.53 689.14 2337.27 691.508 2336.93 693.826L2273.19 657.026L2273.21 649.523L2337.66 686.733ZM2336.69 695.42C2336.3 697.691 2335.81 699.915 2335.23 702.093L2273.16 666.258L2273.18 658.755L2336.69 695.42ZM2334.81 703.587C2334.2 705.736 2333.48 707.83 2332.69 709.88L2273.14 675.495L2273.16 667.992L2334.82 703.592L2334.81 703.587ZM2329.37 717.211L2272.84 684.571C2273.01 683.838 2273.12 683.069 2273.12 682.263L2273.13 677.224L2332.12 711.279C2331.28 713.303 2330.37 715.291 2329.36 717.206L2329.37 717.211ZM2273.22 647.785L2273.25 640.283L2337.8 677.553L2337.79 682.681C2337.78 683.465 2337.74 684.238 2337.72 685.02L2273.22 647.785ZM2337.81 675.823L2273.25 638.553L2273.28 631.051L2337.83 668.321L2337.81 675.823Z" fill="#02AEF0"/>
<mask id="path-2-inside-1_1209_9452" fill="white">
<path d="M3.30005 701.038C-7.21996 704.448 -18.74 696.728 -18.76 685.018L-18.9999 588.888C-19.0199 581.038 -13.87 574.958 -7.28998 572.828C-3.00998 571.438 1.87006 571.718 6.32006 574.278L89.9901 622.258C101.27 628.728 101.3 644.918 90.05 651.418L6.62005 699.568C5.54005 700.188 4.43006 700.688 3.31005 701.048"/>
</mask>
<path d="M-18.76 685.018L1.23999 684.968L1.24001 684.976L1.24002 684.984L-18.76 685.018ZM-18.9999 588.888L0.999992 588.837L0.999996 588.838L-18.9999 588.888ZM-7.28998 572.828L-1.11228 591.85L-1.12139 591.853L-1.1305 591.856L-7.28998 572.828ZM6.32006 574.278L-3.62906 591.628L-3.64104 591.621L-3.65302 591.614L6.32006 574.278ZM89.9901 622.258L99.9392 604.908L99.941 604.91L89.9901 622.258ZM90.05 651.418L100.056 668.736L100.047 668.74L90.05 651.418ZM6.62005 699.568L16.6172 716.89L16.5973 716.902L16.5774 716.913L6.62005 699.568ZM3.30005 701.038L9.46704 720.064C-13.4211 727.483 -38.7158 710.89 -38.7599 685.052L-18.76 685.018L1.24002 684.984C1.23931 684.57 1.12122 684.009 0.827084 683.462C0.554052 682.955 0.206902 682.6 -0.12196 682.367C-0.717905 681.946 -1.72546 681.643 -2.86695 682.013L3.30005 701.038ZM-18.76 685.018L-38.7599 685.068L-38.9999 588.938L-18.9999 588.888L0.999996 588.838L1.23999 684.968L-18.76 685.018ZM-18.9999 588.888L-38.9999 588.939C-39.0439 571.643 -27.5572 558.367 -13.4495 553.8L-7.28998 572.828L-1.1305 591.856C-0.610504 591.688 -0.11479 591.364 0.291672 590.83C0.763746 590.21 1.00154 589.443 0.999992 588.837L-18.9999 588.888ZM-7.28998 572.828L-13.4677 553.806C-4.10903 550.767 6.67229 551.408 16.2931 556.942L6.32006 574.278L-3.65302 591.614C-3.37327 591.775 -2.93717 591.936 -2.41182 591.985C-1.91326 592.032 -1.46974 591.966 -1.11228 591.85L-7.28998 572.828ZM6.32006 574.278L16.2692 556.928L99.9392 604.908L89.9901 622.258L80.0409 639.608L-3.62906 591.628L6.32006 574.278ZM89.9901 622.258L99.941 604.91C124.576 619.04 124.675 654.511 100.056 668.736L90.05 651.418L80.0445 634.101C77.9254 635.325 77.9636 638.417 80.0391 639.607L89.9901 622.258ZM90.05 651.418L100.047 668.74L16.6172 716.89L6.62005 699.568L-3.37709 682.246L80.0529 634.096L90.05 651.418ZM6.62005 699.568L16.5774 716.913C14.4027 718.162 12.0121 719.259 9.43024 720.089L3.31005 701.048L-2.81013 682.008C-3.15203 682.118 -3.32258 682.215 -3.3373 682.223L6.62005 699.568Z" fill="#C7B3E1" mask="url(#path-2-inside-1_1209_9452)"/>
<path d="M1829.99 112.56C1835.63 114.4 1841.81 110.23 1841.82 103.92L1841.95 52.1C1841.96 47.87 1839.2 44.59 1835.67 43.44C1833.38 42.69 1830.76 42.84 1828.37 44.22L1783.5 70.0801C1777.45 73.5701 1777.43 82.3 1783.47 85.8L1828.21 111.76C1828.79 112.1 1829.39 112.36 1829.99 112.56Z" fill="#C7B3E1"/>
<path d="M1884.92 112.56C1879.28 114.4 1873.1 110.23 1873.09 103.92L1872.96 52.1C1872.95 47.87 1875.71 44.59 1879.24 43.44C1881.53 42.69 1884.15 42.84 1886.54 44.22L1931.41 70.0801C1937.46 73.5701 1937.48 82.3 1931.44 85.8L1886.7 111.76C1886.12 112.1 1885.52 112.36 1884.92 112.56Z" fill="#F5F2FA"/>
<path d="M1865.75 936.422C1858.3 938.852 1850.15 933.342 1850.13 924.992L1849.96 856.402C1849.95 850.802 1853.59 846.462 1858.25 844.942C1861.28 843.952 1864.73 844.152 1867.88 845.972L1927.11 880.202C1935.09 884.812 1935.12 896.372 1927.16 901.002L1868.1 935.362C1867.33 935.812 1866.55 936.162 1865.75 936.422Z" fill="#FDF3BA"/>
<path d="M-67.9893 199.213C-82.1393 203.823 -97.6293 193.393 -97.6693 177.583L-97.9993 47.7931C-98.0293 37.1931 -91.0993 28.9931 -82.2493 26.1131C-76.4993 24.2431 -69.9293 24.6231 -63.9493 28.0631L48.5807 92.8431C63.7507 101.573 63.8007 123.443 48.6707 132.213L-63.5293 197.223C-64.9893 198.063 -66.4793 198.733 -67.9893 199.223" fill="#F7D418"/>
<path fill-rule="evenodd" clip-rule="evenodd" d="M1664.27 176.332L1718.78 144.912V233.142L1664.21 201.482C1654.56 195.882 1654.59 181.912 1664.27 176.332ZM1721.78 143.182L1728.78 139.152V238.952L1721.78 234.892V143.192V143.182ZM1738.78 133.732V244.322C1738.78 244.322 1738.68 244.302 1738.64 244.282C1737.68 243.972 1736.73 243.542 1735.8 243.002L1731.79 240.672V137.402L1736.07 134.932C1736.96 134.422 1737.87 134.022 1738.79 133.712L1738.78 133.732ZM1747.73 133.702C1748.08 133.822 1748.43 133.952 1748.78 134.092V243.772C1746.61 244.712 1744.21 245.122 1741.78 244.912V133.082C1743.82 132.862 1745.84 133.092 1747.73 133.712V133.702ZM1757.77 147.552L1757.56 230.462C1757.55 235.362 1755.2 239.442 1751.77 242.022V135.762C1755.34 138.332 1757.78 142.522 1757.77 147.552Z" fill="#B4E7FB"/>
<path fill-rule="evenodd" clip-rule="evenodd" d="M35.6392 371.623C34.681 370.741 33.8225 369.79 33.0774 368.777L147.445 434.807C146.349 434.726 145.25 434.547 144.154 434.274L35.6392 371.623ZM36.2345 341.445L168.844 418.007C168.776 418.423 168.695 418.832 168.604 419.235L35.3147 342.28C35.4646 342.139 35.6096 341.99 35.7629 341.851C35.9162 341.712 36.0778 341.582 36.2379 341.446L36.2345 341.445ZM32.0636 346.325L166.798 424.114C166.614 424.464 166.417 424.805 166.21 425.141L31.4821 347.356C31.6657 347.007 31.8595 346.663 32.0636 346.325ZM29.5704 360.83C29.4713 360.331 29.3919 359.83 29.332 359.326L157.124 433.106C156.664 433.31 156.201 433.498 155.729 433.668L29.5738 360.832L29.5704 360.83ZM162.955 429.184C162.801 429.332 162.648 429.48 162.487 429.625C162.338 429.757 162.185 429.888 162.032 430.018L29.4432 353.468C29.512 353.057 29.5897 352.646 29.683 352.24L162.955 429.184ZM169.254 301.623L169.254 302.989L135.887 283.725L137.073 283.043L169.254 301.623ZM169.245 308.906L169.244 310.272L129.564 287.363L130.75 286.681L169.245 308.906ZM169.235 316.19L169.235 317.556L123.24 291.001L124.427 290.319L169.235 316.19ZM169.226 323.473L169.225 324.839L116.917 294.639L118.103 293.957L169.226 323.473ZM169.217 330.756L169.216 332.123L110.594 298.277L111.78 297.595L169.217 330.756ZM169.207 338.04L169.207 339.406L104.27 301.915L105.456 301.233L169.207 338.04ZM169.198 345.323L169.197 346.689L97.9469 305.553L99.1331 304.871L169.198 345.323ZM169.188 352.606L169.188 353.973L91.6235 309.191L92.8098 308.509L169.188 352.606ZM169.179 359.89L169.178 361.256L85.3002 312.829L86.4864 312.147L169.182 359.892L169.179 359.89ZM169.169 367.173L169.169 368.539L78.9768 316.467L80.1631 315.785L169.173 367.175L169.169 367.173ZM169.16 374.456L169.159 375.823L72.6535 320.105L73.8397 319.423L169.163 374.458L169.16 374.456ZM169.151 381.74L169.15 383.106L66.3301 323.743L67.5164 323.061L169.154 381.742L169.151 381.74ZM169.141 389.023L169.14 390.389L60.0068 327.381L61.193 326.699L169.145 389.025L169.141 389.023ZM169.132 396.306L169.131 397.673L53.6834 331.019L54.8697 330.337L169.135 396.308L169.132 396.306ZM41.0333 338.293L42.2196 337.611L169.113 410.873L169.112 412.239L41.0367 338.295L41.0333 338.293ZM169.122 403.59L169.122 404.956L47.3601 334.657L48.5463 333.975L169.126 403.592L169.122 403.59ZM142.579 280.3C143.092 280.122 143.609 279.96 144.128 279.827L168.512 293.906C168.656 294.422 168.775 294.95 168.877 295.483L142.583 280.302L142.579 280.3ZM154.755 280.041C157.827 280.954 160.658 282.592 162.989 284.795L154.755 280.041Z" fill="#B4E7FB"/>
</svg>
