<svg width="140" height="84" viewBox="0 0 140 84" fill="none" xmlns="http://www.w3.org/2000/svg">
<path d="M2.12891 67.2076V57.2549H3.34086V61.6987H8.62936V57.2549H9.84131V67.2076H8.62936V62.7637H3.30413V67.2076H2.12891Z" fill="#386794"/>
<path d="M12.0088 58.5034C11.7884 58.5034 11.6048 58.43 11.4211 58.2831C11.2742 58.1362 11.1641 57.9525 11.1641 57.7322C11.1641 57.5118 11.2375 57.3282 11.4211 57.1813C11.568 57.0344 11.7884 56.9609 12.0088 56.9609C12.2291 56.9609 12.4127 57.0344 12.5964 57.1813C12.7433 57.3282 12.8534 57.5118 12.8534 57.7322C12.8534 57.9525 12.78 58.1362 12.5964 58.2831C12.4127 58.43 12.2291 58.5034 12.0088 58.5034ZM11.4211 67.2074V59.7521H12.5596V67.2074H11.4211Z" fill="#386794"/>
<path d="M15.1678 59.7148V67.1702H14.0293V59.7148H15.1678ZM18.1059 65.6277L20.7134 59.7148H21.7784L18.5466 67.1702H17.6284L14.47 59.7148H15.5351L18.1059 65.6277ZM21.0439 67.2069V59.7516H22.1824V67.2069H21.0439Z" fill="#386794"/>
<path d="M26.7721 67.354C26.0376 67.354 25.45 67.2071 24.8991 66.8766C24.385 66.546 23.981 66.1053 23.6872 65.5177C23.3934 64.9301 23.2832 64.269 23.2832 63.4978C23.2832 62.7266 23.4301 62.0655 23.6872 61.4779C23.981 60.8903 24.3482 60.4496 24.8624 60.119C25.3766 59.7885 25.9642 59.6416 26.6252 59.6416C27.0292 59.6416 27.3965 59.7151 27.7637 59.8252C28.131 59.9721 28.4983 60.1558 28.7921 60.4496C29.0859 60.7434 29.343 61.1106 29.5266 61.5881C29.7102 62.0655 29.8204 62.6531 29.8204 63.3509V63.8283H24.0544V62.8367H29.196L28.6819 63.204C28.6819 62.6898 28.6084 62.2491 28.4615 61.8819C28.3146 61.4779 28.0575 61.1841 27.7637 60.9637C27.4699 60.7434 27.066 60.6332 26.6252 60.6332C26.1845 60.6332 25.7806 60.7434 25.45 60.9637C25.1195 61.1841 24.8624 61.4779 24.7155 61.8451C24.5319 62.2124 24.4584 62.5797 24.4584 63.0204V63.6814C24.4584 64.2323 24.5686 64.7098 24.7522 65.1137C24.9359 65.5177 25.2297 65.8115 25.5602 65.9952C25.9275 66.2155 26.3314 66.289 26.7721 66.289C27.066 66.289 27.3598 66.2522 27.5801 66.1421C27.8372 66.0686 28.0208 65.9217 28.2045 65.7381C28.3881 65.5544 28.535 65.3341 28.6084 65.077L29.7102 65.4075C29.6 65.7748 29.4164 66.1053 29.1226 66.3991C28.8288 66.6929 28.4983 66.9133 28.0943 67.0602C27.727 67.2806 27.2496 67.354 26.7721 67.354Z" fill="#386794"/>
<path d="M36.798 59.7148V67.1702H30.9219V59.7148H32.0604V66.1051H35.6228V59.7148H36.798ZM37.8263 66.1051V69.5573H36.6878V66.1051H37.8263Z" fill="#386794"/>
<path d="M39.7732 62.4329H41.9033C42.7847 62.4329 43.4458 62.6533 43.9232 63.094C44.4007 63.5347 44.621 64.0856 44.621 64.7834C44.621 65.2241 44.5108 65.6281 44.3272 65.9953C44.1069 66.3626 43.8131 66.6564 43.4091 66.8768C43.0051 67.0971 42.5277 67.2073 41.94 67.2073H38.8184V59.752H39.9569V66.1422H41.94C42.3808 66.1422 42.748 66.0321 43.0418 65.775C43.3356 65.5546 43.4825 65.2241 43.4825 64.8568C43.4825 64.4529 43.3356 64.1223 43.0418 63.902C42.748 63.6449 42.3808 63.5347 41.94 63.5347H39.81L39.7732 62.4329Z" fill="#386794"/>
<path d="M45.6855 67.2073V59.752H46.824V62.9838H47.5953L50.2763 59.752H51.7453L48.7338 63.3511L51.782 67.2073H50.313L47.8524 64.0489H46.824V67.2073H45.6855Z" fill="#386794"/>
<path d="M55.0878 67.354C54.4267 67.354 53.8391 67.2071 53.3249 66.8766C52.8108 66.546 52.4068 66.1053 52.1497 65.5177C51.8559 64.9301 51.709 64.269 51.709 63.4978C51.709 62.7266 51.8559 62.0288 52.1497 61.4779C52.4435 60.8903 52.8108 60.4496 53.3249 60.119C53.8391 59.7885 54.4267 59.6416 55.0878 59.6416C55.7488 59.6416 56.3732 59.7885 56.8506 60.119C57.328 60.4496 57.7687 60.8903 58.0258 61.4779C58.3196 62.0655 58.4665 62.7266 58.4665 63.4978C58.4665 64.269 58.3196 64.9301 58.0258 65.5177C57.732 66.1053 57.328 66.546 56.8506 66.8766C56.3732 67.2071 55.7855 67.354 55.0878 67.354ZM55.0878 66.3257C55.6019 66.3257 56.0426 66.1788 56.3732 65.9217C56.7037 65.6646 56.9608 65.2974 57.1077 64.8934C57.2546 64.4527 57.3647 64.012 57.3647 63.4978C57.3647 62.9836 57.2913 62.5429 57.1077 62.1022C56.9608 61.6615 56.7037 61.331 56.3732 61.0739C56.0426 60.8168 55.6386 60.6699 55.0878 60.6699C54.5736 60.6699 54.1696 60.8168 53.8391 61.0739C53.5085 61.331 53.2515 61.6982 53.1046 62.1022C52.9577 62.5429 52.8475 62.9836 52.8475 63.4978C52.8475 63.9752 52.9209 64.4527 53.1046 64.8934C53.2515 65.3341 53.5085 65.6646 53.8391 65.9217C54.1696 66.1788 54.5736 66.3257 55.0878 66.3257Z" fill="#386794"/>
<path d="M63.8649 62.3965V63.4615H59.5312V62.3965H63.8649Z" fill="#386794"/>
<path d="M65.9588 69.9623C65.7752 69.9623 65.5916 69.9623 65.4447 69.9256C65.2978 69.8888 65.1876 69.8521 65.1142 69.8154L65.408 68.8238L65.5181 68.8605C65.8854 68.934 66.2159 68.934 66.473 68.7871C66.7301 68.6769 66.9504 68.3096 67.1708 67.7955L67.3911 67.2079L64.6367 59.7158H65.8854L67.942 65.6654H68.0155L70.0721 59.7158H71.3208L68.1624 68.2729C68.0155 68.6769 67.8319 68.9707 67.6482 69.2278C67.4646 69.4849 67.2075 69.6685 66.9137 69.7787C66.6199 69.9256 66.2894 69.9623 65.9588 69.9623Z" fill="#386794"/>
<path d="M72.2012 67.2073V59.752H73.3397V62.9838H74.1109L76.7919 59.752H78.2609L75.2494 63.3511L78.2976 67.2073H76.8286L74.368 64.0489H73.3397V67.2073H72.2012Z" fill="#386794"/>
<path d="M78.8867 69.9617V59.7153H79.9885V60.8905H80.1354C80.2088 60.7436 80.3557 60.5967 80.5026 60.3763C80.6496 60.156 80.8699 60.0091 81.1637 59.8254C81.4575 59.6785 81.8248 59.5684 82.3022 59.5684C82.9266 59.5684 83.4774 59.7153 83.9549 60.0458C84.4323 60.3763 84.7996 60.817 85.0566 61.3679C85.3137 61.9555 85.4606 62.6166 85.4606 63.4246C85.4606 64.1958 85.3137 64.8936 85.0566 65.4812C84.7996 66.0688 84.4323 66.5095 83.9549 66.8401C83.4774 67.1706 82.9266 67.3175 82.3022 67.3175C81.8248 67.3175 81.4575 67.244 81.1637 67.0604C80.8699 66.9135 80.6496 66.7299 80.5026 66.5095C80.3557 66.2892 80.2088 66.1423 80.1354 65.9954H80.0252V69.925L78.8867 69.9617ZM82.1186 66.3259C82.596 66.3259 83 66.2157 83.3305 65.9586C83.6611 65.7016 83.8814 65.371 84.065 64.9303C84.2487 64.4896 84.3221 64.0122 84.3221 63.498C84.3221 62.9839 84.2487 62.5064 84.065 62.0657C83.9181 61.625 83.6611 61.2945 83.3305 61.0741C83 60.817 82.596 60.7069 82.1186 60.7069C81.6412 60.7069 81.2739 60.817 80.9434 61.0741C80.6128 61.2945 80.3925 61.625 80.2088 62.0657C80.0252 62.5064 79.9518 62.9839 79.9518 63.5347C79.9518 64.0856 80.0252 64.5998 80.2088 65.0038C80.3925 65.4078 80.6128 65.775 80.9434 65.9954C81.2739 66.2157 81.6779 66.3259 82.1186 66.3259Z" fill="#386794"/>
<path d="M88.7294 67.355C88.252 67.355 87.8112 67.2815 87.444 67.0979C87.0767 66.9143 86.7462 66.6572 86.5258 66.3267C86.3055 65.9961 86.1953 65.5554 86.1953 65.078C86.1953 64.6373 86.2688 64.3067 86.4524 64.0497C86.636 63.7926 86.8564 63.5722 87.1135 63.4253C87.3705 63.2784 87.7011 63.1683 88.0316 63.0948C88.3621 63.0213 88.7294 62.9479 89.0599 62.9112C89.5006 62.8377 89.8679 62.801 90.1617 62.7643C90.4555 62.7275 90.6391 62.6908 90.786 62.6174C90.9329 62.5439 90.9697 62.397 90.9697 62.2134V62.1767C90.9697 61.6992 90.8228 61.332 90.5657 61.0749C90.3086 60.8178 89.9046 60.6709 89.3905 60.6709C88.8396 60.6709 88.4356 60.7811 88.105 61.0382C87.8112 61.2585 87.5909 61.5156 87.444 61.8094L86.3422 61.4054C86.5258 60.9647 86.7829 60.5975 87.1135 60.3404C87.444 60.0833 87.8112 59.8997 88.1785 59.7895C88.5458 59.6793 88.9497 59.6426 89.317 59.6426C89.5741 59.6426 89.8312 59.6793 90.1617 59.716C90.4555 59.7895 90.786 59.8997 91.0798 60.0466C91.3736 60.2302 91.6307 60.4873 91.8144 60.8545C91.998 61.2218 92.1082 61.6625 92.1082 62.2868V67.2081H91.0064V66.1798H90.9697C90.8962 66.3267 90.7493 66.5103 90.5657 66.6939C90.3821 66.8776 90.125 67.0245 89.8312 67.1714C89.5374 67.2815 89.1701 67.355 88.7294 67.355ZM88.913 66.3267C89.3537 66.3267 89.7577 66.2532 90.0515 66.0696C90.3453 65.886 90.6024 65.6656 90.7493 65.3718C90.8962 65.078 91.0064 64.7842 91.0064 64.4904V63.4253C90.9697 63.4988 90.8595 63.5355 90.6759 63.5722C90.5289 63.609 90.3086 63.6457 90.125 63.6824C89.9046 63.7191 89.721 63.7559 89.5006 63.7559C89.2803 63.7559 89.1334 63.7926 89.0232 63.8293C88.7294 63.866 88.4356 63.9395 88.1785 64.0129C87.9214 64.0864 87.7011 64.2333 87.5542 64.3802C87.4073 64.5271 87.3338 64.7842 87.3338 65.078C87.3338 65.482 87.4807 65.7758 87.7745 65.9594C88.0683 66.143 88.4356 66.3267 88.913 66.3267Z" fill="#386794"/>
<path d="M92.8044 58.5034C92.5841 58.5034 92.4005 58.43 92.2536 58.2831C92.1067 58.1362 92.0332 57.9525 92.0332 57.7322C92.0332 57.5118 92.1067 57.3282 92.2536 57.1813C92.4005 57.0344 92.5841 56.9609 92.8044 56.9609C93.0248 56.9609 93.2084 57.0344 93.3553 57.1813C93.5022 57.3282 93.5757 57.5118 93.5757 57.7322C93.5757 57.9525 93.5022 58.1362 93.3553 58.2831C93.2084 58.43 93.0248 58.5034 92.8044 58.5034ZM93.6124 67.2074V59.7521H94.7509V67.2074H93.6124ZM95.5956 58.5034C95.3752 58.5034 95.2283 58.43 95.0447 58.2831C94.8611 58.1362 94.8244 57.9525 94.8244 57.7322C94.8244 57.5118 94.8978 57.3282 95.0447 57.1813C95.1916 57.0344 95.3752 56.9609 95.5956 56.9609C95.8159 56.9609 95.9996 57.0344 96.1465 57.1813C96.2934 57.3282 96.3668 57.5118 96.3668 57.7322C96.3668 57.9525 96.2934 58.1362 96.1465 58.2831C95.9996 58.43 95.8159 58.5034 95.5956 58.5034Z" fill="#386794"/>
<path d="M97.3592 59.7158V67.1711H96.2207V59.7158H97.3592ZM101.215 62.9477V64.0127H97.1021V62.9477H101.215ZM102.097 59.7158V67.1711H100.922V59.7158H102.097Z" fill="#386794"/>
<path d="M106.578 67.355C105.88 67.355 105.293 67.1714 104.778 66.8408C104.264 66.5103 103.897 66.0696 103.603 65.482C103.346 64.8944 103.199 64.2333 103.199 63.4988C103.199 62.7275 103.346 62.0665 103.603 61.4789C103.897 60.8913 104.264 60.4505 104.778 60.12C105.293 59.7895 105.88 59.6426 106.541 59.6426C107.055 59.6426 107.533 59.7528 107.974 59.9364C108.378 60.12 108.745 60.4138 109.002 60.7444C109.259 61.1116 109.443 61.5156 109.516 61.9563H108.378C108.304 61.7359 108.231 61.5156 108.047 61.332C107.9 61.1483 107.68 60.9647 107.459 60.8545C107.202 60.7444 106.909 60.6709 106.578 60.6709C106.137 60.6709 105.733 60.7811 105.403 61.0014C105.072 61.2218 104.815 61.5523 104.632 61.993C104.448 62.4337 104.338 62.9112 104.338 63.4621C104.338 64.0497 104.411 64.5271 104.595 64.9678C104.778 65.4085 105.036 65.7391 105.366 65.9594C105.697 66.1798 106.101 66.3267 106.541 66.3267C106.982 66.3267 107.386 66.2165 107.68 65.9594C108.01 65.7391 108.194 65.4085 108.304 65.0045H109.443C109.369 65.4452 109.222 65.8492 108.965 66.1798C108.708 66.547 108.378 66.8041 107.974 67.0245C107.57 67.2448 107.129 67.355 106.578 67.355Z" fill="#386794"/>
<path d="M111.572 62.4329H113.702C114.584 62.4329 115.245 62.6533 115.722 63.094C116.199 63.5347 116.42 64.0856 116.42 64.7834C116.42 65.2241 116.31 65.6281 116.126 65.9953C115.942 66.3626 115.612 66.6564 115.208 66.8768C114.804 67.0971 114.326 67.2073 113.739 67.2073H110.617V59.752H111.756V66.1422H113.739C114.18 66.1422 114.547 66.0321 114.841 65.775C115.134 65.5546 115.281 65.2241 115.281 64.8568C115.281 64.4529 115.134 64.1223 114.841 63.902C114.547 63.6449 114.18 63.5347 113.739 63.5347H111.572V62.4329Z" fill="#386794"/>
<path d="M117.521 67.2073V59.752H118.66V62.9838H119.431L122.112 59.752H123.581L120.57 63.3511L123.618 67.2073H122.149L119.688 64.0489H118.66V67.2073H117.521Z" fill="#386794"/>
<path d="M125.344 65.4808L128.943 59.7148H130.265V67.1702H129.127V61.441L125.564 67.2069H124.242V59.7516H125.381L125.344 65.4808Z" fill="#386794"/>
<path d="M132.836 65.4817L136.435 59.7158H137.757V67.1711H136.619V61.4419L133.056 67.2078H131.734V59.7525H132.873L132.836 65.4817ZM134.709 58.8343C134.122 58.8343 133.644 58.6507 133.24 58.3202C132.873 57.9896 132.689 57.5489 132.689 56.998H133.754C133.754 57.2919 133.828 57.5122 134.011 57.6958C134.195 57.8795 134.415 57.9529 134.709 57.9529C135.003 57.9529 135.223 57.8795 135.407 57.6958C135.591 57.5122 135.664 57.2919 135.664 56.998H136.729C136.729 57.5489 136.545 57.9896 136.178 58.3202C135.811 58.6874 135.333 58.8343 134.709 58.8343Z" fill="#386794"/>
<path d="M4.14931 81.0161C3.67188 81.0161 3.23117 80.9427 2.86391 80.759C2.45993 80.5754 2.16612 80.3183 1.94577 79.9878C1.72541 79.6573 1.61523 79.2166 1.61523 78.7391C1.61523 78.2984 1.68869 77.9679 1.87231 77.7108C2.05594 77.4537 2.2763 77.2334 2.53338 77.0865C2.82718 76.9396 3.12099 76.8294 3.45152 76.7559C3.78205 76.6825 4.14931 76.609 4.47984 76.5723C4.92055 76.4988 5.28781 76.4621 5.58161 76.4254C5.87542 76.3887 6.05905 76.3519 6.20595 76.2785C6.35286 76.205 6.38958 76.0581 6.38958 75.8745V75.8378C6.38958 75.3604 6.24268 74.9931 5.9856 74.736C5.72852 74.4789 5.32453 74.332 4.81037 74.332C4.25949 74.332 3.8555 74.4422 3.52497 74.6993C3.23117 74.9196 3.01081 75.1767 2.86391 75.4705L1.76214 75.0665C1.94577 74.6258 2.20285 74.2586 2.53338 74.0015C2.86391 73.7444 3.23117 73.5608 3.59842 73.4506C3.96568 73.3404 4.36966 73.3037 4.73692 73.3037C4.994 73.3037 5.25108 73.3404 5.58161 73.3772C5.91215 73.4139 6.20595 73.5608 6.49976 73.7077C6.79356 73.8546 7.05064 74.1484 7.23427 74.5157C7.4179 74.8829 7.52808 75.3236 7.52808 75.948V80.8692H6.38958V79.8409H6.35285C6.2794 79.9878 6.1325 80.1714 5.94887 80.3551C5.76524 80.5387 5.50816 80.6856 5.21436 80.8325C4.92055 80.9794 4.59002 81.0161 4.14931 81.0161ZM4.33294 79.9878C4.77365 79.9878 5.17763 79.9143 5.47144 79.7307C5.76524 79.5471 6.02232 79.3267 6.16923 79.0329C6.31613 78.7391 6.42631 78.4453 6.42631 78.1515V77.0865C6.38958 77.1599 6.2794 77.1966 6.09578 77.2334C5.94887 77.2701 5.72852 77.3068 5.54489 77.3435C5.36126 77.3803 5.14091 77.417 4.92055 77.417C4.7002 77.417 4.55329 77.4537 4.44312 77.4904C4.14931 77.5272 3.8555 77.6006 3.59842 77.6741C3.34134 77.7475 3.12099 77.8944 2.97409 78.0413C2.82718 78.225 2.75373 78.4453 2.75373 78.7391C2.75373 79.1431 2.90064 79.4369 3.19444 79.6205C3.48825 79.9143 3.8555 79.9878 4.33294 79.9878Z" fill="#386794"/>
<path d="M13.6239 73.4141V74.4791H10.1717V80.8694H9.0332V73.4141H13.6239Z" fill="#386794"/>
<path d="M14.6895 83.66V73.4135H15.7912V74.5887H15.9381C16.0116 74.4418 16.1585 74.2949 16.3054 74.0746C16.4523 73.8542 16.6726 73.7073 16.9664 73.5237C17.2603 73.3768 17.6275 73.2666 18.1049 73.2666C18.7293 73.2666 19.2802 73.4135 19.7576 73.744C20.235 74.0746 20.6023 74.5153 20.8594 75.0662C21.1165 75.617 21.2634 76.3148 21.2634 77.0861C21.2634 77.8573 21.1165 78.5551 20.8594 79.1427C20.6023 79.7303 20.235 80.171 19.7576 80.5016C19.2802 80.8321 18.7293 80.979 18.1049 80.979C17.6275 80.979 17.2603 80.9056 16.9664 80.7219C16.6726 80.575 16.4523 80.3914 16.3054 80.171C16.1585 79.9507 16.0116 79.8038 15.9381 79.6569H15.828V83.5865H14.6895V83.66ZM17.9213 79.9874C18.3988 79.9874 18.8027 79.8772 19.1333 79.6202C19.4638 79.3631 19.6842 79.0325 19.8678 78.5918C20.0514 78.1511 20.1249 77.6737 20.1249 77.1595C20.1249 76.6454 20.0514 76.1679 19.8678 75.7272C19.7209 75.2865 19.4638 74.956 19.1333 74.7356C18.8027 74.4786 18.3988 74.3684 17.9213 74.3684C17.4439 74.3684 17.0766 74.4786 16.7461 74.7356C16.4156 74.956 16.1952 75.2865 16.0116 75.7272C15.828 76.1679 15.7545 76.6454 15.7545 77.1963C15.7545 77.7471 15.828 78.2613 16.0116 78.6653C16.1585 79.106 16.4156 79.4365 16.7461 79.6569C17.0766 79.8772 17.4806 79.9874 17.9213 79.9874Z" fill="#386794"/>
<path d="M25.3768 81.0157C24.7158 81.0157 24.1281 80.8688 23.614 80.5383C23.0998 80.2078 22.6958 79.7671 22.4388 79.1794C22.1449 78.5918 21.998 77.9308 21.998 77.1595C21.998 76.3883 22.1449 75.6905 22.4388 75.1029C22.7326 74.5153 23.0998 74.0746 23.614 73.744C24.1281 73.4135 24.7158 73.2666 25.3768 73.2666C26.0379 73.2666 26.6622 73.4135 27.1397 73.744C27.6538 74.0746 28.0578 74.5153 28.3149 75.1029C28.6087 75.6905 28.7556 76.3516 28.7556 77.1595C28.7556 77.9308 28.6087 78.5918 28.3149 79.1794C28.0211 79.7671 27.6171 80.2078 27.1397 80.5383C26.6255 80.8688 26.0379 81.0157 25.3768 81.0157ZM25.3768 79.9874C25.891 79.9874 26.3317 79.8405 26.6622 79.5834C26.9927 79.3263 27.2498 78.9591 27.3967 78.5551C27.5436 78.1511 27.6538 77.6737 27.6538 77.1595C27.6538 76.6454 27.5804 76.2047 27.3967 75.764C27.2131 75.3232 26.9927 74.9927 26.6622 74.7356C26.3317 74.4786 25.9277 74.3316 25.3768 74.3316C24.8627 74.3316 24.4587 74.4786 24.1281 74.7356C23.7976 74.9927 23.5405 75.36 23.3936 75.764C23.2467 76.1679 23.1365 76.6454 23.1365 77.1595C23.1365 77.637 23.21 78.1144 23.3936 78.5551C23.5773 78.9958 23.7976 79.3263 24.1281 79.5834C24.4587 79.8405 24.8627 79.9874 25.3768 79.9874Z" fill="#386794"/>
<path d="M29.8574 80.8694V73.4141H35.7335V80.8694H34.595V74.4791H31.0326V80.8694H29.8574Z" fill="#386794"/>
<path d="M40.2147 81.0167C39.5536 81.0167 38.966 80.8698 38.4519 80.5393C37.9377 80.2087 37.5337 79.768 37.2766 79.1804C36.9828 78.5928 36.8359 77.9317 36.8359 77.1605C36.8359 76.3893 36.9828 75.6915 37.2766 75.1039C37.5705 74.5163 37.9377 74.0755 38.4519 73.745C38.966 73.4145 39.5536 73.2676 40.2147 73.2676C40.8758 73.2676 41.5001 73.4145 41.9775 73.745C42.4917 74.0755 42.8957 74.5163 43.1528 75.1039C43.4466 75.6915 43.5935 76.3525 43.5935 77.1605C43.5935 77.9317 43.4466 78.5928 43.1528 79.1804C42.859 79.768 42.455 80.2087 41.9775 80.5393C41.4634 80.8698 40.8758 81.0167 40.2147 81.0167ZM40.2147 79.9884C40.7289 79.9884 41.1696 79.8415 41.5001 79.5844C41.8306 79.3273 42.0877 78.9601 42.2346 78.5561C42.3815 78.1521 42.4917 77.6747 42.4917 77.1605C42.4917 76.6463 42.4182 76.2056 42.2346 75.7649C42.051 75.3242 41.8306 74.9937 41.5001 74.7366C41.1696 74.4795 40.7656 74.3326 40.2147 74.3326C39.7005 74.3326 39.2966 74.4795 38.966 74.7366C38.6355 74.9937 38.3784 75.3609 38.2315 75.7649C38.0846 76.1689 37.9744 76.6463 37.9744 77.1605C37.9744 77.6379 38.0479 78.1154 38.2315 78.5561C38.4151 78.9968 38.6355 79.3273 38.966 79.5844C39.2966 79.8415 39.7005 79.9884 40.2147 79.9884Z" fill="#386794"/>
<path d="M44.0332 80.8694V79.8043H44.2903C44.5841 79.8043 44.8412 79.7309 44.9881 79.5473C45.1717 79.3636 45.2819 79.0698 45.3553 78.6291C45.4288 78.1884 45.5022 77.5641 45.539 76.7194L45.6859 73.4141H50.6438V80.8694H49.5053V74.4791H46.7876L46.6775 77.1601C46.6407 77.7844 46.604 78.2986 46.5306 78.776C46.4571 79.2535 46.3102 79.6207 46.1633 79.9512C45.9797 80.2818 45.7593 80.5021 45.5022 80.649C45.2452 80.7959 44.8779 80.8694 44.4739 80.8694H44.0332Z" fill="#386794"/>
<path d="M52.7002 72.1655C52.4798 72.1655 52.2962 72.0921 52.1125 71.9452C51.9656 71.7983 51.8555 71.6146 51.8555 71.3943C51.8555 71.1739 51.9289 70.9903 52.1125 70.8434C52.2595 70.6965 52.4798 70.623 52.7002 70.623C52.9205 70.623 53.1041 70.6965 53.2878 70.8434C53.4347 70.9903 53.5449 71.1739 53.5449 71.3943C53.5449 71.6146 53.4714 71.7983 53.2878 71.9452C53.1041 72.0921 52.9205 72.1655 52.7002 72.1655ZM52.1125 80.8695V73.4142H53.251V80.8695H52.1125Z" fill="#386794"/>
<path d="M54.2793 74.4791V73.4141H60.339V74.4791H57.9151V80.8694H56.7766V74.4791H54.2793Z" fill="#386794"/>
<path d="M62.5061 79.1429L66.1052 73.377H67.4273V80.8323H66.2888V75.0663L62.7264 80.8323H61.4043V73.377H62.5428V79.1429H62.5061Z" fill="#386794"/>
<path d="M74.185 76.9765V78.0415C73.9279 78.1517 73.6708 78.2251 73.4137 78.2986C73.1567 78.372 72.8996 78.4455 72.6058 78.4822C72.312 78.5189 72.0182 78.5557 71.6876 78.5557C70.8429 78.5557 70.1819 78.3353 69.6677 77.8579C69.1536 77.4172 68.8965 76.7194 68.8965 75.8012V73.4141H70.035V75.8012C70.035 76.1685 70.1084 76.499 70.2553 76.7561C70.4022 77.0132 70.5859 77.1968 70.8429 77.307C71.1 77.4172 71.3571 77.4906 71.6876 77.4906C72.1651 77.4906 72.6058 77.4539 73.0098 77.3437C73.4137 77.2335 73.781 77.0866 74.185 76.9765ZM74.6257 73.4141V80.8694H73.4872V73.4141H74.6257Z" fill="#386794"/>
<path d="M77.2342 73.4141V80.8694H76.0957V73.4141H77.2342ZM81.0904 76.6092V77.6743H76.9771V76.6092H81.0904ZM81.9718 73.4141V80.8694H80.8333V73.4141H81.9718Z" fill="#386794"/>
<path d="M84.5412 79.1429L88.1403 73.377H89.4625V80.8323H88.324V75.0663L84.7616 80.8323H83.4395V73.377H84.578L84.5412 79.1429Z" fill="#386794"/>
<path d="M92.0705 79.1428L95.6696 73.3769H96.9918V80.8322H95.8533V75.0663L92.2909 80.8322H90.9688V73.3769H92.1073L92.0705 79.1428ZM93.9435 72.4955C93.3559 72.4955 92.8785 72.3118 92.4745 71.9813C92.1073 71.6508 91.9236 71.2101 91.9236 70.6592H92.9887C92.9887 70.953 93.0621 71.1733 93.2457 71.357C93.4294 71.5406 93.6497 71.6141 93.9435 71.6141C94.2373 71.6141 94.4577 71.5406 94.6413 71.357C94.825 71.1733 94.8984 70.953 94.8984 70.6592H95.9634C95.9634 71.2101 95.7798 71.6508 95.4126 71.9813C95.0453 72.3486 94.5679 72.4955 93.9435 72.4955Z" fill="#386794"/>
<path d="M100.848 82.9995V79.8043H101.472C101.619 79.6574 101.766 79.4738 101.876 79.2902C101.986 79.1066 102.096 78.8862 102.17 78.6291C102.243 78.372 102.317 78.0782 102.39 77.711C102.464 77.3437 102.5 76.903 102.537 76.3888L102.794 73.4141H107.532V79.8043H108.67V82.9995H107.532V80.8694H102.023V82.9995H100.848ZM102.757 79.8043H106.357V74.4791H103.859L103.676 76.3888C103.602 77.1601 103.492 77.8579 103.382 78.4455C103.272 79.0331 103.051 79.4371 102.757 79.8043Z" fill="#386794"/>
<path d="M110.103 72.1655C109.882 72.1655 109.699 72.0921 109.515 71.9452C109.368 71.7983 109.258 71.6146 109.258 71.3943C109.258 71.1739 109.331 70.9903 109.515 70.8434C109.662 70.6965 109.882 70.623 110.103 70.623C110.323 70.623 110.506 70.6965 110.69 70.8434C110.837 70.9903 110.947 71.1739 110.947 71.3943C110.947 71.6146 110.874 71.7983 110.69 71.9452C110.543 72.0921 110.323 72.1655 110.103 72.1655ZM109.552 80.8695V73.4142H110.69V80.8695H109.552Z" fill="#386794"/>
<path d="M114.327 81.0171C113.85 81.0171 113.409 80.9436 113.042 80.76C112.638 80.5764 112.344 80.3193 112.123 79.9888C111.903 79.6582 111.793 79.2175 111.793 78.7401C111.793 78.2994 111.866 77.9689 112.05 77.7118C112.234 77.4547 112.454 77.2343 112.711 77.0874C112.968 76.9405 113.299 76.8304 113.629 76.7569C113.96 76.6835 114.327 76.61 114.658 76.5733C115.098 76.4998 115.466 76.4631 115.759 76.4264C116.053 76.3897 116.237 76.3529 116.384 76.2795C116.531 76.206 116.567 76.0591 116.567 75.8755V75.8388C116.567 75.3613 116.42 74.9941 116.163 74.737C115.906 74.4799 115.502 74.333 114.988 74.333C114.437 74.333 114.033 74.4432 113.703 74.7003C113.409 74.9206 113.189 75.1777 113.042 75.4715L111.94 75.0675C112.123 74.6268 112.381 74.2596 112.711 74.0025C113.042 73.7454 113.409 73.5618 113.776 73.4516C114.143 73.3414 114.547 73.3047 114.915 73.3047C115.172 73.3047 115.429 73.3414 115.759 73.3781C116.053 73.4516 116.384 73.5618 116.677 73.7087C116.971 73.8923 117.228 74.1494 117.412 74.5166C117.596 74.8839 117.706 75.3246 117.706 75.9489V80.8702H116.567V79.8419H116.531C116.457 79.9888 116.31 80.1724 116.127 80.356C115.943 80.5397 115.686 80.6866 115.392 80.8335C115.135 80.9804 114.768 81.0171 114.327 81.0171ZM114.511 79.9888C114.951 79.9888 115.355 79.9153 115.649 79.7317C115.943 79.5481 116.2 79.3277 116.347 79.0339C116.494 78.7401 116.604 78.4463 116.604 78.1525V77.0874C116.567 77.1609 116.457 77.1976 116.274 77.2343C116.127 77.2711 115.906 77.3078 115.723 77.3445C115.502 77.3812 115.319 77.418 115.098 77.418C114.878 77.418 114.731 77.4547 114.621 77.4914C114.327 77.5281 114.033 77.6016 113.776 77.675C113.519 77.7485 113.299 77.8954 113.152 78.0423C113.005 78.2259 112.931 78.4463 112.931 78.7401C112.931 79.1441 113.078 79.4379 113.372 79.6215C113.666 79.9153 114.033 79.9888 114.511 79.9888Z" fill="#386794"/>
<path d="M118.551 80.8694V79.8043H118.808C119.102 79.8043 119.359 79.7309 119.506 79.5473C119.653 79.3636 119.799 79.0698 119.873 78.6291C119.946 78.1884 120.02 77.5641 120.057 76.7194L120.203 73.4141H125.161V80.8694H124.023V74.4791H121.305L121.195 77.1601C121.158 77.7844 121.122 78.2986 121.048 78.776C120.975 79.2535 120.828 79.6207 120.681 79.9512C120.497 80.2818 120.277 80.5021 120.02 80.649C119.726 80.7959 119.395 80.8694 118.991 80.8694H118.551Z" fill="#386794"/>
<path d="M129.64 81.0167C128.979 81.0167 128.392 80.8698 127.878 80.5393C127.363 80.2087 126.96 79.768 126.702 79.1804C126.409 78.5928 126.262 77.9317 126.262 77.1605C126.262 76.3893 126.409 75.6915 126.702 75.1039C126.996 74.5163 127.363 74.0755 127.878 73.745C128.392 73.4145 128.979 73.2676 129.64 73.2676C130.302 73.2676 130.926 73.4145 131.403 73.745C131.881 74.0755 132.321 74.5163 132.579 75.1039C132.872 75.6915 133.019 76.3525 133.019 77.1605C133.019 77.9317 132.872 78.5928 132.579 79.1804C132.285 79.768 131.881 80.2087 131.403 80.5393C130.926 80.8698 130.338 81.0167 129.64 81.0167ZM129.64 79.9884C130.155 79.9884 130.595 79.8415 130.926 79.5844C131.256 79.3273 131.514 78.9601 131.66 78.5561C131.807 78.1154 131.917 77.6747 131.917 77.1605C131.917 76.6463 131.844 76.2056 131.66 75.7649C131.514 75.3242 131.256 74.9937 130.926 74.7366C130.595 74.4795 130.191 74.3326 129.64 74.3326C129.126 74.3326 128.722 74.4795 128.392 74.7366C128.061 74.9937 127.804 75.3609 127.657 75.7649C127.51 76.2056 127.4 76.6463 127.4 77.1605C127.4 77.6379 127.474 78.1154 127.657 78.5561C127.804 78.9968 128.061 79.3273 128.392 79.5844C128.722 79.8415 129.126 79.9884 129.64 79.9884Z" fill="#386794"/>
<path d="M138.749 73.4141V74.4791H135.297V80.8694H134.158V73.4141H138.749Z" fill="#386794"/>
<path d="M89.9784 9.21799C88.5461 6.61046 86.4527 4.59054 83.735 3.12151C81.0173 1.65248 77.7487 0.917969 73.8925 0.917969H53.877V51.7097H64.6009V35.2565H73.6354C77.5651 35.2565 80.8704 34.522 83.6248 33.0897C86.3792 31.6574 88.5093 29.6375 89.9416 27.0667C91.4107 24.4959 92.1085 21.5211 92.1085 18.1791C92.1452 14.8003 91.4107 11.7888 89.9784 9.21799ZM80.0624 22.5862C79.4013 23.8716 78.373 24.8632 77.0142 25.5977C75.6553 26.3322 73.9659 26.6994 71.8726 26.6994H64.5641V9.73215H71.8358C73.8925 9.73215 75.6186 10.0994 76.9774 10.7972C78.3363 11.495 79.3646 12.4866 80.0257 13.7353C80.6867 14.9839 81.0173 16.4897 81.0173 18.1791C81.054 19.8317 80.7235 21.3008 80.0624 22.5862Z" fill="#386794"/>
<path d="M136.693 12.7069C134.71 8.92418 131.882 6.02285 128.209 3.96621C124.537 1.94629 120.13 0.917969 115.025 0.917969H96.8457V51.7097H114.841C119.983 51.7097 124.427 50.6813 128.136 48.6614C131.845 46.6415 134.673 43.7035 136.656 39.9207C138.64 36.138 139.631 31.584 139.631 26.2955C139.631 21.0069 138.676 16.4897 136.693 12.7069ZM127.328 35.5503C126.226 37.9375 124.574 39.7004 122.407 40.8388C120.24 41.9773 117.559 42.5282 114.327 42.5282H107.533V10.1361H114.401C117.596 10.1361 120.277 10.687 122.444 11.8255C124.61 12.964 126.263 14.6901 127.365 17.0773C128.467 19.4645 129.017 22.5494 129.017 26.2955C128.981 30.0782 128.43 33.1632 127.328 35.5503Z" fill="#386794"/>
<path d="M24.0547 46.7522C19.9047 50.9022 13.6246 51.5633 11.5312 51.6734L15.8649 38.3787C20.8963 33.4208 29.0127 33.4942 29.0127 33.4942C29.0127 33.4942 29.0862 41.7575 24.0547 46.7522Z" fill="#56762C"/>
<path d="M49.7267 51.7099H38.0479L25.047 11.789H24.643L15.9757 38.4151L11.6788 51.7099C11.2748 51.7466 11.0544 51.7466 10.981 51.7466H0L17.8487 0H31.9514L49.7267 51.7099Z" fill="#386793"/>
</svg>
