<svg width="152" height="80" viewBox="0 0 152 80" fill="none" xmlns="http://www.w3.org/2000/svg">
<path fill-rule="evenodd" clip-rule="evenodd" d="M10.8083 55.5524C10.8083 56.5824 9.96838 57.4144 8.93831 57.4144C7.90825 57.4144 7.06835 56.5824 7.08421 55.5524C7.06835 54.5223 7.90825 53.6855 8.93831 53.6855C9.96838 53.6855 10.8083 54.5223 10.8083 55.5524Z" fill="#ED7901"/>
<path fill-rule="evenodd" clip-rule="evenodd" d="M18.6213 55.5521C18.6213 56.7866 17.6229 57.7881 16.3868 57.7881C15.1507 57.7881 14.1523 56.7866 14.1523 55.5521C14.1523 54.3176 15.1507 53.3145 16.3868 53.3145C17.6229 53.3145 18.6213 54.3176 18.6213 55.5521Z" fill="#ED7901"/>
<path fill-rule="evenodd" clip-rule="evenodd" d="M26.4501 55.5528C26.4501 56.9933 25.2932 58.1612 23.8511 58.1612C22.409 58.1612 21.2363 56.9933 21.2363 55.5528C21.2363 54.1123 22.409 52.9443 23.8511 52.9443C25.2774 52.9443 26.4501 54.1123 26.4501 55.5528Z" fill="#ED7901"/>
<path fill-rule="evenodd" clip-rule="evenodd" d="M2.9793 55.5528C2.9793 56.3768 2.31367 57.0424 1.48962 57.0424C0.665567 57.0424 0 56.3768 0 55.5528C0 54.7303 0.665567 54.0615 1.48962 54.0615C2.31367 54.0615 2.9793 54.7303 2.9793 55.5528Z" fill="#ED7901"/>
<path fill-rule="evenodd" clip-rule="evenodd" d="M10.7924 48.0984C10.8083 49.1316 9.96838 49.962 8.93831 49.962C7.90825 49.962 7.06835 49.1316 7.08421 48.0984C7.06835 47.0715 7.90825 46.2363 8.93831 46.2363C9.96838 46.2363 10.8083 47.0715 10.7924 48.0984Z" fill="#ED7901"/>
<path fill-rule="evenodd" clip-rule="evenodd" d="M18.6213 48.0977C18.6213 49.3338 17.6229 50.3354 16.3868 50.3354C15.1507 50.3354 14.1523 49.3338 14.1523 48.0977C14.1523 46.8648 15.1507 45.8633 16.3868 45.8633C17.6229 45.8633 18.6213 46.8648 18.6213 48.0977Z" fill="#ED7901"/>
<path fill-rule="evenodd" clip-rule="evenodd" d="M26.4501 48.0975C26.4501 49.5411 25.2932 50.7075 23.8511 50.7075C22.409 50.7075 21.2363 49.5411 21.2363 48.0975C21.2363 46.6585 22.409 45.4922 23.8511 45.4922C25.2932 45.4922 26.4501 46.6585 26.4501 48.0975Z" fill="#ED7901"/>
<path fill-rule="evenodd" clip-rule="evenodd" d="M34.2769 48.0996C34.2769 49.7493 32.9457 51.0805 31.2976 51.0805C29.6495 51.0805 28.3184 49.7493 28.3184 48.0996C28.3184 46.4531 29.6495 45.1172 31.2976 45.1172C32.9457 45.1172 34.2769 46.4531 34.2769 48.0996Z" fill="#ED7901"/>
<path fill-rule="evenodd" clip-rule="evenodd" d="M2.9793 48.0977C2.9793 48.9233 2.31367 49.5889 1.48962 49.5889C0.665567 49.5889 0 48.9233 0 48.0977C0 47.2736 0.665567 46.6064 1.48962 46.6064C2.31367 46.6064 2.9793 47.2736 2.9793 48.0977Z" fill="#ED7901"/>
<path fill-rule="evenodd" clip-rule="evenodd" d="M10.8083 40.6468C10.8083 41.6737 9.9684 42.5105 8.93833 42.5105C7.90826 42.5105 7.06836 41.6737 7.06836 40.6468C7.06836 39.6168 7.90826 38.7832 8.93833 38.7832C9.9684 38.7832 10.8083 39.6168 10.8083 40.6468Z" fill="#002F62"/>
<path fill-rule="evenodd" clip-rule="evenodd" d="M18.6213 40.6468C18.6213 41.8797 17.6229 42.8813 16.3868 42.8813C15.1507 42.8813 14.1523 41.8797 14.1523 40.6468C14.1523 39.4139 15.1507 38.4092 16.3868 38.4092C17.6229 38.4092 18.6213 39.4139 18.6213 40.6468Z" fill="#002F62"/>
<path fill-rule="evenodd" clip-rule="evenodd" d="M26.4501 40.6475C26.4501 42.088 25.2932 43.256 23.8511 43.256C22.409 43.256 21.2363 42.088 21.2363 40.6475C21.2363 39.2086 22.409 38.0391 23.8511 38.0391C25.2774 38.0391 26.4501 39.2086 26.4501 40.6475Z" fill="#002F62"/>
<path fill-rule="evenodd" clip-rule="evenodd" d="M34.2769 40.6465C34.2769 42.293 32.9457 43.6274 31.2976 43.6274C29.6495 43.6274 28.3184 42.293 28.3184 40.6465C28.3184 39 29.6495 37.6641 31.2976 37.6641C32.9457 37.6641 34.2769 39 34.2769 40.6465Z" fill="#002F62"/>
<path fill-rule="evenodd" clip-rule="evenodd" d="M42.1057 40.6469C42.1057 42.501 40.6002 43.9985 38.7461 43.9985C36.892 43.9985 35.4023 42.501 35.4023 40.6469C35.4023 38.7959 36.892 37.292 38.7461 37.292C40.6002 37.292 42.1057 38.7959 42.1057 40.6469Z" fill="#002F62"/>
<path fill-rule="evenodd" clip-rule="evenodd" d="M2.9793 40.6465C2.9793 41.4705 2.31367 42.1361 1.48962 42.1361C0.665567 42.1361 0 41.4705 0 40.6465C0 39.824 0.665567 39.1553 1.48962 39.1553C2.31367 39.1553 2.9793 39.824 2.9793 40.6465Z" fill="#002F62"/>
<path fill-rule="evenodd" clip-rule="evenodd" d="M10.8083 33.1918C10.8083 34.2218 9.96838 35.0554 8.93831 35.0554C7.90825 35.0554 7.06835 34.2218 7.08421 33.1918C7.06835 32.1649 7.90825 31.3281 8.93831 31.3281C9.96838 31.3281 10.7924 32.1649 10.8083 33.1918Z" fill="#ED7901"/>
<path fill-rule="evenodd" clip-rule="evenodd" d="M18.6213 33.1927C18.6213 34.4304 17.6229 35.4303 16.3868 35.4303C15.1507 35.4303 14.1523 34.4304 14.1523 33.1927C14.1523 31.9582 15.1507 30.9551 16.3868 30.9551C17.6229 30.9551 18.6213 31.9582 18.6213 33.1927Z" fill="#ED7901"/>
<path fill-rule="evenodd" clip-rule="evenodd" d="M26.4501 33.1924C26.4501 34.6361 25.2932 35.8025 23.8511 35.8025C22.409 35.8025 21.2363 34.6361 21.2363 33.1924C21.2363 31.7551 22.409 30.584 23.8511 30.584C25.2774 30.584 26.4501 31.7551 26.4501 33.1924Z" fill="#ED7901"/>
<path fill-rule="evenodd" clip-rule="evenodd" d="M34.2769 33.1965C34.2769 34.8399 32.9457 36.1742 31.2976 36.1742C29.6495 36.1742 28.3184 34.8399 28.3184 33.1965C28.3184 31.5468 29.6495 30.2109 31.2976 30.2109C32.9457 30.2109 34.2769 31.5468 34.2769 33.1965Z" fill="#ED7901"/>
<path fill-rule="evenodd" clip-rule="evenodd" d="M42.1057 33.1963C42.1057 35.0441 40.6002 36.5464 38.7461 36.5464C36.892 36.5464 35.4023 35.0441 35.4023 33.1963C35.4023 31.3406 36.892 29.8398 38.7461 29.8398C40.6002 29.8398 42.1057 31.3406 42.1057 33.1963Z" fill="#ED7901"/>
<path fill-rule="evenodd" clip-rule="evenodd" d="M10.7924 63.0062C10.8083 64.0347 9.9684 64.8683 8.93833 64.8683C7.90826 64.8683 7.06836 64.0347 7.06836 63.0062C7.06836 61.9745 7.90826 61.1426 8.93833 61.1426C9.9684 61.1426 10.8083 61.9745 10.7924 63.0062Z" fill="#ED7901"/>
<path fill-rule="evenodd" clip-rule="evenodd" d="M18.6213 63.0056C18.6213 64.2385 17.6229 65.2384 16.3868 65.2384C15.1507 65.2384 14.1523 64.2385 14.1523 63.0056C14.1523 61.7711 15.1507 60.7695 16.3868 60.7695C17.6229 60.7695 18.6213 61.7711 18.6213 63.0056Z" fill="#ED7901"/>
<path fill-rule="evenodd" clip-rule="evenodd" d="M2.9793 63.0055C2.9793 63.828 2.31367 64.4951 1.48962 64.4951C0.665567 64.4951 0 63.828 0 63.0055C0 62.1814 0.665567 61.5127 1.48962 61.5127C2.31367 61.5127 2.9793 62.1814 2.9793 63.0055Z" fill="#ED7901"/>
<path fill-rule="evenodd" clip-rule="evenodd" d="M2.9793 77.9111C2.9793 78.732 2.31367 79.4008 1.48962 79.4008C0.665567 79.4008 0 78.732 0 77.9111C0 77.0855 0.665567 76.4199 1.48962 76.4199C2.31367 76.4199 2.9793 77.0855 2.9793 77.9111Z" fill="#ED7901"/>
<path fill-rule="evenodd" clip-rule="evenodd" d="M10.8083 70.459C10.8083 71.489 9.9684 72.321 8.93833 72.321C7.90826 72.321 7.08421 71.489 7.06836 70.459C7.06836 69.4289 7.90826 68.5938 8.93833 68.5938C9.9684 68.5938 10.8083 69.4289 10.8083 70.459Z" fill="#ED7901"/>
<path fill-rule="evenodd" clip-rule="evenodd" d="M2.9793 70.458C2.9793 71.2805 2.31367 71.9477 1.48962 71.9477C0.665567 71.9477 0 71.2805 0 70.458C0 69.6355 0.665567 68.9668 1.48962 68.9668C2.31367 68.9668 2.9793 69.6355 2.9793 70.458Z" fill="#ED7901"/>
<path fill-rule="evenodd" clip-rule="evenodd" d="M18.6213 25.7409C18.6213 26.9738 17.6229 27.9754 16.3868 27.9754C15.1507 27.9754 14.1523 26.9738 14.1523 25.7409C14.1523 24.5064 15.1507 23.5049 16.3868 23.5049C17.6229 23.5049 18.6213 24.5064 18.6213 25.7409Z" fill="#ED7901"/>
<path fill-rule="evenodd" clip-rule="evenodd" d="M26.4501 25.7409C26.4501 27.1798 25.2932 28.3493 23.8511 28.3493C22.409 28.3493 21.2363 27.1798 21.2363 25.7409C21.2363 24.302 22.409 23.1309 23.8511 23.1309C25.2932 23.1309 26.4501 24.302 26.4501 25.7409Z" fill="#ED7901"/>
<path fill-rule="evenodd" clip-rule="evenodd" d="M34.2769 25.741C34.2769 27.3875 32.9457 28.7219 31.2976 28.7219C29.6495 28.7219 28.3184 27.3875 28.3184 25.741C28.3184 24.0945 29.6495 22.7617 31.2976 22.7617C32.9457 22.7617 34.2769 24.0945 34.2769 25.741Z" fill="#ED7901"/>
<path fill-rule="evenodd" clip-rule="evenodd" d="M42.1057 25.7406C42.1057 27.5947 40.6002 29.0939 38.7461 29.0939C36.892 29.0939 35.4023 27.5947 35.4023 25.7406C35.4023 23.8897 36.892 22.3857 38.7461 22.3857C40.6002 22.3857 42.1057 23.8897 42.1057 25.7406Z" fill="#ED7901"/>
<path fill-rule="evenodd" clip-rule="evenodd" d="M26.4501 18.2897C26.4501 19.7302 25.2932 20.895 23.8511 20.895C22.409 20.895 21.2363 19.7302 21.2363 18.2897C21.2363 16.8492 22.409 15.6797 23.8511 15.6797C25.2932 15.6797 26.4501 16.8492 26.4501 18.2897Z" fill="#ED7901"/>
<path fill-rule="evenodd" clip-rule="evenodd" d="M34.2769 18.2891C34.2769 19.934 32.9457 21.2699 31.2976 21.2699C29.6495 21.2699 28.3184 19.934 28.3184 18.2891C28.3184 16.6426 29.6495 15.3066 31.2976 15.3066C32.9457 15.3066 34.2769 16.6426 34.2769 18.2891Z" fill="#ED7901"/>
<path fill-rule="evenodd" clip-rule="evenodd" d="M42.1057 18.2894C42.1057 20.142 40.6002 21.6443 38.7461 21.6443C36.892 21.6443 35.4023 20.142 35.4023 18.2894C35.4023 16.4369 36.892 14.9346 38.7461 14.9346C40.6002 14.9346 42.1057 16.4369 42.1057 18.2894Z" fill="#ED7901"/>
<path fill-rule="evenodd" clip-rule="evenodd" d="M34.2769 10.835C34.2769 12.4815 32.9457 13.8158 31.2976 13.8158C29.6495 13.8158 28.3184 12.4815 28.3184 10.835C28.3184 9.18845 29.6495 7.85254 31.2976 7.85254C32.9457 7.85254 34.2769 9.18845 34.2769 10.835Z" fill="#ED7901"/>
<path fill-rule="evenodd" clip-rule="evenodd" d="M42.106 10.8353C42.106 12.6879 40.6005 14.1902 38.7464 14.1902C36.8922 14.1902 35.4026 12.6879 35.3867 10.8353C35.4026 8.98437 36.8922 7.48047 38.7464 7.48047C40.6005 7.48047 42.106 8.98437 42.106 10.8353Z" fill="#ED7901"/>
<path fill-rule="evenodd" clip-rule="evenodd" d="M42.1057 3.35327C42.1057 5.20422 40.6002 6.70812 38.7461 6.70812C36.892 6.70812 35.4023 5.20422 35.4023 3.35327C35.4023 1.50074 36.892 0 38.7461 0C40.6002 0 42.1057 1.50074 42.1057 3.35327Z" fill="#ED7901"/>
<path d="M53.151 70.7024H53.5313C54.7357 70.7024 55.4647 70.929 55.4647 72.2063C55.4647 73.5407 54.5456 73.7102 53.5313 73.7102H53.151V70.7024ZM51.2969 79.458H54.0384C55.5281 79.458 57.826 79.2885 57.826 76.7751C57.826 74.9875 56.6216 74.463 55.6074 74.2506V74.2221C56.368 74.0082 57.3347 73.3695 57.3347 71.9797C57.3347 70.0353 55.6707 69.666 54.0384 69.666H51.2969V79.458ZM53.151 74.7466H53.5313C55.1319 74.7466 55.956 75.23 55.956 76.5627C55.956 78.1379 54.7516 78.2806 53.5313 78.2806H53.151V74.7466Z" fill="#002F62"/>
<path d="M62.7698 71.3125H62.8016L64.1168 75.6404H61.4228L62.7698 71.3125ZM58.5703 79.458H60.2185L61.1059 76.6768H64.4338L65.2895 79.458H67.2546L63.8474 69.666H61.9458L58.5703 79.458Z" fill="#002F62"/>
<path d="M68.4434 69.666H70.4718L74.2593 76.932H74.291V69.666H75.8123V79.458H73.974L69.9964 71.8371H69.9647V79.458H68.4434V69.666Z" fill="#002F62"/>
<path d="M78.0469 69.666H79.9168V73.9242H79.9485L83.0863 69.666H85.0513L81.5491 74.0795L85.4158 79.458H83.1497L79.9485 74.7181H79.9168V79.458H78.0469V69.666Z" fill="#002F62"/>
<path d="M86.5898 69.666H92.3108V70.788H88.4599V73.7958H92.1205V74.9162H88.4599V78.2806H92.4374V79.458H86.5898V69.666Z" fill="#002F62"/>
<path d="M94.1172 69.666H96.1457L99.9332 76.932H99.9649V69.666H101.486V79.458H99.632L95.6544 71.8371H95.6386V79.458H94.1172V69.666Z" fill="#002F62"/>
<path d="M110.852 78.7069C110.107 79.1458 109.029 79.6133 107.682 79.6133C104.608 79.6133 103.324 77.344 103.324 74.4773C103.324 71.5962 104.243 69.5107 107.27 69.5107C109.394 69.5107 110.756 70.3617 110.756 72.2349H108.744C108.696 71.6533 108.633 70.4473 107.27 70.4473C105.273 70.4473 105.273 73.0161 105.273 74.3204C105.273 76.6768 105.717 78.6768 107.841 78.6768C108.395 78.6768 108.823 78.4787 108.982 78.2806V74.875H107.223V73.6976H110.852V78.7069Z" fill="#002F62"/>
<path d="M114.655 70.7024H115.035C116.176 70.7024 117.286 70.8023 117.286 72.3632C117.286 73.7958 116.351 74.1365 115.035 74.1365H114.655V70.7024ZM112.801 79.458H114.655V75.1713H115.241C116.699 75.1713 116.969 75.8242 117.333 77.6134L117.682 79.458H119.536L118.981 76.8606C118.744 75.726 118.553 74.7894 117.095 74.52V74.4915C117.983 74.2649 119.14 73.7387 119.14 72.2206C119.14 69.9925 117.206 69.666 115.035 69.666H112.801V79.458Z" fill="#002F62"/>
<path d="M128.062 76.1237C128.062 77.8685 127.697 79.6133 124.512 79.6133C121.359 79.6133 120.994 77.8685 120.994 76.1237V69.666H122.848V76.1237C122.848 77.6562 123.086 78.6767 124.512 78.6767C126.018 78.6767 126.208 77.6562 126.208 76.1237V69.666H128.062V76.1237Z" fill="#002F62"/>
<path d="M132.04 70.7024H132.515C133.83 70.7024 134.544 71.0003 134.544 72.3632C134.544 73.9368 133.577 74.165 132.515 74.165H132.04V70.7024ZM130.186 79.458H132.04V75.2015H132.515C134.052 75.2015 136.398 74.9733 136.398 72.3775C136.398 70.1208 134.781 69.666 132.515 69.666H130.186V79.458Z" fill="#002F62"/>
<path d="M139.55 70.7024H140.009C141.325 70.7024 142.038 71.0003 142.038 72.3632C142.038 73.9368 141.071 74.165 140.009 74.165H139.55V70.7024ZM137.68 79.458H139.55V75.2015H140.009C141.562 75.2015 143.908 74.9733 143.908 72.3775C143.908 70.1208 142.275 69.666 140.009 69.666H137.68V79.458Z" fill="#002F62"/>
<path d="M145.176 69.666H150.897V70.788H147.03V73.7958H150.691V74.9162H147.03V78.2806H151.023V79.458H145.176V69.666Z" fill="#002F62"/>
<path fill-rule="evenodd" clip-rule="evenodd" d="M98.9342 40.2001C98.9342 42.2159 97.302 43.8434 95.2894 43.8434C93.2768 43.8434 91.6445 42.2159 91.6445 40.2001C91.6445 38.1891 93.2768 36.5537 95.2894 36.5537C97.302 36.5537 98.9342 38.1891 98.9342 40.2001Z" fill="#002F62"/>
<path d="M149.614 37.3079C148.869 37.3079 146.936 37.3079 145.351 37.3079C143.433 37.3079 143.418 37.3079 142.403 39.7705L136.968 53.9569H136.952L131.738 40.4836C131.073 38.8704 130.201 37.6042 129.583 37.4124C129.377 37.3411 128.727 37.3047 128.394 37.3047C127.65 37.3047 125.336 37.3063 125.177 37.3079C125.146 37.3079 124.29 37.3253 124.132 37.3554C123.323 37.4869 122.452 38.6802 121.707 40.4757L116.541 53.9522H116.525L111.073 39.7673C110.059 37.3047 110.043 37.3047 108.142 37.3047C106.557 37.3047 104.608 37.3047 103.863 37.3047C102.342 37.3047 102.199 38.078 102.849 39.7689C103.895 42.5168 110.788 59.1913 112.135 62.7727C112.959 64.9438 113.561 65.2354 116.446 65.2354H116.493C119.377 65.2354 120.059 64.92 120.883 62.7505C121.691 60.6175 124.338 55.4006 126.746 49.0047C129.139 55.4022 131.691 60.6175 132.499 62.7505C133.323 64.92 133.988 65.2386 136.873 65.2386H136.92C139.804 65.2386 140.486 64.92 141.31 62.7505C142.673 59.1691 149.598 42.52 150.644 39.7721C151.278 38.0812 151.151 37.3079 149.614 37.3079Z" fill="#002F62"/>
<path d="M99.3772 22.4863L91.0575 22.4911C85.6694 22.4911 81.8027 24.9236 81.8027 32.5446V62.3833C81.8027 64.8427 82.6743 65.2389 86.2241 65.2389C89.7263 65.2389 90.6297 64.8427 90.6297 62.3833V34.3084C90.6297 31.0597 92.1985 31.0898 94.7975 31.0898H99.3772C101.849 31.0898 102.246 30.0787 102.246 26.5638C102.246 23.014 101.849 22.4863 99.3772 22.4863Z" fill="#002F62"/>
<path d="M77.8738 62.7754C75.7186 60.4538 72.8186 56.4841 66.3213 48.8711C66.3213 48.8711 71.8361 43.6875 76.1307 40.0331C77.5253 38.8525 77.3667 37.2915 75.3383 37.2915C74.3558 37.2915 72.1847 37.2915 70.0771 37.2915C67.5415 37.2915 67.3355 38.0665 66.0835 38.9951L59.7288 44.5258L59.7605 25.3475C59.7605 22.8864 58.9048 22.4902 55.355 22.4902C51.8369 22.4902 50.9336 22.8864 50.9336 25.3475V62.3824C50.9336 64.8419 51.7894 65.2381 55.355 65.2381C58.8572 65.2381 59.7605 64.8419 59.7605 62.3824L59.7447 53.4731L67.0502 62.7786C68.9202 65.2381 69.1421 65.2381 71.0596 65.2381C72.6443 65.2381 75.4651 65.2381 76.2099 65.2381C77.9373 65.2381 79.4427 64.4742 77.8738 62.7754Z" fill="#002F62"/>
</svg>
