<svg width="140" height="155" viewBox="0 0 140 155" fill="none" xmlns="http://www.w3.org/2000/svg">
<path fill-rule="evenodd" clip-rule="evenodd" d="M6.30712 91.7955C5.349 90.9143 4.49051 89.9631 3.74535 88.9498L118.113 154.98C117.017 154.898 115.918 154.719 114.822 154.447L6.30712 91.7955ZM6.90245 61.6174L139.512 138.179C139.444 138.596 139.363 139.005 139.272 139.408L5.98269 62.453C6.13256 62.3117 6.27759 62.1631 6.43088 62.0239C6.58418 61.8846 6.74575 61.7547 6.90587 61.6193L6.90245 61.6174ZM2.73158 66.4981L137.466 144.287C137.282 144.637 137.085 144.978 136.878 145.314L2.15005 67.529C2.33364 67.1795 2.52749 66.8358 2.73158 66.4981ZM0.238383 81.0029C0.139311 80.5038 0.0598262 80.0024 -7.69143e-05 79.4986L127.792 153.279C127.332 153.483 126.869 153.671 126.397 153.841L0.241803 81.0049L0.238383 81.0029ZM133.623 149.357C133.469 149.505 133.315 149.653 133.155 149.797C133.005 149.93 132.853 150.06 132.7 150.191L0.111144 73.6406C0.180016 73.2294 0.257693 72.8187 0.351009 72.4125L133.623 149.357ZM139.922 21.7958L139.922 23.162L106.555 3.89772L107.741 3.21597L139.922 21.7958ZM139.913 29.0791L139.912 30.4453L100.232 7.53572L101.418 6.85397L139.913 29.0791ZM139.903 36.3625L139.903 37.7287L93.9082 11.1737L95.0945 10.492L139.903 36.3625ZM139.894 43.6458L139.893 45.012L87.5849 14.8117L88.7711 14.13L139.894 43.6458ZM139.885 50.9291L139.884 52.2954L81.2615 18.4497L82.4478 17.768L139.885 50.9291ZM139.875 58.2125L139.874 59.5787L74.9382 22.0878L76.1244 21.406L139.875 58.2125ZM139.866 65.4958L139.865 66.8621L68.6148 25.7258L69.8011 25.044L139.866 65.4958ZM139.856 72.7792L139.856 74.1454L62.2915 29.3638L63.4778 28.682L139.856 72.7792ZM139.847 80.0625L139.846 81.4288L55.9681 33.0018L57.1544 32.32L139.85 80.0645L139.847 80.0625ZM139.837 87.3459L139.837 88.7121L49.6448 36.6398L50.8311 35.958L139.841 87.3479L139.837 87.3459ZM139.828 94.6292L139.827 95.9955L43.3214 40.2778L44.5077 39.596L139.831 94.6312L139.828 94.6292ZM139.819 101.913L139.818 103.279L36.9981 43.9158L38.1844 43.234L139.822 101.915L139.819 101.913ZM139.809 109.196L139.808 110.562L30.6747 47.5538L31.861 46.872L139.813 109.198L139.809 109.196ZM139.8 116.479L139.799 117.846L24.3514 51.1918L25.5377 50.51L139.803 116.481L139.8 116.479ZM11.7013 58.4658L12.8876 57.7841L139.781 131.046L139.78 132.412L11.7047 58.4678L11.7013 58.4658ZM139.79 123.763L139.79 125.129L18.0281 54.8298L19.2143 54.148L139.794 123.765L139.79 123.763ZM113.247 0.472755C113.76 0.294963 114.277 0.133328 114.796 9.2877e-05L139.18 14.0784C139.324 14.5944 139.443 15.1229 139.545 15.6558L113.251 0.474723L113.247 0.472755ZM125.423 0.213796C128.495 1.1264 131.326 2.76508 133.657 4.96773L125.423 0.213796Z" fill="#B4E7FB"/>
</svg>
