<svg width="100" height="577" viewBox="0 0 100 577" fill="none" xmlns="http://www.w3.org/2000/svg">
<path fill-rule="evenodd" clip-rule="evenodd" d="M511.443 43.601L465.769 17.231L465.776 20.6991L513.329 48.1541C515.384 53.6357 516.821 59.4656 517.542 65.5974L465.797 35.7224L465.804 39.1905L517.904 69.2705C518.031 71.1105 518.103 72.9652 518.089 74.8505L518.064 84.3738L465.825 54.2138L465.832 57.6819L518.053 87.8319L518.005 102.815L465.844 72.7002L465.851 76.1683L517.995 106.273L517.947 121.257L466.816 91.7366C467.076 93.0873 467.376 94.427 467.741 95.7347L517.945 124.72L516.87 485.521L452.317 448.251L453.468 74.6769C453.491 67.0574 445.274 62.2901 438.688 66.0972L69.0787 279.839C68.4433 280.199 67.8708 280.631 67.3553 281.084C62.5383 285.427 63.0863 293.538 69.0223 296.976L437.316 509.773C439.888 511.258 442.701 511.427 445.194 510.649L503.451 544.284C502.192 546.085 500.864 547.825 499.46 549.497L383.049 482.287L383.052 484.021L498.467 550.656C496.986 552.341 495.442 553.955 493.827 555.493L383.053 491.538L383.057 493.272L492.687 556.567C492.545 556.693 492.416 556.838 492.274 556.964C490.692 558.383 489.056 559.737 487.371 561.015L383.067 500.795L383.07 502.529L486.058 561.989C484.091 563.417 482.053 564.746 479.954 565.982L383.063 510.042L383.066 511.776L478.459 566.851C476.179 568.121 473.829 569.27 471.428 570.309L383.076 519.299L383.08 521.033L469.691 571.038C467.001 572.118 464.262 573.042 461.465 573.806L383.09 528.556L383.093 530.29L459.399 574.345C456.107 575.146 452.739 575.719 449.345 576.058L383.094 537.808L383.098 539.542L446.716 576.272C442.182 576.564 437.589 576.441 432.982 575.86L383.099 547.06L383.102 548.794L428.872 575.219C420.749 573.728 412.645 570.804 404.861 566.287L37.0495 352.695C-7.75427 326.677 -11.8887 265.458 24.4633 232.695C28.3376 229.204 32.6719 226.037 37.4571 223.269L406.544 10.092C427.837 -2.20936 451.37 -2.62923 471.309 5.39536L489.773 16.0553C498.95 23.2593 506.493 32.6141 511.479 43.5987L511.443 43.601ZM481.688 118.798C487.585 124.385 494.769 128.521 502.559 130.848L481.688 118.798ZM446.919 509.901C447.627 509.514 448.308 509.075 448.909 508.533C449.984 507.572 450.836 506.355 451.417 504.97L507.7 537.465C506.653 539.378 505.534 541.237 504.332 543.037L446.932 509.897L446.919 509.901ZM516.705 505.667C516.574 508.074 516.315 510.442 515.97 512.76L452.231 475.96L452.255 468.457L516.705 505.667ZM515.731 514.354C515.344 516.625 514.857 518.849 514.269 521.027L452.201 485.192L452.226 477.689L515.731 514.354ZM513.857 522.521C513.239 524.67 512.527 526.764 511.736 528.814L452.18 494.429L452.204 486.926L513.865 522.526L513.857 522.521ZM508.415 536.146L451.881 503.506C452.051 502.772 452.159 502.003 452.163 501.197L452.174 496.158L511.159 530.213C510.325 532.237 509.409 534.225 508.407 536.141L508.415 536.146ZM452.266 466.719L452.29 459.217L516.844 496.487L516.827 501.615C516.825 502.399 516.783 503.172 516.759 503.954L452.266 466.719ZM516.849 494.758L452.296 457.488L452.32 449.985L516.874 487.255L516.849 494.758Z" fill="#02AEF0"/>
</svg>
