<svg width="99" height="130" viewBox="0 0 99 130" fill="none" xmlns="http://www.w3.org/2000/svg">
<mask id="path-1-inside-1_1209_9462" fill="white">
<path d="M3.30005 129.038C-7.21996 132.448 -18.74 124.728 -18.76 113.018L-18.9999 16.8883C-19.0199 9.03828 -13.87 2.95827 -7.28998 0.828278C-3.00998 -0.561722 1.87006 -0.281738 6.32006 2.27827L89.9901 50.2583C101.27 56.7283 101.3 72.9183 90.05 79.4183L6.62005 127.568C5.54005 128.188 4.43006 128.688 3.31005 129.048"/>
</mask>
<path d="M-18.76 113.018L1.23999 112.968L1.24001 112.976L1.24002 112.984L-18.76 113.018ZM-18.9999 16.8883L0.999992 16.8373L0.999996 16.8384L-18.9999 16.8883ZM-7.28998 0.828278L-1.11228 19.8503L-1.12139 19.8532L-1.1305 19.8562L-7.28998 0.828278ZM6.32006 2.27827L-3.62906 19.6281L-3.64104 19.6212L-3.65302 19.6143L6.32006 2.27827ZM89.9901 50.2583L99.9392 32.9085L99.941 32.9095L89.9901 50.2583ZM90.05 79.4183L100.056 96.7356L100.047 96.7404L90.05 79.4183ZM6.62005 127.568L16.6172 144.89L16.5973 144.902L16.5774 144.913L6.62005 127.568ZM3.30005 129.038L9.46704 148.064C-13.4211 155.483 -38.7158 138.89 -38.7599 113.052L-18.76 113.018L1.24002 112.984C1.23931 112.57 1.12122 112.009 0.827084 111.462C0.554052 110.955 0.206902 110.6 -0.12196 110.367C-0.717905 109.946 -1.72546 109.643 -2.86695 110.013L3.30005 129.038ZM-18.76 113.018L-38.7599 113.068L-38.9999 16.9382L-18.9999 16.8883L0.999996 16.8384L1.23999 112.968L-18.76 113.018ZM-18.9999 16.8883L-38.9999 16.9392C-39.0439 -0.356766 -27.5572 -13.6328 -13.4495 -18.1996L-7.28998 0.828278L-1.1305 19.8562C-0.610504 19.6878 -0.11479 19.364 0.291672 18.8302C0.763746 18.2103 1.00154 17.4426 0.999992 16.8373L-18.9999 16.8883ZM-7.28998 0.828278L-13.4677 -18.1937C-4.10903 -21.2331 6.67229 -20.5925 16.2931 -15.0578L6.32006 2.27827L-3.65302 19.6143C-3.37327 19.7752 -2.93717 19.9359 -2.41182 19.9851C-1.91326 20.0317 -1.46974 19.9664 -1.11228 19.8503L-7.28998 0.828278ZM6.32006 2.27827L16.2692 -15.0715L99.9392 32.9085L89.9901 50.2583L80.0409 67.6081L-3.62906 19.6281L6.32006 2.27827ZM89.9901 50.2583L99.941 32.9095C124.576 47.04 124.675 82.5112 100.056 96.7356L90.05 79.4183L80.0445 62.101C77.9254 63.3253 77.9636 66.4166 80.0391 67.607L89.9901 50.2583ZM90.05 79.4183L100.047 96.7404L16.6172 144.89L6.62005 127.568L-3.37709 110.246L80.0529 62.0961L90.05 79.4183ZM6.62005 127.568L16.5774 144.913C14.4027 146.162 12.0121 147.259 9.43024 148.089L3.31005 129.048L-2.81013 110.008C-3.15203 110.118 -3.32258 110.215 -3.3373 110.223L6.62005 127.568Z" fill="#C7B3E1" mask="url(#path-1-inside-1_1209_9462)"/>
</svg>
