<svg width="176" height="105" viewBox="0 0 176 105" fill="none" xmlns="http://www.w3.org/2000/svg">
<path d="M2.68359 84.3486V71.8574H4.21121V77.4347H10.8772V71.8574H12.4048V84.3486H10.8772V78.7714H4.16492V84.3486H2.68359Z" fill="#386794"/>
<path d="M15.137 73.4261C14.8592 73.4261 14.6278 73.3339 14.3963 73.1496C14.2111 72.9652 14.0723 72.7347 14.0723 72.4582C14.0723 72.1816 14.1648 71.9512 14.3963 71.7668C14.5815 71.5824 14.8592 71.4902 15.137 71.4902C15.4147 71.4902 15.6462 71.5824 15.8776 71.7668C16.0628 71.9512 16.2017 72.1816 16.2017 72.4582C16.2017 72.7347 16.1091 72.9652 15.8776 73.1496C15.6462 73.3339 15.4147 73.4261 15.137 73.4261ZM14.3963 84.3502V74.9933H15.8313V84.3502H14.3963Z" fill="#386794"/>
<path d="M19.1186 74.9463V84.3031H17.6836V74.9463H19.1186ZM22.8219 82.3672L26.1086 74.9463H27.4511L23.3774 84.3031H22.2202L18.2391 74.9463H19.5815L22.8219 82.3672ZM26.5253 84.3492V74.9924H27.9603V84.3492H26.5253Z" fill="#386794"/>
<path d="M33.7453 84.5352C32.8195 84.5352 32.0789 84.3509 31.3845 83.936C30.7364 83.5212 30.2272 82.9681 29.8569 82.2306C29.4865 81.4931 29.3477 80.6634 29.3477 79.6955C29.3477 78.7275 29.5328 77.8978 29.8569 77.1604C30.2272 76.4229 30.6901 75.8698 31.3382 75.4549C31.9863 75.0401 32.7269 74.8557 33.5602 74.8557C34.0694 74.8557 34.5323 74.9479 34.9952 75.0862C35.4581 75.2705 35.921 75.501 36.2914 75.8698C36.6617 76.2385 36.9858 76.6994 37.2172 77.2986C37.4487 77.8978 37.5875 78.6353 37.5875 79.5111V80.1103H30.3198V78.8658H36.8006L36.1525 79.3267C36.1525 78.6814 36.0599 78.1283 35.8748 77.6674C35.6896 77.1604 35.3656 76.7916 34.9952 76.5151C34.6249 76.2385 34.1157 76.1002 33.5602 76.1002C33.0047 76.1002 32.4955 76.2385 32.0789 76.5151C31.6622 76.7916 31.3382 77.1604 31.153 77.6213C30.9216 78.0822 30.829 78.5432 30.829 79.0963V79.9259C30.829 80.6173 30.9679 81.2165 31.1993 81.7236C31.4308 82.2306 31.8011 82.5993 32.2177 82.8298C32.6806 83.1063 33.1899 83.1985 33.7453 83.1985C34.1157 83.1985 34.486 83.1524 34.7638 83.0142C35.0878 82.922 35.3193 82.7376 35.5507 82.5071C35.7822 82.2767 35.9673 82.0001 36.0599 81.6775L37.4487 82.0923C37.3098 82.5532 37.0783 82.9681 36.708 83.3368C36.3377 83.7056 35.921 83.9821 35.4118 84.1665C34.9489 84.443 34.3471 84.5352 33.7453 84.5352Z" fill="#386794"/>
<path d="M46.3832 74.9463V84.3032H38.9766V74.9463H40.4116V82.9665H44.9019V74.9463H46.3832ZM47.6794 82.9665V87.2992H46.2443V82.9665H47.6794Z" fill="#386794"/>
<path d="M50.1333 78.3578H52.8182C53.9292 78.3578 54.7624 78.6344 55.3642 79.1875C55.966 79.7406 56.2437 80.432 56.2437 81.3078C56.2437 81.8609 56.1049 82.3679 55.8734 82.8288C55.5957 83.2898 55.2253 83.6585 54.7161 83.9351C54.2069 84.2116 53.6051 84.3499 52.8645 84.3499H48.9297V74.993H50.3647V83.0132H52.8645C53.42 83.0132 53.8829 82.8749 54.2532 82.5523C54.6235 82.2757 54.8087 81.8609 54.8087 81.4C54.8087 80.8929 54.6235 80.4781 54.2532 80.2015C53.8829 79.8789 53.42 79.7406 52.8645 79.7406H50.1796L50.1333 78.3578Z" fill="#386794"/>
<path d="M57.5859 84.3499V74.993H59.021V79.0492H59.9931L63.3724 74.993H65.224L61.4281 79.5102L65.2703 84.3499H63.4187L60.3171 80.3859H59.021V84.3499H57.5859Z" fill="#386794"/>
<path d="M69.4346 84.5352C68.6014 84.5352 67.8607 84.3509 67.2126 83.936C66.5645 83.5212 66.0553 82.9681 65.7313 82.2306C65.3609 81.4931 65.1758 80.6634 65.1758 79.6955C65.1758 78.7275 65.3609 77.8518 65.7313 77.1604C66.1016 76.4229 66.5645 75.8698 67.2126 75.4549C67.8607 75.0401 68.6014 74.8557 69.4346 74.8557C70.2678 74.8557 71.0548 75.0401 71.6566 75.4549C72.2584 75.8698 72.8139 76.4229 73.1379 77.1604C73.5083 77.8978 73.6934 78.7275 73.6934 79.6955C73.6934 80.6634 73.5083 81.4931 73.1379 82.2306C72.7676 82.9681 72.2584 83.5212 71.6566 83.936C71.0548 84.3509 70.3141 84.5352 69.4346 84.5352ZM69.4346 83.2446C70.0827 83.2446 70.6382 83.0603 71.0548 82.7376C71.4714 82.415 71.7955 81.954 71.9806 81.447C72.1658 80.8939 72.3047 80.3408 72.3047 79.6955C72.3047 79.0502 72.2121 78.4971 71.9806 77.9439C71.7955 77.3908 71.4714 76.976 71.0548 76.6533C70.6382 76.3307 70.129 76.1463 69.4346 76.1463C68.7865 76.1463 68.2773 76.3307 67.8607 76.6533C67.4441 76.976 67.12 77.4369 66.9349 77.9439C66.7497 78.4971 66.6108 79.0502 66.6108 79.6955C66.6108 80.2947 66.7034 80.8939 66.9349 81.447C67.12 82.0001 67.4441 82.415 67.8607 82.7376C68.2773 83.0603 68.7865 83.2446 69.4346 83.2446Z" fill="#386794"/>
<path d="M80.4995 78.3115V79.6482H75.0371V78.3115H80.4995Z" fill="#386794"/>
<path d="M83.1372 87.8062C82.9057 87.8062 82.6743 87.8062 82.4891 87.7601C82.3039 87.714 82.1651 87.6679 82.0725 87.6218L82.4428 86.3773L82.5817 86.4234C83.0446 86.5156 83.4612 86.5156 83.7853 86.3312C84.1093 86.193 84.3871 85.732 84.6648 85.0867L84.9426 84.3492L81.4707 74.9463H83.0446L85.6369 82.4133H85.7295L88.3218 74.9463H89.8958L85.9147 85.6859C85.7295 86.193 85.4981 86.5617 85.2666 86.8844C85.0351 87.207 84.7111 87.4375 84.3408 87.5758C83.9704 87.7601 83.5538 87.8062 83.1372 87.8062Z" fill="#386794"/>
<path d="M91.0078 84.3499V74.993H92.4428V79.0492H93.415L96.7943 74.993H98.6459L94.85 79.5102L98.6922 84.3499H96.8405L93.739 80.3859H92.4428V84.3499H91.0078Z" fill="#386794"/>
<path d="M99.4336 87.806V74.9461H100.822V76.4211H101.008C101.1 76.2367 101.285 76.0523 101.47 75.7758C101.656 75.4992 101.933 75.3148 102.304 75.0844C102.674 74.9 103.137 74.7617 103.739 74.7617C104.526 74.7617 105.22 74.9461 105.822 75.3609C106.424 75.7758 106.887 76.3289 107.211 77.0203C107.535 77.7578 107.72 78.5874 107.72 79.6015C107.72 80.5694 107.535 81.4452 107.211 82.1827C106.887 82.9202 106.424 83.4733 105.822 83.8881C105.22 84.303 104.526 84.4873 103.739 84.4873C103.137 84.4873 102.674 84.3951 102.304 84.1647C101.933 83.9803 101.656 83.7498 101.47 83.4733C101.285 83.1967 101.1 83.0124 101.008 82.828H100.869V87.7599L99.4336 87.806ZM103.507 83.2428C104.109 83.2428 104.618 83.1045 105.035 82.7819C105.451 82.4592 105.729 82.0444 105.961 81.4913C106.192 80.9382 106.285 80.339 106.285 79.6937C106.285 79.0484 106.192 78.4492 105.961 77.896C105.776 77.3429 105.451 76.9281 105.035 76.6515C104.618 76.3289 104.109 76.1906 103.507 76.1906C102.905 76.1906 102.443 76.3289 102.026 76.6515C101.609 76.9281 101.332 77.3429 101.1 77.896C100.869 78.4492 100.776 79.0484 100.776 79.7398C100.776 80.4312 100.869 81.0765 101.1 81.5835C101.332 82.0905 101.609 82.5514 102.026 82.828C102.443 83.1045 102.952 83.2428 103.507 83.2428Z" fill="#386794"/>
<path d="M111.841 84.5352C111.239 84.5352 110.683 84.443 110.22 84.2126C109.757 83.9821 109.341 83.6595 109.063 83.2446C108.785 82.8298 108.646 82.2767 108.646 81.6775C108.646 81.1244 108.739 80.7095 108.971 80.3869C109.202 80.0642 109.48 79.7877 109.804 79.6033C110.128 79.4189 110.544 79.2806 110.961 79.1885C111.378 79.0963 111.841 79.0041 112.257 78.958C112.813 78.8658 113.276 78.8197 113.646 78.7736C114.016 78.7275 114.248 78.6814 114.433 78.5892C114.618 78.4971 114.664 78.3127 114.664 78.0822V78.0361C114.664 77.4369 114.479 76.976 114.155 76.6533C113.831 76.3307 113.322 76.1463 112.674 76.1463C111.979 76.1463 111.47 76.2846 111.054 76.6072C110.683 76.8838 110.406 77.2065 110.22 77.5752L108.832 77.0682C109.063 76.5151 109.387 76.0541 109.804 75.7315C110.22 75.4088 110.683 75.1784 111.146 75.0401C111.609 74.9018 112.118 74.8557 112.581 74.8557C112.905 74.8557 113.229 74.9018 113.646 74.9479C114.016 75.0401 114.433 75.1784 114.803 75.3627C115.174 75.5932 115.498 75.9159 115.729 76.3768C115.961 76.8377 116.099 77.3908 116.099 78.1744V84.3509H114.711V83.0603H114.664C114.572 83.2446 114.387 83.4751 114.155 83.7056C113.924 83.936 113.6 84.1204 113.229 84.3048C112.859 84.443 112.396 84.5352 111.841 84.5352ZM112.072 83.2446C112.628 83.2446 113.137 83.1524 113.507 82.922C113.877 82.6915 114.201 82.415 114.387 82.0462C114.572 81.6775 114.711 81.3087 114.711 80.94V79.6033C114.664 79.6955 114.526 79.7416 114.294 79.7877C114.109 79.8338 113.831 79.8798 113.6 79.9259C113.322 79.972 113.09 80.0181 112.813 80.0181C112.535 80.0181 112.35 80.0642 112.211 80.1103C111.841 80.1564 111.47 80.2486 111.146 80.3408C110.822 80.433 110.544 80.6173 110.359 80.8017C110.174 80.9861 110.082 81.3087 110.082 81.6775C110.082 82.1845 110.267 82.5532 110.637 82.7837C111.007 83.0142 111.47 83.2446 112.072 83.2446Z" fill="#386794"/>
<path d="M116.978 73.4261C116.7 73.4261 116.469 73.3339 116.284 73.1496C116.098 72.9652 116.006 72.7347 116.006 72.4582C116.006 72.1816 116.098 71.9512 116.284 71.7668C116.469 71.5824 116.7 71.4902 116.978 71.4902C117.256 71.4902 117.487 71.5824 117.672 71.7668C117.858 71.9512 117.95 72.1816 117.95 72.4582C117.95 72.7347 117.858 72.9652 117.672 73.1496C117.487 73.3339 117.256 73.4261 116.978 73.4261ZM117.996 84.3502V74.9933H119.431V84.3502H117.996ZM120.496 73.4261C120.218 73.4261 120.033 73.3339 119.802 73.1496C119.57 72.9652 119.524 72.7347 119.524 72.4582C119.524 72.1816 119.617 71.9512 119.802 71.7668C119.987 71.5824 120.218 71.4902 120.496 71.4902C120.774 71.4902 121.005 71.5824 121.19 71.7668C121.376 71.9512 121.468 72.1816 121.468 72.4582C121.468 72.7347 121.376 72.9652 121.19 73.1496C121.005 73.3339 120.774 73.4261 120.496 73.4261Z" fill="#386794"/>
<path d="M122.718 74.9463V84.3032H121.283V74.9463H122.718ZM127.579 79.0025V80.3392H122.394V79.0025H127.579ZM128.69 74.9463V84.3032H127.209V74.9463H128.69Z" fill="#386794"/>
<path d="M134.337 84.5352C133.457 84.5352 132.717 84.3048 132.069 83.8899C131.421 83.4751 130.958 82.922 130.587 82.1845C130.263 81.447 130.078 80.6173 130.078 79.6955C130.078 78.7275 130.263 77.8978 130.587 77.1604C130.958 76.4229 131.421 75.8698 132.069 75.4549C132.717 75.0401 133.457 74.8557 134.291 74.8557C134.939 74.8557 135.541 74.994 136.096 75.2245C136.605 75.4549 137.068 75.8237 137.392 76.2385C137.716 76.6994 137.948 77.2065 138.04 77.7596H136.605C136.513 77.483 136.42 77.2065 136.189 76.976C136.003 76.7455 135.726 76.5151 135.448 76.3768C135.124 76.2385 134.754 76.1463 134.337 76.1463C133.781 76.1463 133.272 76.2846 132.856 76.5612C132.439 76.8377 132.115 77.2525 131.883 77.8057C131.652 78.3588 131.513 78.958 131.513 79.6494C131.513 80.3869 131.606 80.9861 131.837 81.5392C132.069 82.0923 132.393 82.5071 132.809 82.7837C133.226 83.0603 133.735 83.2446 134.291 83.2446C134.846 83.2446 135.355 83.1064 135.726 82.7837C136.142 82.5071 136.374 82.0923 136.513 81.5853H137.948C137.855 82.1384 137.67 82.6454 137.346 83.0603C137.022 83.5212 136.605 83.8438 136.096 84.1204C135.587 84.397 135.031 84.5352 134.337 84.5352Z" fill="#386794"/>
<path d="M140.633 78.3578H143.318C144.429 78.3578 145.262 78.6344 145.864 79.1875C146.466 79.7406 146.744 80.432 146.744 81.3078C146.744 81.8609 146.605 82.3679 146.373 82.8288C146.142 83.2898 145.725 83.6585 145.216 83.9351C144.707 84.2116 144.105 84.3499 143.364 84.3499H139.43V74.993H140.865V83.0132H143.364C143.92 83.0132 144.383 82.8749 144.753 82.5523C145.124 82.2757 145.309 81.8609 145.309 81.4C145.309 80.8929 145.124 80.4781 144.753 80.2015C144.383 79.8789 143.92 79.7406 143.364 79.7406H140.633V78.3578Z" fill="#386794"/>
<path d="M148.133 84.3499V74.993H149.568V79.0492H150.54L153.919 74.993H155.771L151.975 79.5102L155.817 84.3499H153.966L150.864 80.3859H149.568V84.3499H148.133Z" fill="#386794"/>
<path d="M157.99 82.1829L162.527 74.9463H164.193V84.3031H162.758V77.1127L158.268 84.3492H156.602V74.9924H158.037L157.99 82.1829Z" fill="#386794"/>
<path d="M167.436 82.1836L171.972 74.947H173.639V84.3039H172.204V77.1134L167.713 84.35H166.047V74.9931H167.482L167.436 82.1836ZM169.796 73.8408C169.056 73.8408 168.454 73.6103 167.945 73.1955C167.482 72.7806 167.25 72.2275 167.25 71.5361H168.593C168.593 71.9049 168.685 72.1814 168.917 72.4119C169.148 72.6424 169.426 72.7346 169.796 72.7346C170.167 72.7346 170.445 72.6424 170.676 72.4119C170.907 72.1814 171 71.9049 171 71.5361H172.343C172.343 72.2275 172.111 72.7806 171.648 73.1955C171.185 73.6564 170.583 73.8408 169.796 73.8408Z" fill="#386794"/>
<path d="M5.22927 101.682C4.62748 101.682 4.07198 101.59 3.60907 101.36C3.09986 101.129 2.72953 100.807 2.45178 100.392C2.17403 99.977 2.03516 99.4239 2.03516 98.8247C2.03516 98.2716 2.12774 97.8567 2.3592 97.5341C2.59065 97.2114 2.8684 96.9349 3.19244 96.7505C3.56278 96.5661 3.93311 96.4278 4.34973 96.3357C4.76635 96.2435 5.22927 96.1513 5.64589 96.1052C6.20139 96.013 6.66431 95.9669 7.03464 95.9208C7.40497 95.8747 7.63643 95.8286 7.82159 95.7365C8.00676 95.6443 8.05305 95.4599 8.05305 95.2294V95.1833C8.05305 94.5841 7.86789 94.1232 7.54385 93.8006C7.2198 93.4779 6.7106 93.2935 6.06252 93.2935C5.36814 93.2935 4.85894 93.4318 4.44231 93.7545C4.07198 94.031 3.79423 94.3537 3.60907 94.7224L2.22032 94.2154C2.45178 93.6623 2.77582 93.2013 3.19244 92.8787C3.60907 92.556 4.07198 92.3256 4.5349 92.1873C4.99781 92.049 5.50702 92.0029 5.96993 92.0029C6.29397 92.0029 6.61801 92.049 7.03464 92.0951C7.45126 92.1412 7.82159 92.3256 8.19193 92.5099C8.56226 92.6943 8.8863 93.0631 9.11776 93.524C9.34921 93.9849 9.48809 94.538 9.48809 95.3216V101.498H8.05305V100.207H8.00676C7.91418 100.392 7.72901 100.622 7.49755 100.853C7.2661 101.083 6.94206 101.268 6.57172 101.452C6.20139 101.636 5.78477 101.682 5.22927 101.682ZM5.46073 100.392C6.01623 100.392 6.52543 100.3 6.89576 100.069C7.2661 99.8387 7.59014 99.5622 7.7753 99.1934C7.96047 98.8247 8.09934 98.4559 8.09934 98.0872V96.7505C8.05305 96.8427 7.91418 96.8888 7.68272 96.9349C7.49755 96.981 7.2198 97.0271 6.98835 97.0732C6.75689 97.1192 6.47914 97.1653 6.20139 97.1653C5.92364 97.1653 5.73848 97.2114 5.5996 97.2575C5.22927 97.3036 4.85894 97.3958 4.5349 97.488C4.21086 97.5802 3.93311 97.7645 3.74794 97.9489C3.56278 98.1794 3.47019 98.4559 3.47019 98.8247C3.47019 99.3317 3.65536 99.7004 4.02569 99.9309C4.39602 100.3 4.85894 100.392 5.46073 100.392Z" fill="#386794"/>
<path d="M17.1732 92.1399V93.4766H12.8218V101.497H11.3867V92.1399H17.1732Z" fill="#386794"/>
<path d="M18.5156 105V92.1404H19.9044V93.6154H20.0895C20.1821 93.431 20.3673 93.2467 20.5525 92.9701C20.7376 92.6935 21.0154 92.5092 21.3857 92.2787C21.756 92.0943 22.2189 91.9561 22.8207 91.9561C23.6077 91.9561 24.3021 92.1404 24.9039 92.5553C25.5056 92.9701 25.9686 93.5232 26.2926 94.2146C26.6166 94.906 26.8018 95.7818 26.8018 96.7497C26.8018 97.7177 26.6166 98.5934 26.2926 99.3309C25.9686 100.068 25.5056 100.622 24.9039 101.036C24.3021 101.451 23.6077 101.636 22.8207 101.636C22.2189 101.636 21.756 101.543 21.3857 101.313C21.0154 101.129 20.7376 100.898 20.5525 100.622C20.3673 100.345 20.1821 100.161 20.0895 99.9762H19.9507V104.908H18.5156V105ZM22.5893 100.391C23.1911 100.391 23.7003 100.253 24.1169 99.9301C24.5335 99.6075 24.8113 99.1926 25.0427 98.6395C25.2742 98.0864 25.3668 97.4872 25.3668 96.8419C25.3668 96.1966 25.2742 95.5974 25.0427 95.0443C24.8576 94.4912 24.5335 94.0763 24.1169 93.7998C23.7003 93.4771 23.1911 93.3388 22.5893 93.3388C21.9875 93.3388 21.5246 93.4771 21.1079 93.7998C20.6913 94.0763 20.4136 94.4912 20.1821 95.0443C19.9507 95.5974 19.8581 96.1966 19.8581 96.888C19.8581 97.5794 19.9507 98.2247 20.1821 98.7317C20.3673 99.2848 20.6913 99.6997 21.1079 99.9762C21.5246 100.253 22.0338 100.391 22.5893 100.391Z" fill="#386794"/>
<path d="M31.9873 101.682C31.1541 101.682 30.4134 101.497 29.7653 101.082C29.1173 100.668 28.6081 100.115 28.284 99.377C27.9137 98.6395 27.7285 97.8099 27.7285 96.8419C27.7285 95.874 27.9137 94.9982 28.284 94.2607C28.6543 93.5232 29.1173 92.9701 29.7653 92.5553C30.4134 92.1404 31.1541 91.9561 31.9873 91.9561C32.8206 91.9561 33.6075 92.1404 34.2093 92.5553C34.8574 92.9701 35.3666 93.5232 35.6907 94.2607C36.061 94.9982 36.2462 95.8279 36.2462 96.8419C36.2462 97.8099 36.061 98.6395 35.6907 99.377C35.3203 100.115 34.8111 100.668 34.2093 101.082C33.5612 101.497 32.8206 101.682 31.9873 101.682ZM31.9873 100.391C32.6354 100.391 33.1909 100.207 33.6075 99.884C34.0242 99.5614 34.3482 99.1005 34.5334 98.5934C34.7185 98.0864 34.8574 97.4872 34.8574 96.8419C34.8574 96.1966 34.7648 95.6435 34.5334 95.0904C34.3019 94.5373 34.0242 94.1224 33.6075 93.7998C33.1909 93.4771 32.6817 93.2927 31.9873 93.2927C31.3393 93.2927 30.83 93.4771 30.4134 93.7998C29.9968 94.1224 29.6728 94.5834 29.4876 95.0904C29.3024 95.5974 29.1636 96.1966 29.1636 96.8419C29.1636 97.4411 29.2561 98.0403 29.4876 98.5934C29.719 99.1466 29.9968 99.5614 30.4134 99.884C30.83 100.207 31.3393 100.391 31.9873 100.391Z" fill="#386794"/>
<path d="M37.6348 101.497V92.1399H45.0414V101.497H43.6064V93.4766H39.1161V101.497H37.6348Z" fill="#386794"/>
<path d="M50.6885 101.682C49.8553 101.682 49.1146 101.497 48.4665 101.082C47.8184 100.668 47.3092 100.115 46.9852 99.377C46.6149 98.6395 46.4297 97.8099 46.4297 96.8419C46.4297 95.874 46.6149 94.9982 46.9852 94.2607C47.3555 93.5232 47.8184 92.9701 48.4665 92.5553C49.1146 92.1404 49.8553 91.9561 50.6885 91.9561C51.5218 91.9561 52.3087 92.1404 52.9105 92.5553C53.5586 92.9701 54.0678 93.5232 54.3918 94.2607C54.7622 94.9982 54.9473 95.8279 54.9473 96.8419C54.9473 97.8099 54.7622 98.6395 54.3918 99.377C54.0215 100.115 53.5123 100.668 52.9105 101.082C52.2624 101.497 51.5218 101.682 50.6885 101.682ZM50.6885 100.391C51.3366 100.391 51.8921 100.207 52.3087 99.884C52.7253 99.5614 53.0494 99.1005 53.2345 98.5934C53.4197 98.0864 53.5586 97.4872 53.5586 96.8419C53.5586 96.1966 53.466 95.6435 53.2345 95.0904C53.0031 94.5373 52.7253 94.1224 52.3087 93.7998C51.8921 93.4771 51.3829 93.2927 50.6885 93.2927C50.0404 93.2927 49.5312 93.4771 49.1146 93.7998C48.698 94.1224 48.3739 94.5834 48.1888 95.0904C48.0036 95.5974 47.8647 96.1966 47.8647 96.8419C47.8647 97.4411 47.9573 98.0403 48.1888 98.5934C48.4202 99.1466 48.698 99.5614 49.1146 99.884C49.5312 100.207 50.0404 100.391 50.6885 100.391Z" fill="#386794"/>
<path d="M55.502 101.497V100.16H55.826C56.1963 100.16 56.5204 100.068 56.7055 99.8374C56.937 99.607 57.0759 99.2382 57.1684 98.6851C57.261 98.132 57.3536 97.3484 57.3999 96.2883L57.5851 92.1399H63.8344V101.497H62.3994V93.4766H58.9738L58.8349 96.8414C58.7886 97.625 58.7424 98.2703 58.6498 98.8695C58.5572 99.4687 58.372 99.9296 58.1869 100.344C57.9554 100.759 57.6777 101.036 57.3536 101.22C57.0296 101.405 56.5667 101.497 56.0574 101.497H55.502Z" fill="#386794"/>
<path d="M66.428 90.5718C66.1502 90.5718 65.9188 90.4796 65.6873 90.2952C65.5022 90.1108 65.3633 89.8804 65.3633 89.6038C65.3633 89.3273 65.4559 89.0968 65.6873 88.9124C65.8725 88.728 66.1502 88.6359 66.428 88.6359C66.7057 88.6359 66.9372 88.728 67.1687 88.9124C67.3538 89.0968 67.4927 89.3273 67.4927 89.6038C67.4927 89.8804 67.4001 90.1108 67.1687 90.2952C66.9372 90.4796 66.7057 90.5718 66.428 90.5718ZM65.6873 101.496V92.1389H67.1224V101.496H65.6873Z" fill="#386794"/>
<path d="M68.418 93.4766V92.1399H76.0561V93.4766H73.0008V101.497H71.5658V93.4766H68.418Z" fill="#386794"/>
<path d="M78.7872 99.3294L83.3238 92.0928H84.9902V101.45H83.5552V94.213L79.0649 101.45H77.3984V92.0928H78.8335V99.3294H78.7872Z" fill="#386794"/>
<path d="M93.5078 96.6109V97.9476C93.1837 98.0859 92.8597 98.1781 92.5356 98.2703C92.2116 98.3624 91.8876 98.4546 91.5172 98.5007C91.1469 98.5468 90.7766 98.5929 90.3599 98.5929C89.2952 98.5929 88.462 98.3163 87.8139 97.7171C87.1658 97.164 86.8418 96.2883 86.8418 95.1359V92.1399H88.2768V95.1359C88.2768 95.5969 88.3694 96.0117 88.5546 96.3344C88.7397 96.657 88.9712 96.8875 89.2952 97.0257C89.6193 97.164 89.9433 97.2562 90.3599 97.2562C90.9617 97.2562 91.5172 97.2101 92.0264 97.0718C92.5357 96.9336 92.9986 96.7492 93.5078 96.6109ZM94.0633 92.1399V101.497H92.6282V92.1399H94.0633Z" fill="#386794"/>
<path d="M97.3511 92.1399V101.497H95.916V92.1399H97.3511ZM102.212 96.15V97.4867H97.027V96.15H102.212ZM103.323 92.1399V101.497H101.888V92.1399H103.323Z" fill="#386794"/>
<path d="M106.561 99.3294L111.097 92.0928H112.764V101.45H111.329V94.213L106.838 101.45H105.172V92.0928H106.607L106.561 99.3294Z" fill="#386794"/>
<path d="M116.051 99.3301L120.587 92.0935H122.254V101.45H120.819V94.2138L116.329 101.45H114.662V92.0935H116.097L116.051 99.3301ZM118.412 90.9873C117.671 90.9873 117.069 90.7568 116.56 90.342C116.097 89.9271 115.866 89.374 115.866 88.6826H117.208C117.208 89.0514 117.301 89.3279 117.532 89.5584C117.764 89.7889 118.041 89.881 118.412 89.881C118.782 89.881 119.06 89.7889 119.291 89.5584C119.523 89.3279 119.615 89.0514 119.615 88.6826H120.958C120.958 89.374 120.726 89.9271 120.263 90.342C119.8 90.8029 119.199 90.9873 118.412 90.9873Z" fill="#386794"/>
<path d="M127.113 104.17V100.16H127.9C128.085 99.9757 128.271 99.7452 128.409 99.5148C128.548 99.2843 128.687 99.0077 128.78 98.6851C128.872 98.3624 128.965 97.9937 129.058 97.5328C129.15 97.0718 129.196 96.5187 129.243 95.8734L129.567 92.1399H135.538V100.16H136.973V104.17H135.538V101.497H128.595V104.17H127.113ZM129.52 100.16H134.057V93.4766H130.909L130.678 95.8734C130.585 96.8414 130.446 97.7171 130.307 98.4546C130.169 99.1921 129.891 99.6991 129.52 100.16Z" fill="#386794"/>
<path d="M138.781 90.5718C138.504 90.5718 138.272 90.4796 138.041 90.2952C137.856 90.1108 137.717 89.8804 137.717 89.6038C137.717 89.3273 137.809 89.0968 138.041 88.9124C138.226 88.728 138.504 88.6359 138.781 88.6359C139.059 88.6359 139.291 88.728 139.522 88.9124C139.707 89.0968 139.846 89.3273 139.846 89.6038C139.846 89.8804 139.754 90.1108 139.522 90.2952C139.337 90.4796 139.059 90.5718 138.781 90.5718ZM138.087 101.496V92.1389H139.522V101.496H138.087Z" fill="#386794"/>
<path d="M144.104 101.682C143.502 101.682 142.947 101.59 142.484 101.36C141.975 101.129 141.605 100.807 141.327 100.392C141.049 99.977 140.91 99.4239 140.91 98.8247C140.91 98.2716 141.003 97.8567 141.234 97.5341C141.466 97.2114 141.743 96.9349 142.067 96.7505C142.391 96.5661 142.808 96.4278 143.225 96.3357C143.641 96.2435 144.104 96.1513 144.521 96.1052C145.076 96.013 145.539 95.9669 145.91 95.9208C146.28 95.8747 146.511 95.8286 146.697 95.7365C146.882 95.6443 146.928 95.4599 146.928 95.2294V95.1833C146.928 94.5841 146.743 94.1232 146.419 93.8006C146.095 93.4779 145.586 93.2935 144.938 93.2935C144.243 93.2935 143.734 93.4318 143.317 93.7545C142.947 94.031 142.669 94.3537 142.484 94.7224L141.095 94.2154C141.327 93.6623 141.651 93.2013 142.067 92.8787C142.484 92.556 142.947 92.3256 143.41 92.1873C143.873 92.049 144.382 92.0029 144.845 92.0029C145.169 92.0029 145.493 92.049 145.91 92.0951C146.28 92.1873 146.697 92.3256 147.067 92.5099C147.437 92.7404 147.761 93.0631 147.993 93.524C148.224 93.9849 148.363 94.538 148.363 95.3216V101.498H146.928V100.207H146.882C146.789 100.392 146.604 100.622 146.373 100.853C146.141 101.083 145.817 101.268 145.447 101.452C145.123 101.636 144.66 101.682 144.104 101.682ZM144.336 100.392C144.891 100.392 145.4 100.3 145.771 100.069C146.141 99.8387 146.465 99.5622 146.65 99.1934C146.835 98.8247 146.974 98.4559 146.974 98.0872V96.7505C146.928 96.8427 146.789 96.8888 146.558 96.9349C146.373 96.981 146.095 97.0271 145.863 97.0732C145.586 97.1192 145.354 97.1653 145.076 97.1653C144.799 97.1653 144.613 97.2114 144.475 97.2575C144.104 97.3036 143.734 97.3958 143.41 97.488C143.086 97.5802 142.808 97.7645 142.623 97.9489C142.438 98.1794 142.345 98.4559 142.345 98.8247C142.345 99.3317 142.53 99.7004 142.901 99.9309C143.271 100.3 143.734 100.392 144.336 100.392Z" fill="#386794"/>
<path d="M149.43 101.497V100.16H149.754C150.124 100.16 150.448 100.068 150.633 99.8374C150.818 99.607 151.004 99.2382 151.096 98.6851C151.189 98.132 151.281 97.3484 151.328 96.2883L151.513 92.1399H157.762V101.497H156.327V93.4766H152.902L152.763 96.8414C152.716 97.625 152.67 98.2703 152.578 98.8695C152.485 99.4687 152.3 99.9296 152.115 100.344C151.883 100.759 151.605 101.036 151.281 101.22C150.911 101.405 150.494 101.497 149.985 101.497H149.43Z" fill="#386794"/>
<path d="M163.409 101.682C162.576 101.682 161.835 101.497 161.187 101.082C160.539 100.668 160.03 100.115 159.706 99.377C159.336 98.6395 159.15 97.8099 159.15 96.8419C159.15 95.874 159.336 94.9982 159.706 94.2607C160.076 93.5232 160.539 92.9701 161.187 92.5553C161.835 92.1404 162.576 91.9561 163.409 91.9561C164.242 91.9561 165.029 92.1404 165.631 92.5553C166.233 92.9701 166.788 93.5232 167.113 94.2607C167.483 94.9982 167.668 95.8279 167.668 96.8419C167.668 97.8099 167.483 98.6395 167.113 99.377C166.742 100.115 166.233 100.668 165.631 101.082C165.029 101.497 164.289 101.682 163.409 101.682ZM163.409 100.391C164.057 100.391 164.613 100.207 165.029 99.884C165.446 99.5614 165.77 99.1005 165.955 98.5934C166.14 98.0403 166.279 97.4872 166.279 96.8419C166.279 96.1966 166.187 95.6435 165.955 95.0904C165.77 94.5373 165.446 94.1224 165.029 93.7998C164.613 93.4771 164.104 93.2927 163.409 93.2927C162.761 93.2927 162.252 93.4771 161.835 93.7998C161.419 94.1224 161.095 94.5834 160.909 95.0904C160.724 95.6435 160.585 96.1966 160.585 96.8419C160.585 97.4411 160.678 98.0403 160.909 98.5934C161.095 99.1466 161.419 99.5614 161.835 99.884C162.252 100.207 162.761 100.391 163.409 100.391Z" fill="#386794"/>
<path d="M174.89 92.1399V93.4766H170.539V101.497H169.104V92.1399H174.89Z" fill="#386794"/>
<path d="M113.415 11.5693C111.609 8.29675 108.971 5.76164 105.545 3.91792C102.12 2.0742 97.9996 1.15234 93.139 1.15234H67.9102V64.8989H81.4273V44.2492H92.815C97.7682 44.2492 101.934 43.3274 105.406 41.5298C108.878 39.7321 111.563 37.197 113.368 33.9705C115.22 30.744 116.1 27.0105 116.1 22.816C116.146 18.5755 115.22 14.7959 113.415 11.5693ZM100.916 28.3472C100.083 29.9604 98.7866 31.2049 97.0738 32.1268C95.361 33.0487 93.2316 33.5096 90.593 33.5096H81.381V12.2146H90.5467C93.139 12.2146 95.3147 12.6756 97.0275 13.5513C98.7403 14.4271 100.036 15.6716 100.87 17.2388C101.703 18.8059 102.12 20.6957 102.12 22.816C102.166 24.8902 101.749 26.7339 100.916 28.3472Z" fill="#386794"/>
<path d="M172.297 15.9482C169.797 11.2006 166.232 7.55926 161.603 4.97806C156.974 2.44295 151.419 1.15234 144.985 1.15234H122.07V64.8989H144.753C151.234 64.8989 156.835 63.6083 161.511 61.0732C166.186 58.538 169.751 54.8506 172.25 50.103C174.75 45.3555 176 39.6399 176 33.0026C176 26.3652 174.796 20.6957 172.297 15.9482ZM160.492 44.618C159.104 47.614 157.02 49.8265 154.289 51.2554C151.558 52.6842 148.179 53.3756 144.105 53.3756H135.541V12.7217H144.198C148.225 12.7217 151.604 13.4131 154.335 14.8419C157.067 16.2708 159.15 18.4372 160.539 21.4332C161.927 24.4293 162.622 28.3011 162.622 33.0026C162.575 37.7501 161.881 41.6219 160.492 44.618Z" fill="#386794"/>
<path d="M30.3206 58.677C25.0896 63.8855 17.1738 64.7152 14.5352 64.8534L19.9976 48.1678C26.3395 41.9452 36.5699 42.0374 36.5699 42.0374C36.5699 42.0374 36.6625 52.4083 30.3206 58.677Z" fill="#56762C"/>
<path d="M62.6787 64.8989H47.958L31.5708 14.7958H31.0616L20.1368 48.2132L14.7207 64.8989C14.2115 64.945 13.9337 64.945 13.8412 64.945H0L22.4977 0H40.2736L62.6787 64.8989Z" fill="#386793"/>
</svg>
