<svg width="220" height="116" viewBox="0 0 220 116" fill="none" xmlns="http://www.w3.org/2000/svg">
<path fill-rule="evenodd" clip-rule="evenodd" d="M15.7436 80.941C15.7436 82.4418 14.5201 83.654 13.0196 83.654C11.5191 83.654 10.2956 82.4418 10.3187 80.941C10.2956 79.4401 11.5191 78.2209 13.0196 78.2209C14.5201 78.2209 15.7436 79.4401 15.7436 80.941Z" fill="#ED7901"/>
<path fill-rule="evenodd" clip-rule="evenodd" d="M27.1252 80.9441C27.1252 82.7428 25.6708 84.2021 23.8702 84.2021C22.0696 84.2021 20.6152 82.7428 20.6152 80.9441C20.6152 79.1454 22.0696 77.6838 23.8702 77.6838C25.6708 77.6838 27.1252 79.1454 27.1252 80.9441Z" fill="#ED7901"/>
<path fill-rule="evenodd" clip-rule="evenodd" d="M38.5286 80.9434C38.5286 83.0423 36.8434 84.744 34.7426 84.744C32.6419 84.744 30.9336 83.0423 30.9336 80.9434C30.9336 78.8445 32.6419 77.1428 34.7426 77.1428C36.8203 77.1428 38.5286 78.8445 38.5286 80.9434Z" fill="#ED7901"/>
<path fill-rule="evenodd" clip-rule="evenodd" d="M4.34093 80.9426C4.34093 82.1432 3.3711 83.113 2.17043 83.113C0.969754 83.113 0 82.1432 0 80.9426C0 79.7442 0.969754 78.7698 2.17043 78.7698C3.3711 78.7698 4.34093 79.7442 4.34093 80.9426Z" fill="#ED7901"/>
<path fill-rule="evenodd" clip-rule="evenodd" d="M15.7205 70.0824C15.7436 71.5879 14.5201 72.7978 13.0196 72.7978C11.5191 72.7978 10.2956 71.5879 10.3187 70.0824C10.2956 68.5862 11.5191 67.3694 13.0196 67.3694C14.5201 67.3694 15.7436 68.5862 15.7205 70.0824Z" fill="#ED7901"/>
<path fill-rule="evenodd" clip-rule="evenodd" d="M27.1252 70.0821C27.1252 71.8831 25.6708 73.3424 23.8702 73.3424C22.0696 73.3424 20.6152 71.8831 20.6152 70.0821C20.6152 68.2857 22.0696 66.8264 23.8702 66.8264C25.6708 66.8264 27.1252 68.2857 27.1252 70.0821Z" fill="#ED7901"/>
<path fill-rule="evenodd" clip-rule="evenodd" d="M38.5286 70.0814C38.5286 72.1849 36.8434 73.8843 34.7426 73.8843C32.6419 73.8843 30.9336 72.1849 30.9336 70.0814C30.9336 67.9848 32.6419 66.2854 34.7426 66.2854C36.8434 66.2854 38.5286 67.9848 38.5286 70.0814Z" fill="#ED7901"/>
<path fill-rule="evenodd" clip-rule="evenodd" d="M49.9319 70.0821C49.9319 72.4857 47.9927 74.4253 45.5919 74.4253C43.191 74.4253 41.252 72.4857 41.252 70.0821C41.252 67.6831 43.191 65.7366 45.5919 65.7366C47.9927 65.7366 49.9319 67.6831 49.9319 70.0821Z" fill="#ED7901"/>
<path fill-rule="evenodd" clip-rule="evenodd" d="M4.34093 70.0832C4.34093 71.2861 3.3711 72.2559 2.17043 72.2559C0.969754 72.2559 0 71.2861 0 70.0832C0 68.8825 0.969754 67.9104 2.17043 67.9104C3.3711 67.9104 4.34093 68.8825 4.34093 70.0832Z" fill="#ED7901"/>
<path fill-rule="evenodd" clip-rule="evenodd" d="M15.7449 59.2234C15.7449 60.7197 14.5214 61.9388 13.0209 61.9388C11.5204 61.9388 10.2969 60.7197 10.2969 59.2234C10.2969 57.7226 11.5204 56.5081 13.0209 56.5081C14.5214 56.5081 15.7449 57.7226 15.7449 59.2234Z" fill="#002F62"/>
<path fill-rule="evenodd" clip-rule="evenodd" d="M27.1252 59.2254C27.1252 61.0218 25.6708 62.481 23.8702 62.481C22.0696 62.481 20.6152 61.0218 20.6152 59.2254C20.6152 57.429 22.0696 55.9651 23.8702 55.9651C25.6708 55.9651 27.1252 57.429 27.1252 59.2254Z" fill="#002F62"/>
<path fill-rule="evenodd" clip-rule="evenodd" d="M38.5286 59.2247C38.5286 61.3235 36.8434 63.0253 34.7426 63.0253C32.6419 63.0253 30.9336 61.3235 30.9336 59.2247C30.9336 57.1281 32.6419 55.4241 34.7426 55.4241C36.8203 55.4241 38.5286 57.1281 38.5286 59.2247Z" fill="#002F62"/>
<path fill-rule="evenodd" clip-rule="evenodd" d="M49.9319 59.2247C49.9319 61.6237 47.9927 63.5679 45.5919 63.5679C43.191 63.5679 41.252 61.6237 41.252 59.2247C41.252 56.8256 43.191 54.8792 45.5919 54.8792C47.9927 54.8792 49.9319 56.8256 49.9319 59.2247Z" fill="#002F62"/>
<path fill-rule="evenodd" clip-rule="evenodd" d="M61.3372 59.2263C61.3372 61.9278 59.1442 64.1098 56.4432 64.1098C53.7423 64.1098 51.5723 61.9278 51.5723 59.2263C51.5723 56.5294 53.7423 54.3381 56.4432 54.3381C59.1442 54.3381 61.3372 56.5294 61.3372 59.2263Z" fill="#002F62"/>
<path fill-rule="evenodd" clip-rule="evenodd" d="M4.34093 59.2277C4.34093 60.4284 3.3711 61.3981 2.17043 61.3981C0.969754 61.3981 0 60.4284 0 59.2277C0 58.0293 0.969754 57.0549 2.17043 57.0549C3.3711 57.0549 4.34093 58.0293 4.34093 59.2277Z" fill="#002F62"/>
<path fill-rule="evenodd" clip-rule="evenodd" d="M15.7436 48.3621C15.7436 49.863 14.5201 51.0775 13.0196 51.0775C11.5191 51.0775 10.2956 49.863 10.3187 48.3621C10.2956 46.8659 11.5191 45.6467 13.0196 45.6467C14.5201 45.6467 15.7205 46.8659 15.7436 48.3621Z" fill="#ED7901"/>
<path fill-rule="evenodd" clip-rule="evenodd" d="M27.1252 48.3621C27.1252 50.1654 25.6708 51.6224 23.8702 51.6224C22.0696 51.6224 20.6152 50.1654 20.6152 48.3621C20.6152 46.5634 22.0696 45.1018 23.8702 45.1018C25.6708 45.1018 27.1252 46.5634 27.1252 48.3621Z" fill="#ED7901"/>
<path fill-rule="evenodd" clip-rule="evenodd" d="M38.5286 48.3633C38.5286 50.4668 36.8434 52.1662 34.7426 52.1662C32.6419 52.1662 30.9336 50.4668 30.9336 48.3633C30.9336 46.2691 32.6419 44.5627 34.7426 44.5627C36.8203 44.5627 38.5286 46.2691 38.5286 48.3633Z" fill="#ED7901"/>
<path fill-rule="evenodd" clip-rule="evenodd" d="M49.9319 48.3679C49.9319 50.7624 47.9927 52.7065 45.5919 52.7065C43.191 52.7065 41.252 50.7624 41.252 48.3679C41.252 45.9643 43.191 44.0178 45.5919 44.0178C47.9927 44.0178 49.9319 45.9643 49.9319 48.3679Z" fill="#ED7901"/>
<path fill-rule="evenodd" clip-rule="evenodd" d="M61.3372 48.3711C61.3372 51.0634 59.1442 53.2524 56.4432 53.2524C53.7423 53.2524 51.5723 51.0634 51.5723 48.3711C51.5723 45.6673 53.7423 43.4807 56.4432 43.4807C59.1442 43.4807 61.3372 45.6673 61.3372 48.3711Z" fill="#ED7901"/>
<path fill-rule="evenodd" clip-rule="evenodd" d="M15.7218 91.8035C15.7449 93.302 14.5214 94.5166 13.0209 94.5166C11.5204 94.5166 10.2969 93.302 10.2969 91.8035C10.2969 90.3003 11.5204 89.0881 13.0209 89.0881C14.5214 89.0881 15.7449 90.3003 15.7218 91.8035Z" fill="#ED7901"/>
<path fill-rule="evenodd" clip-rule="evenodd" d="M27.1252 91.8031C27.1252 93.5995 25.6708 95.0565 23.8702 95.0565C22.0696 95.0565 20.6152 93.5995 20.6152 91.8031C20.6152 90.0044 22.0696 88.5452 23.8702 88.5452C25.6708 88.5452 27.1252 90.0044 27.1252 91.8031Z" fill="#ED7901"/>
<path fill-rule="evenodd" clip-rule="evenodd" d="M4.34093 91.8042C4.34093 93.0026 3.3711 93.9747 2.17043 93.9747C0.969754 93.9747 0 93.0026 0 91.8042C0 90.6035 0.969754 89.6292 2.17043 89.6292C3.3711 89.6292 4.34093 90.6035 4.34093 91.8042Z" fill="#ED7901"/>
<path fill-rule="evenodd" clip-rule="evenodd" d="M4.34093 113.519C4.34093 114.715 3.3711 115.689 2.17043 115.689C0.969754 115.689 0 114.715 0 113.519C0 112.316 0.969754 111.346 2.17043 111.346C3.3711 111.346 4.34093 112.316 4.34093 113.519Z" fill="#ED7901"/>
<path fill-rule="evenodd" clip-rule="evenodd" d="M15.7449 102.661C15.7449 104.162 14.5214 105.374 13.0209 105.374C11.5204 105.374 10.32 104.162 10.2969 102.661C10.2969 101.16 11.5204 99.9436 13.0209 99.9436C14.5214 99.9436 15.7449 101.16 15.7449 102.661Z" fill="#ED7901"/>
<path fill-rule="evenodd" clip-rule="evenodd" d="M4.34093 102.659C4.34093 103.858 3.3711 104.83 2.17043 104.83C0.969754 104.83 0 103.858 0 102.659C0 101.461 0.969754 100.487 2.17043 100.487C3.3711 100.487 4.34093 101.461 4.34093 102.659Z" fill="#ED7901"/>
<path fill-rule="evenodd" clip-rule="evenodd" d="M27.1252 37.5043C27.1252 39.3007 25.6708 40.76 23.8702 40.76C22.0696 40.76 20.6152 39.3007 20.6152 37.5043C20.6152 35.7056 22.0696 34.2463 23.8702 34.2463C25.6708 34.2463 27.1252 35.7056 27.1252 37.5043Z" fill="#ED7901"/>
<path fill-rule="evenodd" clip-rule="evenodd" d="M38.5286 37.5063C38.5286 39.6028 36.8434 41.3069 34.7426 41.3069C32.6419 41.3069 30.9336 39.6028 30.9336 37.5063C30.9336 35.4097 32.6419 33.7034 34.7426 33.7034C36.8434 33.7034 38.5286 35.4097 38.5286 37.5063Z" fill="#ED7901"/>
<path fill-rule="evenodd" clip-rule="evenodd" d="M49.9319 37.5072C49.9319 39.9062 47.9927 41.8504 45.5919 41.8504C43.191 41.8504 41.252 39.9062 41.252 37.5072C41.252 35.1081 43.191 33.1663 45.5919 33.1663C47.9927 33.1663 49.9319 35.1081 49.9319 37.5072Z" fill="#ED7901"/>
<path fill-rule="evenodd" clip-rule="evenodd" d="M61.3372 37.5056C61.3372 40.2071 59.1442 42.3914 56.4432 42.3914C53.7423 42.3914 51.5723 40.2071 51.5723 37.5056C51.5723 34.8087 53.7423 32.6174 56.4432 32.6174C59.1442 32.6174 61.3372 34.8087 61.3372 37.5056Z" fill="#ED7901"/>
<path fill-rule="evenodd" clip-rule="evenodd" d="M38.5286 26.6508C38.5286 28.7497 36.8434 30.4468 34.7426 30.4468C32.6419 30.4468 30.9336 28.7497 30.9336 26.6508C30.9336 24.5519 32.6419 22.8479 34.7426 22.8479C36.8434 22.8479 38.5286 24.5519 38.5286 26.6508Z" fill="#ED7901"/>
<path fill-rule="evenodd" clip-rule="evenodd" d="M49.9319 26.6485C49.9319 29.0452 47.9927 30.9917 45.5919 30.9917C43.191 30.9917 41.252 29.0452 41.252 26.6485C41.252 24.2495 43.191 22.303 45.5919 22.303C47.9927 22.303 49.9319 24.2495 49.9319 26.6485Z" fill="#ED7901"/>
<path fill-rule="evenodd" clip-rule="evenodd" d="M61.3372 26.6482C61.3372 29.3474 59.1442 31.5363 56.4432 31.5363C53.7423 31.5363 51.5723 29.3474 51.5723 26.6482C51.5723 23.9489 53.7423 21.76 56.4432 21.76C59.1442 21.76 61.3372 23.9489 61.3372 26.6482Z" fill="#ED7901"/>
<path fill-rule="evenodd" clip-rule="evenodd" d="M49.9319 15.7872C49.9319 18.1862 47.9927 20.1304 45.5919 20.1304C43.191 20.1304 41.252 18.1862 41.252 15.7872C41.252 13.3881 43.191 11.4417 45.5919 11.4417C47.9927 11.4417 49.9319 13.3881 49.9319 15.7872Z" fill="#ED7901"/>
<path fill-rule="evenodd" clip-rule="evenodd" d="M61.3369 15.7868C61.3369 18.486 59.1438 20.6749 56.4429 20.6749C53.7419 20.6749 51.5719 18.486 51.5488 15.7868C51.5719 13.0899 53.7419 10.8987 56.4429 10.8987C59.1438 10.8987 61.3369 13.0899 61.3369 15.7868Z" fill="#ED7901"/>
<path fill-rule="evenodd" clip-rule="evenodd" d="M61.3372 4.88608C61.3372 7.58297 59.1442 9.7742 56.4432 9.7742C53.7423 9.7742 51.5723 7.58297 51.5723 4.88608C51.5723 2.18687 53.7423 0.000244141 56.4432 0.000244141C59.1442 0.000244141 61.3372 2.18687 61.3372 4.88608Z" fill="#ED7901"/>
<path d="M77.4256 103.016H77.9796C79.734 103.016 80.796 103.346 80.796 105.207C80.796 107.152 79.457 107.399 77.9796 107.399H77.4256V103.016ZM74.7246 115.773H78.7183C80.8883 115.773 84.2357 115.526 84.2357 111.864C84.2357 109.26 82.4812 108.495 81.0038 108.186V108.144C82.1118 107.833 83.52 106.902 83.52 104.877C83.52 102.044 81.0961 101.506 78.7183 101.506H74.7246V115.773ZM77.4256 108.909H77.9796C80.3112 108.909 81.5116 109.613 81.5116 111.555C81.5116 113.85 79.7571 114.058 77.9796 114.058H77.4256V108.909Z" fill="#002F62"/>
<path d="M91.4378 103.905H91.4841L93.4 110.211H89.4756L91.4378 103.905ZM85.3203 115.773H87.7212L89.0139 111.721H93.8618L95.1083 115.773H97.9709L93.0076 101.506H90.2375L85.3203 115.773Z" fill="#002F62"/>
<path d="M99.7012 101.506H102.656L108.173 112.093H108.22V101.506H110.436V115.773H107.758L101.964 104.669H101.917V115.773H99.7012V101.506Z" fill="#002F62"/>
<path d="M113.691 101.506H116.415V107.71H116.462L121.032 101.506H123.895L118.793 107.937L124.426 115.773H121.125L116.462 108.867H116.415V115.773H113.691V101.506Z" fill="#002F62"/>
<path d="M126.137 101.506H134.47V103.141H128.861V107.523H134.193V109.156H128.861V114.058H134.655V115.773H126.137V101.506Z" fill="#002F62"/>
<path d="M137.102 101.506H140.057L145.574 112.093H145.62V101.506H147.836V115.773H145.135L139.341 104.669H139.318V115.773H137.102V101.506Z" fill="#002F62"/>
<path d="M161.479 114.679C160.394 115.318 158.824 115.999 156.862 115.999C152.383 115.999 150.514 112.693 150.514 108.516C150.514 104.318 151.853 101.28 156.262 101.28C159.355 101.28 161.34 102.519 161.34 105.249H158.409C158.339 104.401 158.247 102.644 156.262 102.644C153.353 102.644 153.353 106.387 153.353 108.287C153.353 111.721 153.999 114.635 157.093 114.635C157.901 114.635 158.524 114.346 158.755 114.058V109.095H156.192V107.38H161.479V114.679Z" fill="#002F62"/>
<path d="M167.021 103.016H167.575C169.237 103.016 170.853 103.162 170.853 105.436C170.853 107.523 169.491 108.02 167.575 108.02H167.021V103.016ZM164.32 115.773H167.021V109.528H167.875C169.999 109.528 170.392 110.479 170.923 113.086L171.431 115.773H174.131L173.324 111.989C172.977 110.336 172.7 108.971 170.576 108.579V108.537C171.869 108.207 173.554 107.44 173.554 105.228C173.554 101.982 170.738 101.506 167.575 101.506H164.32V115.773Z" fill="#002F62"/>
<path d="M186.55 110.915C186.55 113.457 186.019 116 181.379 116C176.785 116 176.254 113.457 176.254 110.915V101.506H178.955V110.915C178.955 113.148 179.301 114.635 181.379 114.635C183.572 114.635 183.849 113.148 183.849 110.915V101.506H186.55V110.915Z" fill="#002F62"/>
<path d="M192.344 103.016H193.036C194.952 103.016 195.991 103.45 195.991 105.436C195.991 107.729 194.583 108.061 193.036 108.061H192.344V103.016ZM189.643 115.773H192.344V109.571H193.036C195.275 109.571 198.692 109.239 198.692 105.457C198.692 102.169 196.337 101.506 193.036 101.506H189.643V115.773Z" fill="#002F62"/>
<path d="M203.285 103.016H203.954C205.87 103.016 206.909 103.45 206.909 105.436C206.909 107.729 205.501 108.061 203.954 108.061H203.285V103.016ZM200.561 115.773H203.285V109.571H203.954C206.216 109.571 209.633 109.239 209.633 105.457C209.633 102.169 207.255 101.506 203.954 101.506H200.561V115.773Z" fill="#002F62"/>
<path d="M211.482 101.506H219.816V103.141H214.183V107.523H219.516V109.156H214.183V114.058H220.001V115.773H211.482V101.506Z" fill="#002F62"/>
<path fill-rule="evenodd" clip-rule="evenodd" d="M144.119 58.571C144.119 61.5081 141.741 63.8794 138.81 63.8794C135.878 63.8794 133.5 61.5081 133.5 58.571C133.5 55.6409 135.878 53.2581 138.81 53.2581C141.741 53.2581 144.119 55.6409 144.119 58.571Z" fill="#002F62"/>
<path d="M217.946 54.3584C216.861 54.3584 214.045 54.3584 211.736 54.3584C208.943 54.3584 208.92 54.3584 207.443 57.9465L199.524 78.6166H199.501L191.906 58.9856C190.937 56.635 189.667 54.7902 188.767 54.5108C188.467 54.4069 187.52 54.3538 187.035 54.3538C185.95 54.3538 182.58 54.3561 182.349 54.3584C182.303 54.3584 181.056 54.3838 180.826 54.4277C179.648 54.6193 178.379 56.358 177.294 58.9741L169.768 78.6097H169.745L161.804 57.9419C160.326 54.3538 160.303 54.3538 157.533 54.3538C155.225 54.3538 152.385 54.3538 151.3 54.3538C149.084 54.3538 148.876 55.4806 149.823 57.9442C151.346 61.948 161.388 86.2432 163.35 91.4616C164.551 94.6249 165.428 95.0497 169.63 95.0497H169.699C173.9 95.0497 174.893 94.5902 176.093 91.4292C177.271 88.3213 181.126 80.7201 184.635 71.401C188.121 80.7224 191.837 88.3213 193.015 91.4292C194.215 94.5902 195.184 95.0543 199.386 95.0543H199.455C203.657 95.0543 204.649 94.5902 205.85 91.4292C207.835 86.2109 217.923 61.9526 219.447 57.9489C220.37 55.4852 220.186 54.3584 217.946 54.3584Z" fill="#002F62"/>
<path d="M144.765 32.762L132.646 32.7689C124.797 32.7689 119.164 36.3132 119.164 47.4171V90.8931C119.164 94.4767 120.434 95.0539 125.605 95.0539C130.707 95.0539 132.022 94.4767 132.022 90.8931V49.9871C132.022 45.2536 134.308 45.2975 138.094 45.2975H144.765C148.367 45.2975 148.944 43.8243 148.944 38.703C148.944 33.5309 148.367 32.762 144.765 32.762Z" fill="#002F62"/>
<path d="M113.44 91.4666C110.3 88.084 106.076 82.3 96.6108 71.2076C96.6108 71.2076 104.644 63.6549 110.9 58.3303C112.932 56.6101 112.701 54.3358 109.746 54.3358C108.315 54.3358 105.152 54.3358 102.082 54.3358C98.3884 54.3358 98.0882 55.4649 96.2645 56.8179L87.0075 64.8763L87.0537 36.9329C87.0537 33.347 85.8071 32.7698 80.636 32.7698C75.5112 32.7698 74.1953 33.347 74.1953 36.9329V90.894C74.1953 94.4776 75.4419 95.0548 80.636 95.0548C85.7378 95.0548 87.0537 94.4776 87.0537 90.894L87.0306 77.9129L97.6728 91.4713C100.397 95.0548 100.72 95.0548 103.513 95.0548C105.822 95.0548 109.931 95.0548 111.016 95.0548C113.532 95.0548 115.725 93.9419 113.44 91.4666Z" fill="#002F62"/>
</svg>
