<svg width="281" height="314" viewBox="0 0 281 314" fill="none" xmlns="http://www.w3.org/2000/svg">
<path fill-rule="evenodd" clip-rule="evenodd" d="M280.957 31.7356C280.385 29.1757 279.59 26.7192 278.572 24.3979V290.509C279.534 288.514 280.329 286.415 280.957 284.229V31.7356ZM227.693 2.36904V310.924C228.488 311.226 229.283 311.497 230.078 311.743V1.60587C229.681 1.72511 229.275 1.82846 228.878 1.95566C228.48 2.08286 228.091 2.2339 227.693 2.377V2.36904ZM240.413 0.00795004V313.508C241.208 313.54 242.003 313.54 242.798 313.516V0.0317984C242.003 -7.19651e-07 241.208 -0.00794954 240.413 0.00795004ZM268.237 10.2711C267.466 9.5954 266.671 8.95147 265.852 8.33934V305.685C266.671 305.089 267.466 304.469 268.237 303.817V10.2791V10.2711ZM253.133 311.91C253.546 311.791 253.96 311.672 254.373 311.536C254.755 311.409 255.136 311.274 255.518 311.139V2.63137C254.731 2.33723 253.936 2.05899 253.133 1.81254V311.91ZM24.1788 194.38L26.5637 195.756V118.118L24.1788 119.501V194.38ZM36.8985 201.702L39.2834 203.077V110.749L36.8985 112.132V201.702ZM49.6181 209.024L52.0031 210.399V103.379L49.6181 104.762V209.024ZM62.3378 216.346L64.7227 217.721V96.0096L62.3378 97.3929V216.346ZM75.0574 223.667L77.4424 225.043V88.6402L75.0574 90.0235V223.667ZM87.7771 230.989L90.162 232.364V81.2707L87.7771 82.654V230.989ZM100.497 238.311L102.882 239.686V73.9013L100.497 75.2845V238.311ZM113.216 245.633L115.601 247.008V66.5318L113.216 67.9151V245.633ZM125.936 252.954L128.321 254.33V59.1624L125.936 60.5456V252.962V252.954ZM138.656 260.276L141.041 261.651V51.7929L138.656 53.1762V260.284V260.276ZM151.375 267.598L153.76 268.973V44.4234L151.375 45.8067V267.606V267.598ZM164.095 274.92L166.48 276.295V37.054L164.095 38.4372V274.928V274.92ZM176.815 282.241L179.2 283.617V29.6845L176.815 31.0678V282.249V282.241ZM189.534 289.563L191.919 290.939V22.3151L189.534 23.6983V289.571V289.563ZM217.359 7.56821L214.974 8.95147V304.207L217.359 305.582V7.57614V7.56821ZM202.254 296.885L204.639 298.26V14.9456L202.254 16.3289V296.893V296.885ZM13.8441 126.346C13.0173 127.062 12.2144 127.801 11.4591 128.572V185.31C12.2144 186.081 13.0173 186.82 13.8441 187.536V126.354V126.346ZM1.12439 147.333C-0.378113 153.614 -0.370178 160.204 1.12439 166.492V147.333Z" fill="#B4E7FB"/>
</svg>
