<svg width="332" height="457" viewBox="0 0 332 457" fill="none" xmlns="http://www.w3.org/2000/svg">
<path fill-rule="evenodd" clip-rule="evenodd" d="M10.3505 262.965V221.038L12.7354 222.421V266.074C15.6927 269.667 19.135 272.974 23.0702 275.907V228.407L25.4551 229.791V277.617C26.6714 278.436 27.9195 279.223 29.2233 279.962L35.7898 283.73V235.777L38.1747 237.16V285.097L48.5095 291.02V243.138L50.8944 244.522V292.387L61.2292 298.31V251.374C62.0559 252.09 62.8589 252.829 63.6141 253.6V299.685L312.443 442.36V383.102L54.7898 235.403C49.535 232.39 49.5191 224.838 54.758 221.817L348.829 52.3117C349.33 52.0175 349.854 51.7949 350.371 51.62C355.276 50.0301 360.642 53.6313 360.65 59.0849L360.761 397.229C360.761 399.59 359.76 401.594 358.233 403.001V456.479C359.974 456.328 361.699 456.105 363.409 455.803V348.942L364.601 349.634V455.581C366.35 455.231 368.075 454.81 369.776 454.309V352.623L370.969 353.315V453.951C371.112 453.903 371.263 453.872 371.406 453.824C373.012 453.299 374.594 452.711 376.144 452.059V356.312L377.337 357.003V451.542C379.102 450.755 380.827 449.881 382.512 448.927V359.984L383.704 360.676V448.243C385.485 447.178 387.21 446.017 388.88 444.777V363.673L390.072 364.365V443.871C391.885 442.448 393.61 440.929 395.248 439.308V367.362L396.44 368.053V438.099C398.3 436.151 400.033 434.061 401.615 431.859V371.043L402.808 371.734V430.133C404.811 427.128 406.552 423.917 407.983 420.514V374.723L409.176 375.415V417.43C411.378 411.245 412.586 404.503 412.57 397.348L411.72 59.22C411.616 18.0322 371.112 -9.14816 334.106 2.85602C330.163 4.13594 326.259 5.86102 322.451 8.05517L28.9768 177.425C12.0438 187.196 2.40067 203.23 -0.000152588 220.148V237.097C1.31155 246.279 4.75381 255.19 10.3346 262.989L10.3505 262.965ZM73.9488 272.37C75.4513 278.65 75.4434 285.241 73.9488 291.529V272.37ZM357.033 403.891C356.484 404.225 355.912 404.519 355.3 404.718C354.211 405.076 353.034 405.179 351.85 405.028V456.694C353.583 456.733 355.308 456.702 357.025 456.59V403.899L357.033 403.891ZM326.379 450.254C328.088 451.121 329.821 451.884 331.554 452.568V394.057L326.379 391.092V450.254ZM332.746 453.037C334.463 453.673 336.189 454.221 337.922 454.682V397.706L332.746 394.741V453.037ZM339.114 454.992C340.839 455.422 342.564 455.764 344.289 456.034V401.363L339.114 398.398V455V454.992ZM350.657 456.662V404.766C350.085 404.591 349.512 404.36 348.956 404.042L345.482 402.047V456.193C347.207 456.423 348.94 456.582 350.657 456.654V456.662ZM325.178 390.408L320.003 387.443V446.701L323.54 448.728C324.081 449.038 324.63 449.316 325.178 449.61V390.408ZM318.81 446.017V386.759L313.635 383.794V443.052L318.81 446.017Z" fill="#02AEF0"/>
</svg>
