<svg width="81" height="90" viewBox="0 0 81 90" fill="none" xmlns="http://www.w3.org/2000/svg">
<path fill-rule="evenodd" clip-rule="evenodd" d="M5.78662 54.5624L49.1209 79.5407V9.39968L5.73892 34.5687C-1.93262 39.0206 -1.90878 50.1265 5.78662 54.5624ZM51.5059 80.916L57.0707 84.1198V4.78086L51.5059 8.00847V80.908V80.916ZM65.0205 88.4285V0.511773C65.0205 0.511773 64.941 0.527704 64.9092 0.543603C64.146 0.790047 63.3908 1.13186 62.6515 1.56115L59.4636 3.41347V85.511L62.8661 87.4745C63.5736 87.88 64.2971 88.198 65.0285 88.4445L65.0205 88.4285ZM72.1356 88.4524C72.4138 88.357 72.6921 88.2537 72.9703 88.1424V0.949051C71.2452 0.20177 69.3373 -0.124183 67.4055 0.0427628V88.9453C69.0272 89.1202 70.6331 88.9373 72.1356 88.4445V88.4524ZM80.1172 77.4419L79.9502 11.5302C79.9423 7.63482 78.0741 4.39131 75.3473 2.34026V86.8147C78.1854 84.7716 80.1251 81.4407 80.1172 77.4419Z" fill="#B4E7FB"/>
</svg>
