<svg width="101" height="112" viewBox="0 0 101 112" fill="none" xmlns="http://www.w3.org/2000/svg">
<path fill-rule="evenodd" clip-rule="evenodd" d="M7.27731 43.3315L61.7873 11.9115V100.142L7.21732 68.4815C-2.43269 62.8815 -2.40269 48.9115 7.27731 43.3315ZM64.7873 10.1816L71.7873 6.15153V105.952L64.7873 101.892V10.1916V10.1816ZM81.7873 0.731544V111.322C81.7873 111.322 81.6873 111.302 81.6473 111.282C80.6873 110.972 79.7373 110.542 78.8073 110.002L74.7973 107.672V4.40153L79.0773 1.93156C79.9673 1.42155 80.8773 1.02152 81.7973 0.711525L81.7873 0.731544ZM90.7373 0.701515C91.0873 0.821518 91.4373 0.95153 91.7873 1.09153V110.772C89.6173 111.712 87.2173 112.122 84.7873 111.912V0.0815201C86.8273 -0.138481 88.8473 0.0915222 90.7373 0.711525V0.701515ZM100.777 14.5516L100.567 97.4615C100.557 102.362 98.2073 106.442 94.7773 109.022V2.76157C98.3473 5.33157 100.787 9.52155 100.777 14.5516Z" fill="#B4E7FB"/>
</svg>
